<svg id="Layer_2" data-name="Layer 2" xmlns="http://www.w3.org/2000/svg" width="59.97mm" height="10.58mm" viewBox="0 0 170 30"><defs><style>.cls-1{fill:#fff;}.cls-2{fill:#fce82b;}.cls-3{fill:#eb6549;}.cls-4{fill:#ea2d2e;}.cls-5{fill:#009d53;}.cls-6{fill:#9e9b80;}.cls-7{fill:#f0922f;}.cls-8{fill:none;}.cls-9{fill:#00a8de;}.cls-10{fill:#a5584a;}.cls-11{fill:#009eda;}.cls-12{fill:#00b1e0;}.cls-13{fill:#0072b5;}.cls-14{fill:#f5ddbf;}.cls-15{fill:#00a9db;}.cls-16{fill:#231f20;}</style></defs><path class="cls-1" d="M23.59,9.42a.4.4,0,0,1-.17-.37.39.39,0,0,1,.15-.28,1.11,1.11,0,0,1,.87-.51c.56,0,1-.71,1.57-.87a3.21,3.21,0,0,1,1.75.32c.42.14.6,0,.6,0L28,6.83a2.36,2.36,0,0,0-1-.22c-.24.08-.23-.55-.21-.76A.88.88,0,0,1,27,5.5l.18.22a3.7,3.7,0,0,0,.58-.1c.18,0,0-.63-.17-.71a.5.5,0,0,0-.36,0h-.36v.25s-.55-.42-.59-.76-.08-.62-.08-.62L26,3.47a.93.93,0,0,1,.54-.14c.19,0,.64-.36.81-.34a4.62,4.62,0,0,0,1-.31c.14,0,.67.31.84.34a2.55,2.55,0,0,0,1.1,0s.12.36-.23.41a3.39,3.39,0,0,1,1.29,1.49l.26.2v.31a2.79,2.79,0,0,1,.31.68,9.37,9.37,0,0,1,.81.86,20.27,20.27,0,0,0,.45,3.11,4.92,4.92,0,0,0,1,2.18,5.65,5.65,0,0,1,1.52,2.27,1,1,0,0,0,.92-1,.88.88,0,0,0-.14-.45c-.55-1.29-1.69-2.09-1.69-3.38S35.89,6.42,36.53,7s-1,1.47-.92,2.58a8.83,8.83,0,0,0,1.57,3.12,2,2,0,0,1-.58,2.8,2,2,0,0,1-1.06.33s-.31.19-.09.65-.14.42,0,.68a3.3,3.3,0,0,0,.45.9c.14.13,0,.53.08.67s0,.43,0,.62-.36.48-.31.71a1.29,1.29,0,0,1-.33.9c-.17.11-.43.26-.39.56s-.29.09-.54.46-.45.36-.43.55a.62.62,0,0,1-.36.57,1.28,1.28,0,0,0-.35.26L31,22.66s.19-.54.5-.66a11.19,11.19,0,0,1,1.16-.18c.12,0,1.29-2.2,1-3s-1.42-1.21-1.66-1.81a2.92,2.92,0,0,1-.23-1.4A3.54,3.54,0,0,0,32.05,17c.23.28-.4.75-.4,1.29a2.59,2.59,0,0,0,.19,1.29l-.72.11a1.26,1.26,0,0,1-.31.38,6.18,6.18,0,0,1-.66-.16c-.2,0-.36.18-.47.18s-.29-.23-.4-.18-.17.23-.31.18-1.29-.8-1.86-.68-.32-.94-.81-1.2c-.23-.13-.21-.15-.21-.15l.18-1.73a1.89,1.89,0,0,1,.72.49c.15.26.26,1,.71,1.29a2.71,2.71,0,0,0,1.86.09c.57-.12,0-1.45-.14-1.72a2.34,2.34,0,0,1,.68-3,9.62,9.62,0,0,1-1.35-2.4c-.31-1-.45-.65-.6-.65S27,9.17,26.75,9a1,1,0,0,0-1,.17c-.08.17-.17.19-.17.19Z"/><path d="M28.39,2.72a3.39,3.39,0,0,1-1,.31.8.8,0,0,0-.4.17c-.14.09-.34.2-.41.18a.94.94,0,0,0-.59.14h0l.22.35a3.09,3.09,0,0,1,.08.6c0,.35.59.78.62.79l.1.08L27,5h.32a.34.34,0,0,1,.31,0,.89.89,0,0,1,.22.53h0a3.47,3.47,0,0,1-.56.11l-.18-.24h0a.84.84,0,0,0-.19.39,1.83,1.83,0,0,0,.11.77.15.15,0,0,0,.16,0,2.13,2.13,0,0,1,.88.29l.29.85a.89.89,0,0,1-.51,0h-.14A3,3,0,0,0,26,7.45a2.34,2.34,0,0,0-.78.45,1.38,1.38,0,0,1-.78.41,1.22,1.22,0,0,0-.88.48h0a.46.46,0,0,0-.15.31.44.44,0,0,0,.19.41h2a.52.52,0,0,0,.21-.23,1,1,0,0,1,.92-.14,6,6,0,0,1,.61.62c.55.62.75.82.84.82h.22c.09,0,.2.27.32.69A8.94,8.94,0,0,0,30,13.64a2.57,2.57,0,0,0-1,1.93,2.3,2.3,0,0,0,.31,1.12A3.45,3.45,0,0,1,29.73,18a.88.88,0,0,1,0,.23.19.19,0,0,1-.18.13,2.49,2.49,0,0,1-1.82-.07,1.88,1.88,0,0,1-.57-.94,2.83,2.83,0,0,0-.11-.31,2.12,2.12,0,0,0-.76-.51h-.07l-.17,1.8.22.19a1.06,1.06,0,0,1,.34.63c.06.26.14.64.51.58a3.56,3.56,0,0,1,1.67.58l.16.09c.12,0,.2,0,.26-.09a.18.18,0,0,1,.09-.08.25.25,0,0,1,.18.08.37.37,0,0,0,.2.09.47.47,0,0,0,.19-.06.39.39,0,0,1,.27-.11l.26.08a.76.76,0,0,0,.42.06,1,1,0,0,0,.33-.36l.78-.13h0a2.79,2.79,0,0,1-.18-1.28A2.26,2.26,0,0,1,32,17.7c0-.09.08-.17.11-.25a2.87,2.87,0,0,0,.69.7,2.55,2.55,0,0,1,.89,1,.57.57,0,0,1,0,.26,6.43,6.43,0,0,1-1,2.58.88.88,0,0,1-.23,0,4.79,4.79,0,0,0-.92.16c-.32.12-.53.66-.53.69h0l2.34.67h0a1.59,1.59,0,0,1,.33-.25.69.69,0,0,0,.39-.55V22.6a.23.23,0,0,1,.11-.17,1.5,1.5,0,0,0,.3-.32.52.52,0,0,1,.35-.23c.09,0,.19,0,.19-.22v-.08a.57.57,0,0,1,.34-.45h0a1.4,1.4,0,0,0,.37-.87.14.14,0,0,0,0-.09h0a.77.77,0,0,1,.16-.31.63.63,0,0,0,.15-.32v-.45a.41.41,0,0,0,0-.22.17.17,0,0,1,0-.14v-.15a.43.43,0,0,0,0-.16.29.29,0,0,0-.08-.23,3.1,3.1,0,0,1-.42-.88.15.15,0,0,1,0-.18.46.46,0,0,0,.09-.23.81.81,0,0,0-.12-.37.8.8,0,0,1-.09-.3.43.43,0,0,1,.14-.3,2.19,2.19,0,0,0,1.8-1.14,2,2,0,0,0,.18-.84,2.52,2.52,0,0,0-.31-1.2c-.11-.18-.25-.37-.4-.61a6.42,6.42,0,0,1-1.29-2.5v-.1a2.53,2.53,0,0,1,.63-1.29,1.64,1.64,0,0,0,.45-.85.37.37,0,0,0-.17-.32.45.45,0,0,0-.5,0,3.73,3.73,0,0,0-1.35,2.79,3.51,3.51,0,0,0,.9,2.08,7.12,7.12,0,0,1,.8,1.29,1.58,1.58,0,0,1,.13.57.78.78,0,0,1-.09.37,1.18,1.18,0,0,1-.75.48,6.1,6.1,0,0,0-1.52-2.26,3.54,3.54,0,0,1-.8-1.65l-.08-.67A10.86,10.86,0,0,1,33,7.73a3.75,3.75,0,0,0,0-.67,7.87,7.87,0,0,0-.88-.85,3.57,3.57,0,0,0-.29-.67l-.07-.32L31.49,5A3.31,3.31,0,0,0,30.2,3.57a.17.17,0,0,0,.13-.1.28.28,0,0,0,0-.18.49.49,0,0,0,0-.17h0a3,3,0,0,1-1,0h0A2,2,0,0,1,29,3C28.67,2.77,28.49,2.69,28.39,2.72Zm0,.09a1.54,1.54,0,0,1,.46.19,1.89,1.89,0,0,0,.36.16h0a2.37,2.37,0,0,0,1.06,0v.08a.24.24,0,0,1,0,.12.23.23,0,0,1-.18.09h0a3.29,3.29,0,0,1,1.29,1.47h0l.24.2v.31h0a3.39,3.39,0,0,1,.4.78h0a8.34,8.34,0,0,1,.81.87v.63a11.08,11.08,0,0,0,.24,2.37l.15.5a3.59,3.59,0,0,0,.83,1.69,5.3,5.3,0,0,1,1.49,2.26h0A1.26,1.26,0,0,0,36.4,14a1.17,1.17,0,0,0,0-1,6.66,6.66,0,0,0-.81-1.29,3.45,3.45,0,0,1-.87-2A3.64,3.64,0,0,1,36,7a.35.35,0,0,1,.41,0c.27.23,0,.54-.31,1a2.44,2.44,0,0,0-.65,1.51,6.41,6.41,0,0,0,1.29,2.58c.16.23.3.44.39.59a2.29,2.29,0,0,1,.14,2,2.14,2.14,0,0,1-1.74,1.1h0s-.35.22-.1.71c.11.23.06.32,0,.4a.27.27,0,0,0-.07.27,3.93,3.93,0,0,0,.47.91c.06.07,0,.19,0,.32a.53.53,0,0,0,0,.35.5.5,0,0,1,0,.34.61.61,0,0,0,0,.27.54.54,0,0,1-.14.27c-.08.09-.21.29-.17.42a1.32,1.32,0,0,1-.32.87h0a.7.7,0,0,0-.38.54v.09c0,.08,0,.09-.13.12a.62.62,0,0,0-.4.25,1,1,0,0,1-.28.31c-.09.09-.15.14-.15.25h0a.63.63,0,0,1-.35.47,1.66,1.66,0,0,0-.34.25L31,22.51a.9.9,0,0,1,.45-.58,5.47,5.47,0,0,1,.9-.16h.26c.08,0,.26-.36.37-.56a6.12,6.12,0,0,0,.72-2.16.71.71,0,0,0,0-.29,2.79,2.79,0,0,0-.91-1,2.45,2.45,0,0,1-.72-.75h0a.14.14,0,0,0,0-.09h0a3,3,0,0,1-.2-.94v-.39h-.1V16a2.13,2.13,0,0,0,.21,1h0a3.05,3.05,0,0,1-.13.32,2.26,2.26,0,0,0-.29.92h0a3.35,3.35,0,0,0,.17,1.29l-.68.11h0a.82.82,0,0,1-.29.35.83.83,0,0,1-.34-.07l-.27-.07a.53.53,0,0,0-.35.1l-.14.07a.36.36,0,0,1-.15-.08c-.09-.07-.18-.13-.27-.09a.57.57,0,0,0-.13.1c0,.07-.09.09-.14.07l-.15-.1a3.57,3.57,0,0,0-1.73-.58c-.27,0-.33-.16-.41-.5a1,1,0,0,0-.38-.71l-.18-.1s.16-1.53.17-1.65a1.6,1.6,0,0,1,.65.44,1.45,1.45,0,0,1,.11.29,1.87,1.87,0,0,0,.61,1,2.53,2.53,0,0,0,1.89.11.28.28,0,0,0,.23-.2c.2-.4-.2-1.36-.34-1.59a2.32,2.32,0,0,1,.67-3h0A9.85,9.85,0,0,1,28.77,11c-.16-.59-.29-.71-.37-.75a.21.21,0,0,0-.19,0h-.07a5.75,5.75,0,0,1-.77-.79c-.2-.15-.42-.29-.63-.42a.77.77,0,0,0-.63,0,.59.59,0,0,0-.46.24c0,.12-.12.17-.14.17H23.59a.35.35,0,0,1-.14-.28h0a.36.36,0,0,1,.13-.26h0a1.05,1.05,0,0,1,.8-.44A1.47,1.47,0,0,0,25.22,8,2.14,2.14,0,0,1,26,7.5a2.92,2.92,0,0,1,1.57.26h.14a.91.91,0,0,0,.65,0h0l-.33-1h0a2.18,2.18,0,0,0-1-.21h0a.74.74,0,0,1-.09-.46,1,1,0,0,1,0-.24.5.5,0,0,1,.12-.28l.15.19h0a3.12,3.12,0,0,0,.61-.11.17.17,0,0,0,.09-.14,1,1,0,0,0-.26-.66.41.41,0,0,0-.4,0h-.41v.18c-.16-.14-.45-.43-.47-.65s-.05-.42-.09-.63h0l-.15-.16a.71.71,0,0,1,.45-.12.86.86,0,0,0,.49-.18c.13-.08.27-.17.33-.16a3.91,3.91,0,0,0,1-.37Z"/><path class="cls-2" d="M24.06,9.36l1.45.06s.25-.38.4-.38.56-.17.69,0,.52.2.65.29.38,0,.44.17.1.36.27.4.59,0,.72.09.45.14.57.34a4,4,0,0,1,.53.92c0,.21.36.46.45.67s0,.43.08.58a6.07,6.07,0,0,1,.82,1.2c.12.33.39.7.42.85s0,.6.24.76.32.74.39.91,0,.49.18.59a1,1,0,0,1,.35.45c0,.12.24.31.3.37s.28.38.49.58a1.7,1.7,0,0,1,.47.86,2.62,2.62,0,0,0-.07.74,1.77,1.77,0,0,1-.23.61,3.56,3.56,0,0,0-.15.48c-.07.22-.3.33-.47.58s-.23.49-.41.51-1,0-1.17.23,1.53.38,1.65.3a7,7,0,0,0,.78-.85c.24-.3,0-.77.3-1s.21-.51.17-.74a.74.74,0,0,1,.09-.46s-.09-.88-.22-1,.06-.81-.14-1a8,8,0,0,1-.79-.75,10.05,10.05,0,0,1-.93-1.89,4.86,4.86,0,0,0-.59-1.52,5.27,5.27,0,0,1-.36-1.08c-.09-.21-.27-1.23-.48-1.4s-.26-.86-.64-1.12A6.46,6.46,0,0,0,28.94,9a10.87,10.87,0,0,1-2-.62,2.29,2.29,0,0,0-1.59,0,3,3,0,0,1-1.18.44c-.18,0-.72.17-.74.32S24.06,9.36,24.06,9.36Z"/><path class="cls-2" d="M27.52,9.82l.34.43a2.22,2.22,0,0,1-.44.37,3.12,3.12,0,0,0-.66.26.81.81,0,0,1-.33.14v-.5s0-.34.2-.34A3.61,3.61,0,0,0,27.52,9.82Z"/><path class="cls-2" d="M31.09,15.24l.51,1.22a4.92,4.92,0,0,0-.38,1,1.3,1.3,0,0,1,0,.62,8.48,8.48,0,0,0-.06.87c0,.29-.22.33-.45.49s-.34.11-.53.24-.89-.21-1.07-.13a3.42,3.42,0,0,1-1.06-.11c-.26,0-.51-.35-.68-.24s-.59-.32-.62-.42a1.26,1.26,0,0,0-.39-.47,4.39,4.39,0,0,1-.18-.89s1.38,1.14,1.61,1.36a4.81,4.81,0,0,0,2.12.31c.44-.08.71-.78.69-1.14a14.33,14.33,0,0,1,.08-2.07A1.54,1.54,0,0,1,31.09,15.24Z"/><path class="cls-2" d="M27.39,4.63s.55-.58.71-.41a1.44,1.44,0,0,1,.42,1,6.66,6.66,0,0,1-.26,1.09c-.07.28.37,0,.46.1a4.93,4.93,0,0,0,.5.52c.17.14,0,.59-.23.68a3.18,3.18,0,0,1-.53.14l-.2-.9s-.74-.45-.93-.4-.25-.36-.19-.45.71-.14.81-.45S27.59,4.58,27.39,4.63Z"/><path class="cls-3" d="M26.8,9.13l.68.73a3.11,3.11,0,0,1-.85.53h-.24V9.29Z"/><path class="cls-3" d="M23.41,9a1.66,1.66,0,0,0,.7-.06l.49-.25a3.64,3.64,0,0,0-.43.45c-.09.15.71-.2,1-.4s.19.17.11.31.14.26.23.09.74-.82,1-.82,1.21.17,1.38.68c0,0,.23.41.4.45S29,9,29.16,9s.36-.12.34,0-.15.33,0,.45.54-.12.54.21a2.62,2.62,0,0,0,.19.78c0,.2,0,.31.12.39s.33,0,.33.2a.88.88,0,0,0,.08.48c.08.14.32.22.26.36s0,.23.11.4.25.26.2.48a.67.67,0,0,0,0,.54c.09.16.28.25.25.41a1,1,0,0,0,.24.57c.07.12.28.28.24.43s.09,0,.21.19a.8.8,0,0,1,.16.42.82.82,0,0,0,.12.43c.08.08-.06.13.1.24s.4,0,.4.17.22.38.15.52a.41.41,0,0,0,.07.45c.09.08-.1.31,0,.41s.34.07.36.21.29.08.22.28a.41.41,0,0,0,.07.45,1.62,1.62,0,0,1,.33.67c0,.12,0,2.49-1.12,3.11-.62.33-1.69-.12-1.89,0s-.08.13-.27.43l2.17.64s.58-.27.64-.44,0-.36.07-.48a3.92,3.92,0,0,1,.6-.55,1.83,1.83,0,0,0,.3-.18s0-.34.1-.44a1.3,1.3,0,0,0,.67-1.16c0-.39.4-.4.37-.9l-.07-.65V18.1s-.42-.79-.5-1,.14-.43.14-.43L35.35,16a12.41,12.41,0,0,0,.17-1.5,6.31,6.31,0,0,0-1.62-2.39A7.5,7.5,0,0,1,33,9.76c-.1-.45-.17-2.58-.17-2.58a4.51,4.51,0,0,0-.77-1l-.31-.69V5.29l-.22-.2a3.92,3.92,0,0,0-1.44-1.53L29.21,3l-.73-.32a7,7,0,0,1-1,.32,1.29,1.29,0,0,0-.59.22,1.83,1.83,0,0,1-.3.18,3,3,0,0,0,.56.36c.1,0,1.12.41,1.09.7s.7.82,0,1.44.09.45.18.5.48,0,.51.2a4.5,4.5,0,0,1,.09.9c-.07.18-.43.2-.66.2a2.42,2.42,0,0,1-1.29-.34,2.75,2.75,0,0,0-1.07,0c-.36.14-.84.63-1.43.87-.17.08-.4,0-.66.17A1.59,1.59,0,0,0,23.41,9Z"/><path class="cls-3" d="M30.09,13.56a19.71,19.71,0,0,1,1.09,2.15c.07.3-.31,2-.28,2.25s-.08.95-.28,1a2.72,2.72,0,0,1-1,.27,5.64,5.64,0,0,1-2.35-.67c-.36-.27-.85-1.15-1.07-1.12l.08-1s.63.22.68.39a4.66,4.66,0,0,0,.62,1.29,2.46,2.46,0,0,0,1.88.19c.85-.15-.27-2-.33-2.57A2.34,2.34,0,0,1,30.09,13.56Z"/><path class="cls-3" d="M35.46,15.7l.17-1.16s.76-.13.85-.64a3.5,3.5,0,0,0-.95-2.19,3.54,3.54,0,0,1-.85-2.26c.14-.85.87-3,1.78-2.51.69.37-.78,1.71-.88,2.08a3.41,3.41,0,0,0,.79,2.35,5.27,5.27,0,0,1,1.07,1.92c0,.46.4,2.05-2,2.58Z"/><path d="M29.71,3.22,29,3.34s-.31-.14-.31,0v.22a.24.24,0,0,0-.31.13.21.21,0,0,1-.27.11h0a4,4,0,0,0,.33-.57c0-.1.34-.24.34-.24h.33Z"/><path d="M28.14,7.17a.52.52,0,0,0,.4-.29c.1-.25.19-.52.36-.61s.48-.15.57-.26.28-.48.17-.7a4,4,0,0,1-.32-1,.86.86,0,0,1,0-.39l.45.81a1.08,1.08,0,0,1,.23.71,1.39,1.39,0,0,1-.5.75c-.26.21-.6.18-.62.43a1.12,1.12,0,0,1-.74.92Z"/><path d="M28,6.83s.28-.45.4-.47.28-.16.5-.24.36-.36.31-.47-.17-.43,0-.48a.6.6,0,0,0,.24-.26H29.1a4,4,0,0,0,0-.49A1.8,1.8,0,0,0,29,4.09,2.85,2.85,0,0,0,28.9,5a2.37,2.37,0,0,1-.31.84,1,1,0,0,1-.37.28s.23-.36.14-.36-.37.36-.37.36-.2.31-.36.34h-.42Z"/><path d="M28.43,7.76a.72.72,0,0,0,0,.41,2.56,2.56,0,0,1-.12,1.29c-.17.14-.14-.14-.14-.26a2.7,2.7,0,0,0-.14-1,1.11,1.11,0,0,0-.48-.25s-.19.67-.5.81,0-.28,0-.45.14-.5,0-.55-.34-.37-.44-.35a3.05,3.05,0,0,0,.53,0l.59.18C27.9,7.61,28.43,7.76,28.43,7.76Z"/><path d="M26.39,9.4h0v2.4h0a2.6,2.6,0,0,1,.81-.28h.45a.53.53,0,0,1,.13-.34l.48-.42h0a1.3,1.3,0,0,1-.52-.52,2.61,2.61,0,0,0-.37-.44A3.07,3.07,0,0,1,27,9.33a.38.38,0,0,0-.13-.09C26.74,9.15,26.39,9.4,26.39,9.4Zm.46-.17a.1.1,0,0,1,.09.06c.14.17.28.33.43.48a4.59,4.59,0,0,1,.36.41,1.38,1.38,0,0,0,.52.55,5.9,5.9,0,0,0-.46.39.67.67,0,0,0-.15.38h-.43a2.68,2.68,0,0,0-.8.26V9.44S26.74,9.2,26.85,9.23Z"/><path d="M26.36,9.38l.4-.24.51.45-.22.08s-.09-.13-.12,0,.23.51.26.68-.34-.45-.45-.59-.12-.09-.2,0,.08.5-.06.5-.12-.31-.12-.31Z"/><path d="M26.43,11.5a3,3,0,0,0,.78-.22,3.9,3.9,0,0,1,.88-.57c.1,0,.19.21.19.21a.48.48,0,0,0-.52.27c-.11.22,0,.33-.16.33s-.36-.1-.55,0l-.66.26Z"/><path d="M28,10.35s.47.12.54-.23.1-.81.22-.81,0,1.16,0,1.29.71-.12,1-.33.82-.19.84,0-.47.22-.58.29-.09.33-.26.38-.59.18-.54.31a1.28,1.28,0,0,0,.48.66A2.21,2.21,0,0,0,31,11.6c.18-.11.18,0,.09.13a1.55,1.55,0,0,1-1.16.52c-.38,0,.21.76.38.87a1.19,1.19,0,0,0,1.29-.4c.42-.54.3-.07.28,0s-.65.53-.74.65.16.14,0,.23a.36.36,0,0,0-.16.22s.54.17.45.42-.6.12-.57.24.28.6.37.78,0,.42.11.6-1.1-1.83-1.12-2a20.18,20.18,0,0,1-1.38-2.49s-.31-.43-.48-.37S28,10.35,28,10.35Z"/><path d="M29.52,14.18a1.78,1.78,0,0,0-.42,1.29A4.11,4.11,0,0,0,29.55,17a1.85,1.85,0,0,1,.14,1.14c-.1.2-1.07.33-1.43.25a2.28,2.28,0,0,1-.59-.2,2.36,2.36,0,0,0,.36.42c.11.09.54.17.45,0s.42,0,.49.12.44.14.38,0,.24-.5.51-.27.49.24.49.1S30,18,30,17.87s.4,0,.53.06.59.12.63,0-.94-.37-1-.54,0-.19.14-.22S30,16.75,30,16.6s.38,0,.53,0,.49.15.49,0c-.29-.23-.59-.44-.9-.64a5.48,5.48,0,0,1-.31-.5s0-.57.19-.31a2,2,0,0,0,.74.53c.19.11-.31-.51-.4-.57s-.14-.36-.3-.41-.37-.24-.32-.38a2.4,2.4,0,0,0,.11-.48Z"/><path d="M28.62,7.17a1.64,1.64,0,0,1,.62-.09c.17.06.54-.25.59-.42s.15-.52.21-.79.22-.25.44-.34A1,1,0,0,0,31,5.2a2.17,2.17,0,0,0-.35-.74,10.94,10.94,0,0,0-1-.9h.46s1,.68,1.07.93a3.77,3.77,0,0,0,.39.64.59.59,0,0,1,.19.28,3,3,0,0,0,.21.6,3.62,3.62,0,0,1,.22.32c0,.08-.31,0-.48,0a1.34,1.34,0,0,0-.62.58c-.07.23-.17.54-.4.62s-.63-.14-.95,0a10.83,10.83,0,0,1-1.39.1l.25-.24,1.09-.12a2,2,0,0,0,.76-.12,1.36,1.36,0,0,0,.42-.72A.74.74,0,0,1,31.25,6h.27l-.17-.34s-.78.17-.9.43a6,6,0,0,0-.39.81c0,.17-.35.4-.47.42S28.71,7.08,28.62,7.17Z"/><path d="M32.25,6.38l.2.31s-.74.12-.84.31a1.35,1.35,0,0,0-.14.59c0,.2-.29.22-.29.22,0-.22,0-.45,0-.67a1.11,1.11,0,0,1,.37-.51Z"/><path d="M32.42,6.72a3.48,3.48,0,0,0-.78.59,2.11,2.11,0,0,1-.71.62,2.24,2.24,0,0,0-.79.53,2.37,2.37,0,0,1-.81.63.32.32,0,0,0-.26.17,4.45,4.45,0,0,1,.73,0,1.17,1.17,0,0,0,.8-.47c.08-.17.53-.81.69-.76s.46-.54.67-.66.4-.41.47-.24a1.09,1.09,0,0,1,0,.62c0,.09-.25,0-.59.17s-.64.16-.78.36a1.72,1.72,0,0,0-.33.68c0,.17.18.17.18.17a1.73,1.73,0,0,1,.34-.57c.17-.12.42-.36.67-.34a2.44,2.44,0,0,0,.54,0,.25.25,0,0,1,0,.31c-.12.15-.48.18-.68.35a3.09,3.09,0,0,0-.79.74c-.12.25.35.16.35.16s.53-.49.69-.49a.9.9,0,0,0,.46,0c.16,0,.09.4,0,.55s-.7.16-.93.16a1.08,1.08,0,0,0-.74.29c-.16.19.66,0,.85.07s.74-.1.76,0a4.61,4.61,0,0,1-1.4.46c-.14,0-.35.11-.35.2s.62,0,.83,0,1-.28,1.09-.2-.81.56-1,.65-.27.17-.2.25.86-.17.86-.17a1.17,1.17,0,0,1,.52-.12c.17.07-.19.43-.45.55s-.56.14-.56.25.4.11.54.08A2,2,0,0,0,33,12c.22-.28.41.12.38.23s-1,.42-1.29.84-.2.45-.16.57-.24.26-.18.42.4-.14.4-.32.51-.58.76-.72.59-.34.61-.21.31.09.29.26-.69.74-.71.9-.67.69-.65,1,.24.07.31,0,.69-.9.88-.95.48-.57.57-.4-.43.68-.49.85c-.13.4.45-.14.45-.14s.26-.34.32-.19-.59.81-.8.9a1.84,1.84,0,0,0-.72.69c0,.21-.23.31-.14.38s.72-.69.93-.74A2.27,2.27,0,0,0,34.3,15s.27-.3.36-.17a4.61,4.61,0,0,1-.68.85c-.22.17-.55.56-.53.67s.67-.36.74-.47.36-.42.44-.31.29-.42.25-.2-.83.91-1,1.19-.62.81-.57,1,.34,0,.39-.16a4,4,0,0,1,.87-1.05c.18,0,.38-.45.4-.27s-.42.65-.54.84a.24.24,0,0,0,.07.31.6.6,0,0,1-.23.45c-.25.26-.46.5-.39.63s.27-.13.36-.26.42-.4.54-.54.08-.59.19-.56a2.18,2.18,0,0,1,.15.61,5.27,5.27,0,0,1-.74.95c-.11.1,0,.45,0,.52s.19-.11.28-.28.51-.86.65-.81,0,.39,0,.57a.44.44,0,0,1-.12.36c-.09.11-.45.59-.64.78s-.23.14-.26.26-.31.19-.17.28.71-.23.76-.33.34-.68.51-.63.06.54,0,.54a1.06,1.06,0,0,0-.53.31c-.09.11.29,0,.36.09s-.74.41-.85.41-.31.14-.31.26,1-.21,1-.21a.26.26,0,0,1,0,.21c0,.11-.22.33-.17.45s.09.17.14.26l.08-.31.42-.4a1.21,1.21,0,0,0,.24-.74c-.07-.14.36-.5.31-.9s.14-.33,0-.76v-.28s-.57-1-.48-.87c-.09-.14.06-.55,0-.68-.12-.44-.23-.82-.12-.73-.14-.11.39-1,.22-1.29a4,4,0,0,0-1.29-2,3.66,3.66,0,0,1-.68-1,13,13,0,0,1-.59-2,23.27,23.27,0,0,0-.08-2.4c-.08-.27-.52-.51-.52-.51"/><path d="M35.76,14.52l.37-.2s.58.85.53,1.1a2,2,0,0,1-.53.26C35.92,15.7,35.76,14.52,35.76,14.52Z"/><path d="M36.22,14.27l.88.64a.72.72,0,0,0,.31-.68v-.08l-.95-.2A.58.58,0,0,1,36.22,14.27Z"/><path d="M36.51,13.59l.9-.14a1.15,1.15,0,0,0-.14-.51c-.12-.11-.85.22-.85.22Z"/><path d="M36.15,12.66s.42-.52.73-.48l-.35-.45s-.59.25-.67.41Z"/><path d="M35.53,11.65s.5-.54.69-.46l-.28-.41s-.67.24-.76.45Z"/><path d="M35,10.74s.45-.5.79-.44l-.2-.52s-.7,0-.81.38A.8.8,0,0,0,35,10.74Z"/><path d="M34.7,9.26s.71-.09.83.1L35.61,9s-.57-.29-.79-.14Z"/><path d="M35.76,8.79s-.4-.53-.79-.45l.2-.39s.68.15.78.53Z"/><path d="M35.44,7.5s.81.26.76.54l.26-.33s-.54-.54-.79-.48Z"/><path d="M32.25,23s.34-.53.57-.51c0,0-.41.38-.44.51S32.25,23,32.25,23Z"/><path d="M31.3,22.78a1.83,1.83,0,0,1,.88-.49s-.63.42-.63.54Z"/><path d="M26.21,16.78s.49.12.59.42c0,0-.46-.43-.59-.3S26.21,16.78,26.21,16.78Z"/><path d="M26.2,17.16s.56.23.54.44c0,0-.44-.38-.54-.3S26.2,17.16,26.2,17.16Z"/><path d="M24.84,9.44s0-.55.43-.65c0,0-.39.1-.47.31l-.13.3Z"/><path d="M23.78,9.42s.38-.63.74-.63c0,0-.54.52-.54.63Z"/><path d="M26.4,3.51a.42.42,0,0,1-.08.32h.17S26.49,3.53,26.4,3.51Z"/><path d="M28.49,3.12S28,3,27.9,3.12a.53.53,0,0,1-.29.14s-.19-.1-.29,0a.54.54,0,0,1-.18,0s.28-.23.41-.22.12.07.31,0,.33-.28.45-.22.17.16.3.13A1.15,1.15,0,0,1,29,3Z"/><path class="cls-2" d="M29.55,3.27a2,2,0,0,1,.35,0,.65.65,0,0,0,.39,0,.24.24,0,0,1-.1.33l-.05,0c-.27.11-.36-.07-.36-.07Z"/><path class="cls-1" d="M14.44,9.42a.4.4,0,0,0,.17-.37.39.39,0,0,0-.15-.28,1.09,1.09,0,0,0-.86-.51c-.57,0-1-.71-1.58-.87a3.16,3.16,0,0,0-1.74.32c-.43.14-.6,0-.6,0l.3-.88a2.47,2.47,0,0,1,1-.22c.26.08.25-.55.21-.76A.68.68,0,0,0,11,5.5l-.16.22s-.13-.28-.18-.19a.31.31,0,0,1-.28.14h-.21c-.19,0,0-.73.25-.72h.72V5.2s.57-.42.6-.77a3.21,3.21,0,0,1,.09-.61L12,3.51s-.33-.25-.53-.18S10.86,3,10.69,3a4.38,4.38,0,0,1-1-.31c-.14,0-.68.31-.85.34a2.51,2.51,0,0,1-1.09,0s-.13.36.22.41A3.28,3.28,0,0,0,6.67,5l-.26.2v.31A3.08,3.08,0,0,0,6,6.21a8.53,8.53,0,0,0-.83.87,20.08,20.08,0,0,1-.21,3,5.18,5.18,0,0,1-1,2.18,5.65,5.65,0,0,0-1.52,2.27,1,1,0,0,1-.79-1.48C2.22,11.76,3.34,11,3.34,9.67S2.24,6.46,1.57,7s1,1.47.93,2.58A8.87,8.87,0,0,1,.87,12.66,2,2,0,0,0,2.5,15.84s.31.2.08.65.14.42.06.68a3.79,3.79,0,0,1-.45.9c-.14.13,0,.53-.09.67s0,.43,0,.62.36.48.31.71a1.25,1.25,0,0,0,.34.9c.16.11.42.26.4.56s.27.09.53.46.45.36.42.56a.53.53,0,0,0,.37.56c.29.08.3.2.3.2l2.28-.6s-.19-.54-.5-.65a7.44,7.44,0,0,0-1.15-.18c-.11,0-1.29-2.21-1-3s1.42-1.21,1.67-1.8a3.39,3.39,0,0,0,.22-1.41s.06,1.1-.22,1.38.38.75.38,1.29a2.59,2.59,0,0,1-.19,1.29l.74.11s.16.31.3.38.46-.12.65-.16.36.18.48.18.28-.23.4-.18.16.24.31.18,1.28-.79,1.85-.68.32-.94.83-1.2c.23-.13.19-.15.19-.15l-.17-1.73a1.92,1.92,0,0,0-.73.49c-.14.26-.26,1-.71,1.29a2.71,2.71,0,0,1-1.86.09c-.55-.12,0-1.44.14-1.72a2.34,2.34,0,0,0-.67-3,9.28,9.28,0,0,0,1.29-2.4c.31-1,.45-.64.58-.64a17.17,17.17,0,0,0,1.41-1.42,1,1,0,0,1,1,.17.36.36,0,0,0,.17.19Z"/><path d="M9.09,2.91a1.37,1.37,0,0,1-.32.16h0c-.75.14-1,.08-1.06,0h0a.48.48,0,0,0,0,.17.28.28,0,0,0,0,.18.27.27,0,0,0,.08.22A3.42,3.42,0,0,0,6.5,5.09l-.25.2v.32a3.51,3.51,0,0,0-.33.6,6.13,6.13,0,0,0-.81.88,3.64,3.64,0,0,0,0,.66,10.77,10.77,0,0,1-.29,2.33l-.14.5a3.54,3.54,0,0,1-.8,1.65,6.25,6.25,0,0,0-1.53,2.26A1.09,1.09,0,0,1,1.6,14a.78.78,0,0,1-.09-.37,1.58,1.58,0,0,1,.13-.57,7.49,7.49,0,0,1,.8-1.29,3.54,3.54,0,0,0,.9-2.07,3.74,3.74,0,0,0-1.29-2.8.45.45,0,0,0-.5,0,.37.37,0,0,0-.17.32,1.8,1.8,0,0,0,.45.85,2.53,2.53,0,0,1,.63,1.29v.1A6.14,6.14,0,0,1,1.17,12c-.15.23-.28.42-.38.6A2.42,2.42,0,0,0,.52,14a2.2,2.2,0,0,0,.16.84,2.19,2.19,0,0,0,1.8,1.14.39.39,0,0,1,.14.3.84.84,0,0,1-.08.3.61.61,0,0,0-.08.27.39.39,0,0,0,.09.23.11.11,0,0,1,0,.11h0a3.43,3.43,0,0,1-.43.88.33.33,0,0,0-.07.23v.17a.33.33,0,0,1,0,.14.33.33,0,0,1,0,.14.37.37,0,0,0-.06.22.54.54,0,0,0,0,.18v.25H2a.65.65,0,0,0,.16.32c0,.12.16.22.16.31h0v.09a1.42,1.42,0,0,0,.36.86h0a.55.55,0,0,1,.34.46v.07c0,.16.1.2.2.22a.58.58,0,0,1,.34.23,1.81,1.81,0,0,0,.29.33c.09.07.13.11.13.16v.11a.56.56,0,0,0,.4.54c.25.08.29.17.29.17h.16l2.34-.6h0s-.21-.56-.55-.68a5.42,5.42,0,0,0-.91-.17H5.47a6.32,6.32,0,0,1-1-2.58.53.53,0,0,1,0-.25,2.85,2.85,0,0,1,.89-1A2.62,2.62,0,0,0,6,17.26a1.15,1.15,0,0,0,.12.25,2.26,2.26,0,0,1,.27.87,2.48,2.48,0,0,1-.2,1.29h0l.8.13a.69.69,0,0,0,.33.36.76.76,0,0,0,.42-.06A1,1,0,0,1,8,20a.47.47,0,0,1,.28.09.37.37,0,0,0,.18.08.4.4,0,0,0,.21-.09s.13-.11.16-.08a.12.12,0,0,1,.09.08c0,.06.15.14.26.09l.17-.09A3.39,3.39,0,0,1,11,19.52c.36.06.43-.26.51-.58s.12-.53.32-.63.24-.16.24-.2l-.18-1.79h0s-.61.24-.75.5a2,2,0,0,0-.13.31,1.68,1.68,0,0,1-.57.94,2.49,2.49,0,0,1-1.82.08A.2.2,0,0,1,8.5,18a.45.45,0,0,1,0-.23,3.44,3.44,0,0,1,.38-1.29,2.22,2.22,0,0,0,.31-1.12,2.63,2.63,0,0,0-.95-1.93,9.79,9.79,0,0,0,1.29-2.38c.13-.41.23-.64.32-.68h.22c.09,0,.3-.21.84-.82a7,7,0,0,1,.6-.62.64.64,0,0,1,.54,0,.75.75,0,0,1,.4.19.5.5,0,0,0,.2.23h2A.44.44,0,0,0,14.8,9a.46.46,0,0,0-.15-.31h0a1.15,1.15,0,0,0-.87-.48A1.38,1.38,0,0,1,13,7.76a2.49,2.49,0,0,0-.79-.45,2.86,2.86,0,0,0-1.63.26h-.14a1,1,0,0,1-.53,0c0-.08.29-.81.3-.85a2.11,2.11,0,0,1,.95-.2.15.15,0,0,0,.16,0,2.69,2.69,0,0,1-.05-.67.89.89,0,0,0-.18-.38h0l-.17.19a.21.21,0,0,0-.14-.17H10.7a.28.28,0,0,1-.23.13h-.21V5.4c0-.14.07-.48.18-.48h.67l-.06.33.1-.08s.58-.44.61-.79a5.31,5.31,0,0,1,.08-.6l.21-.35h0s-.34-.26-.56-.19-.27,0-.43-.16a.88.88,0,0,0-.38-.14,3.52,3.52,0,0,1-1-.31A5.39,5.39,0,0,0,9.09,2.91Zm-.31.25h0A1.58,1.58,0,0,0,9.13,3a1.54,1.54,0,0,1,.46-.19,4.39,4.39,0,0,0,1.05.32.8.8,0,0,1,.32.13,1,1,0,0,0,.5.16.62.62,0,0,1,.47.22l-.19.28h0a3.41,3.41,0,0,1-.07.63,1.2,1.2,0,0,1-.48.65l.08-.28h-.81c-.18,0-.33.25-.37.49s0,.3.1.33h.21a.41.41,0,0,0,.33-.15.56.56,0,0,1,.09.17v.08L11,5.59a1.08,1.08,0,0,1,.13.29v.23a.75.75,0,0,1-.11.46h0a2.29,2.29,0,0,0-1,.21h0l-.34,1h0a.79.79,0,0,0,.64,0h.14A2.94,2.94,0,0,1,12,7.5a2.12,2.12,0,0,1,.75.45,1.54,1.54,0,0,0,.85.43,1,1,0,0,1,.79.44h0a.41.41,0,0,1,.13.26h0a.39.39,0,0,1-.15.28H12.45a.35.35,0,0,1-.12-.17A.79.79,0,0,0,11.86,9a.86.86,0,0,0-.63,0c-.21.2-.42.41-.61.63a4.37,4.37,0,0,1-.77.78H9.79a.28.28,0,0,0-.18,0c-.1,0-.21.16-.39.75A9.53,9.53,0,0,1,7.93,13.5h0a2.33,2.33,0,0,1,.67,3c-.13.22-.54,1.18-.35,1.59a.33.33,0,0,0,.23.2,2.55,2.55,0,0,0,1.9-.11,1.82,1.82,0,0,0,.6-1,.56.56,0,0,1,.12-.28,1.57,1.57,0,0,1,.66-.41c0,.11.15,1.62.15,1.65l-.17.1a1.07,1.07,0,0,0-.38.71c-.08.33-.14.55-.4.5a3.53,3.53,0,0,0-1.73.58l-.15.09a.27.27,0,0,1-.16-.06L8.81,20a.37.37,0,0,0-.29.09.29.29,0,0,1-.14.08l-.14-.06A.6.6,0,0,0,7.9,20l-.27.08a.86.86,0,0,1-.36.07c-.1,0-.23-.26-.28-.35H7l-.68-.12a3,3,0,0,0,.16-1.29,2.1,2.1,0,0,0-.28-.91,1.2,1.2,0,0,1-.13-.33h.05a1.9,1.9,0,0,0,.21-1v-.36H6.2v.36a3.56,3.56,0,0,1-.2,1H6a.14.14,0,0,0,0,.09H6a2.85,2.85,0,0,1-.73.74,2.91,2.91,0,0,0-.92,1,.76.76,0,0,0,0,.3,5.75,5.75,0,0,0,.7,2.13c.12.22.31.58.39.59h.25a7,7,0,0,1,.9.15c.23.08.4.44.45.58l-2.22.55a.51.51,0,0,0-.31-.2.47.47,0,0,1-.34-.45h0c0-.1,0-.15-.16-.24a2,2,0,0,1-.28-.31.59.59,0,0,0-.39-.26c-.1,0-.14,0-.14-.12h0a.69.69,0,0,0-.39-.54h0a1.39,1.39,0,0,1-.32-.77.14.14,0,0,1,0-.09h0a.75.75,0,0,0-.25-.63.68.68,0,0,1-.12-.26h0v-.27a.49.49,0,0,1,0-.17.25.25,0,0,1,0-.17.31.31,0,0,0,0-.19v-.16a.38.38,0,0,1,0-.15.25.25,0,0,1,0-.17,3.54,3.54,0,0,0,.46-.91v-.09a.48.48,0,0,0-.06-.18.25.25,0,0,1-.08-.17.48.48,0,0,1,.19-.23.94.94,0,0,0,.08-.33.46.46,0,0,0-.18-.38h0A2.11,2.11,0,0,1,.8,14.72,1.86,1.86,0,0,1,.61,14,2.43,2.43,0,0,1,.9,12.79l.4-.6A6.13,6.13,0,0,0,2.59,9.62a.21.21,0,0,0,0-.11,2.49,2.49,0,0,0-.65-1.4,1.57,1.57,0,0,1-.43-.8.31.31,0,0,1,.13-.25.33.33,0,0,1,.4,0A3.73,3.73,0,0,1,3.33,9.77a3.67,3.67,0,0,1-.89,2,8.07,8.07,0,0,0-.8,1.28,1.12,1.12,0,0,0,0,1,1.28,1.28,0,0,0,.86.52h0A5.56,5.56,0,0,1,4,12.39a3.71,3.71,0,0,0,.81-1.75L5,10.08A10.54,10.54,0,0,0,5.17,7.7a3.21,3.21,0,0,1,0-.62A8.53,8.53,0,0,1,6,6.21H6a2.54,2.54,0,0,1,.31-.67h0V5.23L6.56,5h0a3.17,3.17,0,0,1,1.36-1.4h0c-.09,0-.15,0-.17-.09a.15.15,0,0,1,0-.13V3.21A2.39,2.39,0,0,0,8.78,3.16Z"/><path class="cls-2" d="M14,9.36l-1.42.06S12.33,9,12.16,9s-.56-.17-.67,0-.53.2-.66.29-.39,0-.45.17-.1.36-.27.4-.6,0-.72.09-.44.14-.57.34a4,4,0,0,0-.53.92c0,.21-.36.46-.44.67s0,.43-.09.58a6.07,6.07,0,0,0-.82,1.2c-.11.33-.38.7-.4.85s0,.6-.26.76-.31.74-.37.91,0,.49-.2.59a.93.93,0,0,0-.33.45c0,.12-.26.31-.33.37a6.66,6.66,0,0,1-.47.58,1.68,1.68,0,0,0-.48.86,2.3,2.3,0,0,1,0,.74,1.44,1.44,0,0,0,.25.61,4,4,0,0,1,.14.48c.06.22.29.33.46.58s.23.49.43.51,1,0,1.16.23-1.52.38-1.65.3a6.7,6.7,0,0,1-.76-.84c-.24-.29,0-.77-.29-1A.62.62,0,0,1,3.68,20a.8.8,0,0,0-.15-.52s.09-.88.21-1-.06-.82.15-1a8.38,8.38,0,0,0,.79-.74,10.4,10.4,0,0,0,.92-1.9,5.52,5.52,0,0,1,.59-1.52,4.16,4.16,0,0,0,.36-1.08c.09-.21.28-1.23.49-1.4s.24-.86.63-1.12A6.92,6.92,0,0,1,9,8.93a10.87,10.87,0,0,0,2-.62,2.26,2.26,0,0,1,1.58,0,3,3,0,0,0,1.22.48c.19,0,.73.17.73.32S14,9.36,14,9.36Z"/><path class="cls-2" d="M10.51,9.82l-.34.43a2.6,2.6,0,0,0,.45.37,3,3,0,0,1,.65.26.81.81,0,0,0,.33.14v-.5s0-.34-.2-.34A3.61,3.61,0,0,1,10.51,9.82Z"/><path class="cls-2" d="M7,15.24l-.52,1.22a5,5,0,0,1,.39,1,1.09,1.09,0,0,0,0,.62,6.32,6.32,0,0,1,0,.87c0,.29.21.33.44.49s.33.11.53.24.89-.21,1.08-.13A3.2,3.2,0,0,0,10,19.44c.24,0,.5-.35.67-.23s.59-.32.62-.43a1.26,1.26,0,0,1,.4-.46,5.38,5.38,0,0,0,.17-.89s-1.37,1.13-1.62,1.35a4.61,4.61,0,0,1-2.11.32C7.66,19,7.39,18.33,7.4,18a13.16,13.16,0,0,0-.08-2.08A1.42,1.42,0,0,0,7,15.24Z"/><path class="cls-2" d="M10.65,4.63A6.68,6.68,0,0,0,10,4.22a1.5,1.5,0,0,0-.43,1c.07.3.21.81.26,1.09s-.37,0-.45.1a4.1,4.1,0,0,1-.5.52c-.17.14,0,.59.22.68a2.93,2.93,0,0,0,.54.14l.2-.9s.73-.45.92-.4.26-.36.19-.45-.69-.14-.81-.45S10.46,4.58,10.65,4.63Z"/><path class="cls-3" d="M11.27,9.13l-.67.73a3.06,3.06,0,0,0,.84.53h.25V9.29Z"/><path class="cls-3" d="M14.63,9a1.7,1.7,0,0,1-.71-.06c-.23-.11-.47-.25-.47-.25a3.47,3.47,0,0,1,.41.45c.09.15-.7-.2-.95-.4s-.2.17-.11.31-.14.26-.23.09-.73-.82-1-.82-1.21.17-1.38.68c0,0-.22.41-.38.45S9.05,9,8.88,9s-.37-.12-.33,0,.13.33,0,.45S8,9.33,8,9.66a2.65,2.65,0,0,1-.21.78c0,.2,0,.31-.1.39s-.35,0-.35.2a.88.88,0,0,1-.08.48c-.07.14-.3.22-.25.36s0,.23-.11.4-.25.26-.2.48a.71.71,0,0,1,0,.54c-.09.16-.29.25-.26.41a1.05,1.05,0,0,1-.22.57c-.08.12-.28.28-.26.43s-.07,0-.19.19a.75.75,0,0,0-.18.42.91.91,0,0,1-.1.43c-.09.08,0,.13-.12.24S5,16,5,16.15s-.23.38-.14.52a.44.44,0,0,1-.09.45c-.08.08.12.31,0,.41s-.33.07-.37.21-.27.08-.22.28a.45.45,0,0,1,0,.45c-.12.11-.38.56-.34.67s0,2.49,1.12,3.11c.62.33,1.69-.12,1.89,0s.09.13.28.43l-2.28.55s-.48-.18-.54-.35,0-.36-.08-.48a4,4,0,0,0-.7-.52l-.37-.2a1,1,0,0,0-.09-.44,1.37,1.37,0,0,1-.67-1.16c0-.38-.39-.4-.36-.9v-.64l.06-.43s.42-.78.51-1-.15-.42-.15-.42.08-.57.11-.74a15,15,0,0,1-.17-1.49A6.52,6.52,0,0,1,4,12.08a7.08,7.08,0,0,0,.9-2.31c.11-.45.17-2.58.17-2.58a4.41,4.41,0,0,1,.9-1l.31-.69V5.29l.22-.2A3.84,3.84,0,0,1,7.93,3.6l.86-.53.74-.32a7.1,7.1,0,0,0,1,.32,1.29,1.29,0,0,1,.59.22,1.67,1.67,0,0,0,.28.18,3.17,3.17,0,0,1-.54.36c-.11,0-1.12.41-1.09.69s-.71.83,0,1.45-.09.45-.17.5-.48,0-.5.19a3.38,3.38,0,0,0,0,.84c0,.18.42.21.64.21A2.55,2.55,0,0,0,11,7.36a2.75,2.75,0,0,1,1.07,0c.36.14.84.63,1.43.88.18.07.4,0,.66.17A1.39,1.39,0,0,1,14.63,9Z"/><path class="cls-3" d="M8,13.56a23,23,0,0,0-1.11,2.15c0,.3.31,2,.28,2.25s.09.95.28,1a3,3,0,0,0,1.05.27,5.64,5.64,0,0,0,2.33-.67c.37-.27.85-1.15,1.07-1.12l-.08-.95s-.62.22-.68.38a4.66,4.66,0,0,1-.62,1.29,2.51,2.51,0,0,1-1.88.2c-.85-.16.28-2,.33-2.58A2.37,2.37,0,0,0,8,13.56Z"/><path class="cls-3" d="M2.57,15.7,2.4,14.54s-.76-.13-.85-.64a3.52,3.52,0,0,1,1-2.19,3.52,3.52,0,0,0,.83-2.26c-.14-.85-.86-3-1.76-2.51S2.35,8.65,2.45,9a3.39,3.39,0,0,1-.79,2.35A5.27,5.27,0,0,0,.59,13.29c0,.46-.4,2.05,2,2.58Z"/><path d="M8.32,3.22,9,3.34s.29-.14.29,0v.22a.24.24,0,0,1,.31.13.21.21,0,0,0,.2.21A.2.2,0,0,0,10,3.84a4.15,4.15,0,0,1-.35-.57c0-.1-.33-.24-.33-.24H8.93Z"/><path d="M9.89,7.17a.49.49,0,0,1-.39-.29c-.11-.25-.19-.52-.36-.61S8.65,6.12,8.57,6s-.28-.48-.16-.7a5.6,5.6,0,0,0,.28-1,.86.86,0,0,0,0-.39l-.45.81A1,1,0,0,0,8,5.45a1.26,1.26,0,0,0,.44.76c.24.21.59.18.62.43a1.05,1.05,0,0,0,.4.73.79.79,0,0,0,.33.13Z"/><path d="M10,6.83s-.28-.45-.39-.47-.23-.15-.45-.24-.37-.36-.32-.47.17-.43,0-.48a.67.67,0,0,1-.22-.25H9a2,2,0,0,1,0-.49,2.55,2.55,0,0,1,.07-.33A3.28,3.28,0,0,1,9.18,5a1.56,1.56,0,0,0,.31.83,1,1,0,0,0,.4.4s-.22-.36-.14-.36.37.36.37.36.19.31.36.34h.43Z"/><path d="M9.61,7.76a.94.94,0,0,1,0,.41,2.27,2.27,0,0,0,.1,1.29c.17.14.14-.14.14-.26a2.51,2.51,0,0,1,.13-1,1.06,1.06,0,0,1,.48-.25s.2.67.5.81,0-.28,0-.45-.13-.5.06-.55.34-.37.45-.35a3.16,3.16,0,0,1-.54,0l-.58.18Z"/><path d="M11.18,9.18a.22.22,0,0,0-.12.09,3.55,3.55,0,0,1-.41.46,5.34,5.34,0,0,0-.39.44,1.19,1.19,0,0,1-.51.53h0l.47.41a.58.58,0,0,1,.15.35h0a.34.34,0,0,0,.2,0,.45.45,0,0,1,.23,0,2.64,2.64,0,0,1,.82.27h0V9.41h0S11.37,9.15,11.18,9.18Zm-.88,1c0-.07.22-.24.38-.41s.28-.31.41-.48a.13.13,0,0,1,.1-.06.86.86,0,0,1,.43.21v2.28a2.82,2.82,0,0,0-.79-.26,1.13,1.13,0,0,0-.26,0H10.4a.51.51,0,0,0-.15-.37c0-.08-.36-.33-.45-.4A1.23,1.23,0,0,0,10.3,10.18Z"/><path d="M11.67,9.38l-.4-.24-.5.45.21.08s.09-.13.12,0-.22.51-.24.68.33-.45.45-.59.1-.09.19,0-.09.5,0,.5.12-.31.12-.31Z"/><path d="M11.6,11.5a3.06,3.06,0,0,1-.77-.22,4.08,4.08,0,0,0-.85-.57c-.12,0-.21.21-.21.21a.5.5,0,0,1,.54.27c.09.22,0,.33.16.33s.35-.1.54,0a4.87,4.87,0,0,0,.66.26Z"/><path d="M10,10.35s-.48.12-.53-.23-.12-.81-.23-.81,0,1.16,0,1.29-.7-.12-1-.33-.8-.19-.8-.06.48.22.59.28.08.34.25.39.59.18.54.31a1.31,1.31,0,0,1-.48.66,2.35,2.35,0,0,1-1.21-.31c-.17-.12-.17,0-.08.13a1.49,1.49,0,0,0,1.15.51c.4,0-.19.76-.36.88a1.22,1.22,0,0,1-1.29-.4c-.42-.54-.31-.08-.28,0s.66.53.73.64-.14.15,0,.24a.3.3,0,0,1,.17.21s-.53.17-.45.43.59.12.57.23S7,15,6.89,15.2s0,.41-.12.59,1.09-1.83,1.12-2a18.08,18.08,0,0,0,1.29-2.42s.31-.43.48-.37S10,10.35,10,10.35Z"/><path d="M8.51,14.18a1.78,1.78,0,0,1,.42,1.29A3.94,3.94,0,0,1,8.48,17a1.93,1.93,0,0,0-.14,1.14,2.29,2.29,0,0,0,1.45.25,2.57,2.57,0,0,0,.59-.2,3,3,0,0,1-.38.42c-.11.09-.52.17-.45,0s-.41,0-.47.12-.45.14-.4,0a.32.32,0,0,0-.51-.27c-.28.23-.47.24-.47.1s.36-.59.38-.73-.38,0-.52.06-.6.12-.62,0,.92-.37,1-.54,0-.19-.15-.22.2-.42.25-.57-.36,0-.53,0-.48.15-.48,0A8.26,8.26,0,0,1,8,16c.1-.16.2-.33.29-.5,0,0,0-.57-.19-.31a2,2,0,0,1-.74.53c-.19.11.31-.51.4-.57s.14-.36.31-.41.38-.24.31-.38a3.38,3.38,0,0,1-.11-.48Z"/><path d="M9.41,7.17a1.64,1.64,0,0,0-.62-.09c-.16.06-.54-.25-.59-.42S8,6,8,5.87s-.24-.25-.45-.34a.82.82,0,0,1-.48-.33,2.05,2.05,0,0,1,.33-.74,10.94,10.94,0,0,1,1-.9H8s-1,.68-1.07.93a2.86,2.86,0,0,1-.4.64.59.59,0,0,0-.19.28,3,3,0,0,1-.21.6,1.44,1.44,0,0,0-.23.32c0,.08.31,0,.48,0A1.21,1.21,0,0,1,7,6.91c.09.23.16.54.39.62s.65-.14,1,0a10.83,10.83,0,0,0,1.39.1l-.26-.24L8.39,7.27a2,2,0,0,1-.77-.12,1.25,1.25,0,0,1-.41-.72A.8.8,0,0,0,6.78,6H6.5l.17-.34s.78.17.9.43a6.09,6.09,0,0,1,.4.81c0,.17.33.4.47.42S9.32,7.08,9.41,7.17Z"/><path d="M5.78,6.38l-.2.31s.74.12.85.31a1.53,1.53,0,0,1,.13.59c0,.2.29.22.29.22,0-.22,0-.44,0-.67a1.16,1.16,0,0,0-.36-.51Z"/><path d="M5.61,6.72a3.85,3.85,0,0,1,.8.59,2,2,0,0,0,.69.62,2,2,0,0,1,.79.53,2.5,2.5,0,0,0,.81.63A.3.3,0,0,1,9,9.26a4.45,4.45,0,0,0-.73,0,1.1,1.1,0,0,1-.73-.39C7.4,8.66,7,8,6.82,8.07s-.48-.57-.71-.66-.4-.41-.48-.24a1.09,1.09,0,0,0,0,.62c0,.09.25,0,.6.16s.64.17.78.36A1.66,1.66,0,0,1,7.32,9a.17.17,0,0,1-.16.17h0a1.73,1.73,0,0,0-.34-.57c-.18-.12-.42-.36-.68-.34a2.35,2.35,0,0,1-.53,0,.25.25,0,0,0,0,.31c.1.14.48.18.67.35s.68.48.79.74-.34.16-.34.16S6.2,9.33,6,9.33a.82.82,0,0,1-.44,0c-.18,0-.09.4,0,.54s.71.17.93.17a1.08,1.08,0,0,1,.74.29c.16.19-.65,0-.84.07s-.74-.1-.76,0a4.9,4.9,0,0,0,1.4.45c.12,0,.34.12.34.21s-.62,0-.83,0-1-.28-1.09-.21.82.57,1,.66.28.17.19.25-.83-.17-.83-.17a1.29,1.29,0,0,0-.54-.12c-.17.07.19.43.45.54s.56.15.56.26-.4.11-.52.08A1.81,1.81,0,0,1,5.11,12c-.24-.28-.43.12-.4.23s1,.41,1.29.84.19.45.16.57.22.26.17.42-.4-.14-.4-.32-.5-.58-.76-.72-.59-.34-.62-.21-.31.09-.28.26.69.73.71.9.68.69.64,1-.22.07-.31,0-.67-.9-.87-1-.48-.57-.56-.4.41.68.48.85c.14.4-.45-.14-.45-.14s-.26-.34-.31-.2.59.82.78.91a2,2,0,0,1,.74.69c0,.21.22.31.14.38s-.73-.69-.93-.74A2,2,0,0,1,3.77,15s-.24-.3-.38-.17a5.57,5.57,0,0,0,.67.85c.22.17.57.56.54.67s-.68-.36-.73-.48-.38-.41-.45-.3-.29-.42-.26-.2.85.9,1,1.19.62.81.55,1-.33,0-.38-.16a3.82,3.82,0,0,0-.82-1.05c-.16,0-.36-.45-.4-.27s.43.65.55.84a.23.23,0,0,1,0,.31.53.53,0,0,0,.21.45c.26.26.46.5.4.63s-.28-.13-.37-.26a6.75,6.75,0,0,0-.53-.54c-.11-.14-.09-.59-.2-.57a2.25,2.25,0,0,0-.15.62,5.73,5.73,0,0,0,.75.94c.1.11,0,.46,0,.53s-.2-.11-.28-.28S3,17.91,2.86,18s0,.38,0,.56a.46.46,0,0,0,.11.37,9.59,9.59,0,0,0,.65.78c.2.21.22.14.25.26s.31.19.17.28-.7-.23-.76-.33-.34-.69-.51-.63,0,.54.07.54a1.15,1.15,0,0,1,.53.31c.09.11-.31,0-.38.09s.75.41.85.41.31.14.31.26-1-.21-1-.21a.26.26,0,0,0,0,.21c0,.11.24.33.18.45l-.14.26-.09-.31-.42-.4a1.24,1.24,0,0,1-.22-.74c0-.14-.36-.5-.31-.9s-.14-.33,0-.76v-.28s.57-1,.48-.87c.09-.14,0-.55,0-.68.11-.44.23-.83.11-.74.14-.1-.4-1-.23-1.28a4,4,0,0,1,1.29-2,3.87,3.87,0,0,0,.67-1,10.88,10.88,0,0,0,.59-2,20.69,20.69,0,0,1,.09-2.4c.09-.27.5-.52.5-.52"/><path d="M2.18,15l-.35-.19s-.57.83-.52,1.06a1.67,1.67,0,0,0,.52.25C2.05,16.19,2.18,15,2.18,15Z"/><path d="M1.75,14.8l-.84.63a.69.69,0,0,1-.3-.66v-.08l.93-.2A.53.53,0,0,0,1.75,14.8Z"/><path d="M1.48,14.15.61,14a1.2,1.2,0,0,1,.14-.49c.11-.11.82.21.82.21Z"/><path d="M1.84,13.25s-.41-.5-.71-.46l.32-.44s.58.24.66.4Z"/><path d="M2.52,11.65s-.51-.54-.71-.46l.28-.41s.68.24.76.45Z"/><path d="M3.07,10.74s-.45-.5-.79-.44l.21-.52s.7,0,.81.38A.85.85,0,0,1,3.07,10.74Z"/><path d="M3.33,9.26s-.71-.09-.81.1L2.42,9s.57-.29.79-.14Z"/><path d="M2.24,8.79s.4-.53.79-.45L2.84,8s-.67.15-.79.53Z"/><path d="M2.59,7.5s-.81.26-.76.54l-.24-.33s.53-.54.78-.48Z"/><path d="M5.78,23s-.34-.53-.57-.51c0,0,.42.38.44.51S5.78,23,5.78,23Z"/><path d="M6.73,22.78a1.62,1.62,0,0,0-.86-.49s.63.42.63.54Z"/><path d="M11.82,16.78s-.49.12-.59.42c0,0,.46-.43.59-.3S11.82,16.78,11.82,16.78Z"/><path d="M11.85,17.16s-.58.23-.56.44c0,0,.44-.38.56-.3S11.85,17.16,11.85,17.16Z"/><path d="M13.2,9.44s0-.55-.42-.65c0,0,.37.1.46.31s.08.2.13.3Z"/><path d="M14.25,9.42s-.4-.63-.74-.63c0,0,.56.52.56.63Z"/><path d="M10.53,4.83a3.63,3.63,0,0,0,.56.09h.18l.26-.23-.24-.11a3.39,3.39,0,0,1-.43.11c-.13,0-.4-.22-.57-.27S9.9,3.78,10,3.78s.1.45,0,.6S10.43,4.67,10.53,4.83Z"/><path d="M10,3.74l-.08.08h0a.94.94,0,0,0,.08.36.61.61,0,0,1,0,.19h0c0,.08.11.14.27.23a.68.68,0,0,1,.24.32h0a2.9,2.9,0,0,0,.57.12h.21l.32-.28-.3-.17h0a3.19,3.19,0,0,1-.44.13.38.38,0,0,1-.28-.13.94.94,0,0,0-.26-.14A.53.53,0,0,1,10,4.18a2.54,2.54,0,0,0,0-.39h0Zm.27.84A.3.3,0,0,1,10,4.42h0v-.1a.52.52,0,0,0,.24.2,1.36,1.36,0,0,1,.24.13.6.6,0,0,0,.36.16l.42-.13.17.09-.14.15h-.22a3.1,3.1,0,0,1-.53-.1,1.48,1.48,0,0,0-.26-.24Z"/><path d="M9.75,4s-.25.27-.18.46a1.05,1.05,0,0,1,.06.24v-.5l.12-.17h.13S9.81,4,9.75,4Z"/><path d="M9.72,4h0s-.27.3-.19.5a.88.88,0,0,1,0,.23h.09v-.5l.1-.14h.21L10,4S9.79,3.92,9.72,4Zm-.11.48h0a.25.25,0,0,1,0-.17v.17Z"/><path d="M10,3.44c.15.13-.5.13-.34.26a3.09,3.09,0,0,0,1,.27h.09s.35,0,.38-.12.36-.47.14-.43-.54.32-.52.25.18-.16.11-.14a3.18,3.18,0,0,1-.53-.14A1,1,0,0,0,10,3.44Z"/><path d="M11.63,3.51a.46.46,0,0,0,.09.32h-.17S11.55,3.53,11.63,3.51Z"/><path d="M9.54,3.12s.49-.08.59,0a.52.52,0,0,0,.3.14s.19-.1.3,0a.43.43,0,0,0,.16,0,1.1,1.1,0,0,0-.4-.14c-.12,0-.12.06-.32,0s-.33-.28-.44-.22-.16.16-.29.13a1.27,1.27,0,0,0-.39,0Z"/><path class="cls-2" d="M8.48,3.27a1.82,1.82,0,0,0-.33,0,.68.68,0,0,1-.4,0s-.22.21,0,.31a.45.45,0,0,0,.45,0Z"/><path d="M10.07,4.92c.08-.4.86-1,1.13-.85h0A2,2,0,0,0,10.07,4.92Z"/><path d="M10.2,5.1c.09-.39.86-1,1.13-.85h-.06A2.1,2.1,0,0,0,10.2,5.1Z"/><path d="M9.86,4.46c.22-.35,1.15-.62,1.37-.39h0A2,2,0,0,0,9.86,4.46Z"/><path class="cls-1" d="M19,25c3.42-.78,7.29-4.94,7.34-8.4V9.41H11.69v7.15C11.76,20,15.56,24.18,19,25Z"/><path d="M26.39,9.36H11.64v7.15a8.62,8.62,0,0,0,2.43,5.24A10.31,10.31,0,0,0,19,25h0A10.25,10.25,0,0,0,24,21.8a8.61,8.61,0,0,0,2.49-5.27V9.37h-.05ZM19,9.46h7.31v7.07a8.39,8.39,0,0,1-2.41,5.15A10.16,10.16,0,0,1,19,24.92h0a10.12,10.12,0,0,1-4.86-3.24,8.52,8.52,0,0,1-2.41-5.15V9.46Z"/><path class="cls-2" d="M19,29.66c2.08,0,6.62-.28,7.92-.93a1.84,1.84,0,0,0,.71-1.81,9.66,9.66,0,0,1,.4-2,.66.66,0,0,0-.13-.4c.55-.32,5.28,1.29,5.5,1.29a1.56,1.56,0,0,0,1-.1,14.05,14.05,0,0,0,3.17-3.13c.25-.52-.09-.92-.54-.76s-1.51,1.49-1.86,1.62-.18.27-1.75,0c-1.78-.31-4.15-1.79-6.45-1.4s-2.16,2.85-2.16,3.17.08.36.54.35c1.6-.08.74.51.74.51C24.82,27,19.66,27,19,27h0c-.65,0-5.84,0-7.11-.88,0,0-.86-.59.74-.51.46,0,.55,0,.55-.35s.12-2.79-2.18-3.17-4.68,1.09-6.44,1.4-1.42.13-1.77,0S1.36,22,1,21.84s-.8.24-.56.76a14.26,14.26,0,0,0,3.17,3.13,1.56,1.56,0,0,0,1,.1c.22,0,5-1.61,5.5-1.29a.59.59,0,0,0-.12.4,10.38,10.38,0,0,1,.4,2,1.81,1.81,0,0,0,.7,1.81C12.36,29.38,16.93,29.66,19,29.66Z"/><path d="M37.05,21.79a4.06,4.06,0,0,0-1,.86,4.9,4.9,0,0,1-.87.77H35c-.19.09-.3.16-1.59,0a12.85,12.85,0,0,1-2-.62A9.35,9.35,0,0,0,27,22c-1.45.25-2.24,1.38-2.21,3.18h0a.36.36,0,0,0,.09.31c.09.09.24.09.5.09.77,0,.9.07.92.12h0c0,.09-.13.21-.21.26-1.17.81-5.7.88-7.06.88h0c-1.05,0-5.83,0-7-.89-.07,0-.22-.17-.22-.26h0s.15-.17.92-.13c.26,0,.42,0,.51-.09a.39.39,0,0,0,.08-.31h0c0-1.79-.76-2.92-2.2-3.17a9.12,9.12,0,0,0-4.46.81,14.51,14.51,0,0,1-2,.61c-1.29.22-1.4.15-1.58,0H2.89A4.46,4.46,0,0,1,2,22.62a4.58,4.58,0,0,0-1-.83.52.52,0,0,0-.57.12.62.62,0,0,0,0,.71,14.7,14.7,0,0,0,3.14,3.16,1.39,1.39,0,0,0,1,.1h.07a5.61,5.61,0,0,0,.67-.19A22.77,22.77,0,0,1,10,24.58a.87.87,0,0,0-.1.31V25a2.91,2.91,0,0,0,.16.67,8,8,0,0,1,.25,1.2v.08a1.71,1.71,0,0,0,0,.32,1.79,1.79,0,0,0,.76,1.55c1.29.65,5.91.94,8,.94h0c2,0,6.61-.29,7.94-.94a1.76,1.76,0,0,0,.76-1.56.81.81,0,0,0,0-.31v-.08a8,8,0,0,1,.24-1.2,5,5,0,0,0,.16-.67v-.06a.64.64,0,0,0-.1-.33,22.77,22.77,0,0,1,4.75,1.11,5.61,5.61,0,0,0,.67.19h.08a1.36,1.36,0,0,0,1-.1,14.23,14.23,0,0,0,3.18-3.16.62.62,0,0,0,0-.71A.49.49,0,0,0,37.05,21.79ZM3.61,25.65A13.57,13.57,0,0,1,.49,22.58a.54.54,0,0,1,0-.6.41.41,0,0,1,.47-.1,5.22,5.22,0,0,1,.94.82,4.13,4.13,0,0,0,.91.81H3c.21.11.33.16,1.64,0a12.28,12.28,0,0,0,2-.54,9,9,0,0,1,4.41-.8c1.4.23,2.16,1.29,2.14,3.07h0c0,.13,0,.21-.07.25a2,2,0,0,1-.44,0c-.63,0-.94,0-1,.2s.22.38.24.4c1.2.83,5.76.89,7.13.89h0c1.42,0,5.91-.06,7.08-.88,0,0,.26-.18.26-.34h0a1.94,1.94,0,0,0-.93-.21H25c-.06,0,0-.12,0-.25h0c0-1.74.72-2.83,2.13-3.06a8.94,8.94,0,0,1,4.41.8,12.69,12.69,0,0,0,2,.6c1.29.22,1.43.17,1.64,0h.14a4.37,4.37,0,0,0,.92-.8,5,5,0,0,1,.94-.84.42.42,0,0,1,.46.11.55.55,0,0,1,0,.6,14.21,14.21,0,0,1-3.21,3,1.25,1.25,0,0,1-.91.1h-.08l-.68-.24c-2.2-.67-4.49-1.29-4.89-1.08h0a.51.51,0,0,1,.1.36,4.56,4.56,0,0,1-.15.66,4.28,4.28,0,0,0-.25,1.28,1.73,1.73,0,0,1-.67,1.76c-1.29.65-5.86.94-7.9.94h0c-2,0-6.59-.29-7.9-.94-.71-.34-.76-1.46-.68-1.76a4.28,4.28,0,0,0-.25-1.28,3.4,3.4,0,0,0-.15-.66.52.52,0,0,1,.11-.36h0c-.4-.24-2.69.41-4.88,1.08-.34.1-.61.19-.66.19H4.54a1.22,1.22,0,0,1-.9,0Z"/><path class="cls-4" d="M18.62,22.58l-.11.29a3.13,3.13,0,0,0-.26,1.29s.31-1.06.38-1.18a.68.68,0,0,1,.27-.2"/><path d="M18.59,22.57l-.1.29a3,3,0,0,0-.26,1.28h0A12,12,0,0,1,18.6,23a.75.75,0,0,1,.26-.21h0a.79.79,0,0,0-.27.21,8.35,8.35,0,0,0-.35,1.07h0A3.52,3.52,0,0,1,18.53,23l.1-.32h0Z"/><path class="cls-5" d="M23.86,16.76h2.49s.09,2.2-2.49,5.15Z"/><rect class="cls-6" x="21.23" y="9.32" width="0.36" height="0.17"/><polygon class="cls-2" points="18.37 0.53 19.07 2.08 19.82 0.56 19.78 2.24 21.1 1.2 20.33 2.69 21.98 2.33 20.63 3.35 22.28 3.74 20.61 4.07 21.94 5.13 20.29 4.72 21.03 6.25 19.72 5.16 19.72 6.86 19.03 5.31 18.28 6.83 18.32 5.13 16.99 6.19 17.77 4.68 16.11 5.05 17.47 4.02 15.82 3.65 17.48 3.3 16.15 2.24 17.79 2.67 17.07 1.14 18.37 2.23 18.37 0.53"/><path d="M18.33.53V2.11L17,1.1h0l.67,1.49-1.54-.4v.09l1.29,1-1.65.35h0L17.35,4,16.06,5V5l1.65-.3C17.6,4.92,17,6.21,17,6.21H17l1.29-1v1.6h.09L19,5.43c.08.15.66,1.44.66,1.44h.09V5.27L21,6.3l0-.09L20.38,4.8l1.55.38V5.1l-1.29-1,1.56-.31V3.64l-1.55-.37,1.29-1V2.23l-1.55.35.73-1.42h-.07s-1.11.88-1.29,1V.55h-.09S19.05,1.84,19,2c-.06-.17-.64-1.46-.64-1.46Zm.08,1.7V.75l.64,1.44.7-1.42V2.35l1.29-1-.75,1.4,1.54-.35-1.29,1,1.53.36-1.55.31,1.23,1-1.52-.39.67,1.42-1.2-1V6.64c-.13-.31-.65-1.44-.65-1.44l-.69,1.41V5L17.07,6l.72-1.4-1.47.3L17.61,4,16,3.64l1.54-.31-1.16-1L18,2.73l-.67-1.41,1.19,1Z"/><polygon points="26.38 16.71 23.84 16.71 23.84 16.81 26.43 16.81 26.43 16.71 26.38 16.71"/><rect x="20.65" y="18.85" width="0.1" height="5.53"/><rect x="17.29" y="18.85" width="0.1" height="5.49"/><rect x="16.58" y="13.47" width="2.49" height="5.43"/><rect class="cls-2" x="21.46" y="13.47" width="2.4" height="5.39"/><rect class="cls-4" x="14.08" y="13.47" width="2.53" height="5.39"/><rect class="cls-4" x="11.69" y="9.38" width="14.7" height="4.1"/><polygon points="26.38 13.42 11.64 13.42 11.64 13.52 26.43 13.52 26.43 13.42 26.38 13.42"/><rect x="18.99" y="13.45" width="0.09" height="5.43"/><rect x="16.53" y="13.45" width="0.09" height="5.45"/><rect x="21.41" y="13.45" width="0.09" height="5.43"/><rect x="23.81" y="13.45" width="0.09" height="8.49"/><path class="cls-2" d="M18.81,10.38a.07.07,0,0,0,.09.07.28.28,0,0,1,0,.13h-.57v.11l.23.11.08.32h.18v2.12h.36V11.12h.18l.08-.33.25-.15v-.11s-.42.07-.55.07v-.11c.12-.13-.07-.2,0-.41s-.06-.21-.1-.26-.09.14-.13.08a3.52,3.52,0,0,0-.46-.3L18,10a.65.65,0,0,1,.76.31Z"/><path d="M18.46,9.58l-.41.35V10a.59.59,0,0,1,.69.27.14.14,0,0,1,0,.09h0a.11.11,0,0,0,0,.08h-.51v.18l.23.12.08.35h.17V13.2h.45V11.09h.16l.09-.35.25-.16v-.11h-.49a.21.21,0,0,0,0-.11.2.2,0,0,0,0-.11.17.17,0,0,1,0-.1.14.14,0,0,1,0-.09h0a.4.4,0,0,0-.09-.22h0a0,0,0,0,0-.06,0l-.08.07a1,1,0,0,0-.48-.27h0Zm0,.09a.54.54,0,0,1,.41.24h0L19,9.85h0A.44.44,0,0,1,19,10h0a.2.2,0,0,0,0,.11.33.33,0,0,0,0,.14.11.11,0,0,1,0,.08.09.09,0,0,1,0,.07h0v.18h.57l-.25.15a2.82,2.82,0,0,1-.07.31h-.2v2.11h-.26v-2.1h-.19l-.08-.31-.23-.11H19v-.09a.24.24,0,0,0,0-.12h0v-.1h0a.67.67,0,0,0-.65-.38Z"/><path class="cls-2" d="M21.16,10.38a.07.07,0,0,0,.09.07.28.28,0,0,1,0,.13h-.57v.11l.23.11.08.32h.19v2.12h.4V11.12h.18l.08-.33.24-.15v-.11s-.41.07-.54.07v-.11c.12-.13-.08-.2,0-.41s-.06-.21-.1-.26-.09.14-.13.08a3.52,3.52,0,0,0-.46-.3l-.42.36a.68.68,0,0,1,.78.31A.54.54,0,0,0,21.16,10.38Z"/><path d="M20.81,9.58l-.42.35V10a.59.59,0,0,1,.71.27v.09h0a.11.11,0,0,0,0,.08h-.51v.18l.23.12.08.35h.18V13.2h.5V11.09h.17l.09-.35.24-.16v-.11h-.49a.11.11,0,0,0,0-.11.2.2,0,0,0,0-.11.17.17,0,0,1,0-.1v-.09h0a.29.29,0,0,0-.09-.22h0a.1.1,0,0,0-.09.07.93.93,0,0,0-.47-.27h0Zm0,.09a.55.55,0,0,1,.41.24h0a.11.11,0,0,0,.09-.06h0a.44.44,0,0,1,.08.17h0a.2.2,0,0,0,0,.11.33.33,0,0,0,0,.14v.08a.09.09,0,0,1,0,.07h0v.18h.69l-.24.15-.08.31h-.19v2.11h-.26v-2.1h-.19L21,10.76l-.23-.11h.55v-.09a.24.24,0,0,0,0-.12H21.3v-.1h0a.67.67,0,0,0-.66-.38Z"/><path class="cls-2" d="M23.54,10.45a.15.15,0,0,1,0,.13H23v.11l.23.11.08.32h.2v2.12h.34V11.12H24l.08-.33.25-.15v-.11s-.43.07-.56.07v-.11c.13-.13,0-.2,0-.41s-.08-.21-.1-.26-.1.14-.13.08a3,3,0,0,0-.46-.3l-.42.36a.64.64,0,0,1,.76.31.36.36,0,0,0,0,.11Z"/><path d="M23.1,9.58l-.41.35V10a.61.61,0,0,1,.7.27v.09h0a.11.11,0,0,0,0,.08h-.58v.18l.23.12.07.35h.19V13.2h.45v-2h.18s0-.31.07-.35l.26-.16v-.2h-.55a.21.21,0,0,0,0-.11v-.11a.17.17,0,0,1,0-.1.14.14,0,0,1,0-.09h0a.36.36,0,0,0-.11-.22h0a0,0,0,0,0-.06,0l-.09.07A.94.94,0,0,0,23,9.64h0Zm0,.09a.57.57,0,0,1,.41.24h0s.07,0,.08-.06h0a.34.34,0,0,1,.08.17h0a.2.2,0,0,0,0,.11.33.33,0,0,0,0,.14v.15h0v.18h.5l-.24.15-.07.31h-.19v2.11h-.26v-2.1h-.19l-.08-.31-.22-.11h.54v-.11a.17.17,0,0,0,0-.1h0v-.1h0a.65.65,0,0,0-.64-.38Z"/><path class="cls-2" d="M16.42,10.38a.07.07,0,0,0,.09.07.15.15,0,0,1,0,.13H16v.11l.23.11.08.32h.18v2.12h.36V11.12H17l.08-.33.24-.15v-.11s-.41.07-.54.07v-.11c.13-.13-.07-.2,0-.41s-.07-.21-.1-.26-.09.14-.13.08a3.54,3.54,0,0,0-.47-.3l-.41.36a.66.66,0,0,1,.77.31Z"/><path d="M16.11,9.58l-.42.35V10a.61.61,0,0,1,.7.27v.09h0a.11.11,0,0,0,0,.08h-.51v.18l.23.12.08.35h.23V13.2h.46V11.09H17l.09-.35.25-.16v-.11h-.49a.21.21,0,0,0,0-.11v-.11a.17.17,0,0,1,0-.1v-.09h0a.43.43,0,0,0-.09-.22h0s-.07,0-.08.06a1,1,0,0,0-.48-.26h0Zm0,.09a.56.56,0,0,1,.42.24h0l.09-.06h0a.47.47,0,0,1,.07.17h0a.2.2,0,0,0,0,.11.33.33,0,0,0,0,.14.11.11,0,0,1,0,.08.09.09,0,0,1,0,.07h0v.18h.57l-.24.15-.08.31h-.18v2.11H16.5v-2.1h-.08l-.07-.31-.24-.11h.56a.24.24,0,0,0,0-.12h0v-.1h0a.65.65,0,0,0-.66-.37Z"/><path class="cls-2" d="M14.09,10.38a.07.07,0,0,0,.09.07.28.28,0,0,1,0,.13h-.57v.11l.24.11.07.32h.18v2.12h.36V11.12h.19l.07-.33.25-.15v-.11s-.41.07-.54.07v-.11c.11-.13-.07-.2,0-.41s-.07-.21-.11-.26-.09.14-.13.08a3,3,0,0,0-.46-.3l-.41.36a.66.66,0,0,1,.77.31Z"/><path d="M13.74,9.58l-.41.35V10a.63.63,0,0,1,.71.27v.09h0a.11.11,0,0,0,0,.08h-.52v.18l.24.12.07.35H14V13.2h.44V11.09h.17l.09-.35.24-.16v-.11h-.49a.11.11,0,0,0,0-.11.2.2,0,0,0,0-.11v-.19h0a.35.35,0,0,0-.1-.22h0a.09.09,0,0,0-.08.07,1,1,0,0,0-.43-.34h-.11Zm0,.09a.57.57,0,0,1,.42.24h0l.09-.06h0a.47.47,0,0,1,.07.17h0v.25a.11.11,0,0,1,0,.08.09.09,0,0,1,0,.07h0v.18h.51l-.25.15a1.57,1.57,0,0,1-.08.31h-.18v2.11h-.25v-2.1h-.2l-.08-.31-.21-.11h.54v-.09a.24.24,0,0,0,0-.12h0v-.1h0a.67.67,0,0,0-.66-.38Z"/><polygon points="23.86 18.82 14.06 18.82 14.06 18.91 23.9 18.91 23.9 18.82 23.86 18.82"/><path class="cls-7" d="M25,15.84A4,4,0,0,1,25,17l-.15.18s.26-.14.34,0,.17-.16.23,0l-.12-.3a6.49,6.49,0,0,1,0-1.08C25.32,15.73,25,15.84,25,15.84Z"/><path d="M25,15.8h0a2.74,2.74,0,0,1,0,1.14l-.14.19h.06c.07,0,.23-.09.27,0h.22l-.11-.28c0-.34-.08-.68-.08-.89v-.14h0S25.25,15.7,25,15.8Zm.18,0a.54.54,0,0,0,0,.18c0,.3,0,.6.06.89h0V17h-.34a1.41,1.41,0,0,0,.09-.58,5.81,5.81,0,0,0,0-.59Z"/><path class="cls-5" d="M25.54,14.55s0-.89-.44-.59c0,0-.59-.14-.57.57v.31s-.37-.12-.31.22,0,.25.2.31-.42.19-.22.52.46.3.53.2.28.14.61-.09c0,0,.67.36.67-.3a.51.51,0,0,0-.16-.4s.38-.14.2-.46a.41.41,0,0,0-.52-.16Z"/><path d="M25.1,14a.58.58,0,0,0-.44.09.64.64,0,0,0-.18.49h0a1,1,0,0,0,0,.24.49.49,0,0,0-.24,0,.23.23,0,0,0,0,.25v.06a.33.33,0,0,0,.12.25.45.45,0,0,0-.2.23v.1a.47.47,0,0,0,.06.21.56.56,0,0,0,.44.27.21.21,0,0,0,.17-.08H25a.45.45,0,0,0,.45,0,.64.64,0,0,0,.54,0,.41.41,0,0,0,.17-.4.58.58,0,0,0-.13-.38.47.47,0,0,0,.2-.22V15a.67.67,0,0,0,0-.2.49.49,0,0,0-.55-.2h0c0-.08,0-.57-.22-.69A.24.24,0,0,0,25.1,14Zm0,.08h.18a1.58,1.58,0,0,1,.18.59h0v.18h0a.37.37,0,0,1,.46.14.2.2,0,0,1,0,.21c0,.11-.2.18-.2.18h0a.44.44,0,0,1,.15.36c0,.17,0,.27-.13.31a1.85,1.85,0,0,1-.48,0h0a.35.35,0,0,1-.37,0,.4.4,0,0,0-.26.06.14.14,0,0,1-.09,0,.47.47,0,0,1-.36-.22.41.41,0,0,1,0-.22.51.51,0,0,1,.25-.23V15.3c-.12,0-.12-.09-.15-.22v-.2a.25.25,0,0,1,.24,0v-.09h0a.71.71,0,0,1,0-.29.58.58,0,0,1,.15-.45A.52.52,0,0,1,25,14h0Z"/><path d="M25.45,15.11a.09.09,0,0,0,0,.13h0c.06.09.32.1.41.11h0v-.11h0a.75.75,0,0,1-.33-.07h-.1Z"/><path d="M24.88,15.61h0a.39.39,0,0,1,0,.26H25a.72.72,0,0,0,.08-.32h0Z"/><path class="cls-5" d="M24.57,14.84a.22.22,0,0,0,.22,0"/><path d="M24.51,14.85h0a.32.32,0,0,0,.27,0h0v-.09h0a.25.25,0,0,1-.17,0h0Z"/><path class="cls-4" d="M18.76,22.65c0,.15.17.37.53.28s0-1,0-1a1.94,1.94,0,0,1,.16.75c0,.23.53.13.62-.18.41,0,.36-.4.36-.46,0-.34-.89-.3-.89-.3a3.73,3.73,0,0,0,.67-.09c.62-.25-.47-.74-.45-.72s-.47-.93-.63-.26a4.69,4.69,0,0,0,0,.75s.07-.23-.27-.71-.57-.08-.55.17c-.3.14-.52.2-.24.49.08.06.91.06,1,.18s-.93-.21-1.06-.07a.27.27,0,0,0,0,.34c0,.09-.08.23,0,.31s1.06-.47,1.11-.3-.9.34-.93.52S18.58,22.75,18.76,22.65Z"/><path d="M19.31,20.39c-.1,0-.17.09-.2.26a2.54,2.54,0,0,0,0,.39h0a2.42,2.42,0,0,0-.21-.39c-.17-.24-.3-.26-.39-.23a.46.46,0,0,0-.22.4h-.07c-.16.08-.27.14-.29.23h0a.36.36,0,0,0,.13.23H18a.42.42,0,0,0-.08.18.48.48,0,0,0,0,.17h0a.14.14,0,0,1,0,.09v.09a.17.17,0,0,0,0,.1,1.34,1.34,0,0,0,.49-.14,2.05,2.05,0,0,1,.58-.18c-.19.07-.87.35-.9.5h0a.22.22,0,0,0,.12.21.65.65,0,0,0,.51.08.3.3,0,0,0,.08.17.47.47,0,0,0,.48.1c.07,0,.1-.14.1-.31a3.08,3.08,0,0,0,0-.43,1.89,1.89,0,0,1,.08.4v.11a.1.1,0,0,0,.1.11.52.52,0,0,0,.56-.31.35.35,0,0,0,.27-.1.41.41,0,0,0,.1-.3v.25h0a.21.21,0,0,0-.08-.16.8.8,0,0,0-.45-.14,1.58,1.58,0,0,0,.36-.09.22.22,0,0,0,.21-.2h0c0-.24-.52-.48-.65-.53S19.52,20.39,19.31,20.39Zm-.18.65a2.41,2.41,0,0,1,0-.38c0-.15.09-.22.16-.22a1.79,1.79,0,0,1,.43.48h0c.11,0,.6.29.61.49h0a.39.39,0,0,1-.18.17q-.33.06-.66.09h0a2,2,0,0,1,.81.15.13.13,0,0,1,0,.12h0a.45.45,0,0,1-.07.32.38.38,0,0,1-.26.09h0a.5.5,0,0,1-.5.3s-.08,0-.07-.09h0a2,2,0,0,0-.17-.75h0c.08.37.13.93,0,.95a.48.48,0,0,1-.43-.09.17.17,0,0,1,0-.17h0a.57.57,0,0,1-.51,0,.2.2,0,0,1-.09-.2c0-.12.58-.36.93-.49h0a1.2,1.2,0,0,0-.63.18,2.59,2.59,0,0,1-.45.14.17.17,0,0,1,0-.14.25.25,0,0,0,0-.17h0a.24.24,0,0,1,0-.3c.08-.09.67,0,1,.08h0c0-.08-.25-.1-.58-.14h-.39c-.09-.1-.13-.17-.11-.22s.11-.13.25-.19h.11a.35.35,0,0,1,.18-.36.32.32,0,0,1,.33.2,1.54,1.54,0,0,1,.26.53v.17h0a.17.17,0,0,0,0-.1Z"/><path d="M10.11,24.47v.1h0c1,0,2.58.24,2.85.63a.22.22,0,0,1,0,.16h.09a.28.28,0,0,0,0-.25c-.27-.45-2-.68-2.93-.68Z"/><path d="M10.35,24.57a.23.23,0,0,0-.18.22c0,.45,1.51,1.29,1.74,1.29h0V26h0c-.29-.11-1.66-.89-1.67-1.29,0,0,0-.09.13-.13h0v-.09Z"/><path d="M.76,22a.31.31,0,0,0-.26.19.83.83,0,0,0,.33.66A3.32,3.32,0,0,0,4,23.62H4v-.09H4a3.45,3.45,0,0,1-.54.11h0a2.57,2.57,0,0,1-2-.67v-.28a.68.68,0,0,0,0-.4A.65.65,0,0,0,.76,22Zm.13.77c-.24-.22-.3-.38-.3-.47v-.07a.18.18,0,0,1,.17-.14.59.59,0,0,1,.56.3.54.54,0,0,1,0,.18v.29a.23.23,0,0,0,.09.22,1.82,1.82,0,0,0,.72.43A3.19,3.19,0,0,1,1,22.75Z"/><path d="M27.91,24.47c-.9,0-2.66.23-2.93.68a.28.28,0,0,0,0,.25h.09a.22.22,0,0,1,0-.16c.24-.39,1.85-.63,2.85-.63h0v-.14Z"/><path d="M27.64,24.65h0a.12.12,0,0,1,.13.13c0,.34-1.38,1.13-1.68,1.29h0v.09h0c.23-.08,1.74-.88,1.74-1.29a.22.22,0,0,0-.18-.22h0Z"/><path d="M36.66,22.31a.68.68,0,0,0,0,.4V23a2.56,2.56,0,0,1-1.88.59h0a2.4,2.4,0,0,1-.53-.12h0v.09h0a3.28,3.28,0,0,0,3.16-.78c.35-.32.35-.54.32-.66a.29.29,0,0,0-.26-.19A.68.68,0,0,0,36.66,22.31Zm0,.75a.3.3,0,0,0,.08-.22V22.7a.38.38,0,0,1,0-.15.54.54,0,0,1,0-.18.61.61,0,0,1,.55-.3.19.19,0,0,1,.18.14v.07c0,.09,0,.25-.29.47a3.16,3.16,0,0,1-1.29.74,2.05,2.05,0,0,0,.76-.43Z"/><path d="M4.44,25.55l-.31-1.1.29-.19h.22a.34.34,0,0,1,.11.18v.27h0c.1,0,.16.07.2.21s0,.09,0,.14a.25.25,0,0,1-.19.28Zm.18-.25h.09a.19.19,0,0,0,0-.18c0-.11-.08-.15-.18-.11H4.45l.09.33Zm-.15-.5a.16.16,0,0,0,.12-.08.24.24,0,0,0,0-.12c0-.08,0-.12-.13-.09H4.38l.08.28Z"/><path d="M5.14,25.21l-.32-1.1.51-.18v.16l-.25.17.08.27.29-.09v.16l-.29.11.09.32.32-.1v.16Z"/><path d="M5.85,24.45l.12.48H5.79l-.27-1.09.35-.12c.15,0,.29,0,.33.18s0,.36-.09.36h0c.1,0,.16,0,.18.16s0,.3.13.33h0l-.19.06a.55.55,0,0,1-.12-.24s0-.15-.1-.15H5.84Zm0-.16H6a.14.14,0,0,0,0-.2C5.91,24,5.92,24,5.85,24H5.72Z"/><path d="M6.78,23.86c0-.1,0-.21-.14-.17a.1.1,0,0,0-.09.12h0a.2.2,0,0,0,.14.13,1.23,1.23,0,0,1,.26.12.37.37,0,0,1-.08.62h0c-.22,0-.33-.07-.36-.26v-.09h.19c0,.12.08.18.17.16s.1-.08.07-.16a.19.19,0,0,0-.1-.13A1.06,1.06,0,0,1,6.49,24a.24.24,0,0,1-.09-.15.31.31,0,0,1,.21-.39h0c.28-.08.33.18.36.3Z"/><path d="M7.28,24.54l-.2-1.13.51-.13v.17l-.32.08v.29l.3-.09v.17L7.4,24v.35l.37-.07v.17Z"/><path d="M7.94,24.38l-.18-1.14H8l.07.51H8a2.63,2.63,0,0,1,.08-.3v-.26h.21l-.17.54.36.6H8.3l-.24-.42v.47Z"/><path d="M9,23h.19l.09.79c0,.26,0,.4-.28.42s-.3-.05-.3-.31l-.09-.8h.18l.09.79c0,.1,0,.22.16.19s.11-.12.1-.24Z"/><path d="M9.33,23H10v.17H9.75v1H9.62v-1H9.35Z"/><path d="M10.58,23h.2v.8c0,.27-.08.39-.32.37s-.33-.12-.31-.38V23h.19v.79c0,.1,0,.2.13.21s.14-.1.14-.21Z"/><path d="M11.11,28.13l.24-1.29.29.09a.28.28,0,0,1,.2.17,1,1,0,0,1,0,.24c0,.12,0,.22-.17.23h0c.1,0,.11.18.09.35v.16c-.08.15-.16.19-.29.15Zm.25-.12h.11a.44.44,0,0,0,.09-.15.23.23,0,0,0-.09-.25H11.4l-.13.32Zm.1-.58h.14a.17.17,0,0,0,0-.14v-.18h-.09v.33Z"/><path d="M11.89,28.3,12.05,27l.52.11v.2l-.35-.08v.32l.32.08v.19l-.31-.08v.42l.34.07v.2Z"/><path d="M12.83,27.92l-.07.57h-.18l.13-1.29.35.08a.28.28,0,0,1,.27.3s0,0,0,.06-.07.29-.2.28h0c.12,0,.15.14.12.26a1.62,1.62,0,0,0,0,.44H13v-.57a.38.38,0,0,0-.15,0Zm0-.19H13c.06,0,.12,0,.13-.18s0-.18-.1-.2h-.13Z"/><path d="M13.45,27.28l.63.1v.19h-.22l-.09,1.13h-.18l.09-1.13h-.22Z"/><path d="M14,28.71l.33-1.29h.25l.13,1.35h-.2v-.35H14.3l-.08.33Zm.31-.49h.17v-.65h0v.26Z"/><path d="M15,28.84h-.18l.08-1.29h.29v.62a1.6,1.6,0,0,1,0,.31h0v-.3l.14-.61h.3l-.08,1.29h-.05V27.65h0l-.27,1.19h-.11L15,27.55h0v1.29Z"/><path d="M15.9,28.94,16,27.65h.3a.22.22,0,0,1,.2.12.33.33,0,0,1,0,.24c0,.12,0,.23-.13.27h0c.11,0,.15.14.13.32a.43.43,0,0,1,0,.16.21.21,0,0,1-.25.22Zm.23-.18h.11a.55.55,0,0,0,.07-.18c0-.07,0-.21-.13-.22h-.07v.4Zm0-.59h.13s0-.07,0-.15,0-.14-.11-.15h-.09v.26Z"/><path d="M16.58,29l.28-1.29h.26L17.3,29h-.21v-.35h-.21l-.07.34Zm.3-.5H17V28.1a.54.54,0,0,0,0-.18v-.09h0a.11.11,0,0,0,0,.08.61.61,0,0,1,0,.19Z"/><path d="M17.4,29.06V27.77h.2v.53h.26v-.56h.19V29h-.19v-.59H17.6v.62Z"/><path d="M18.76,29.11h-.18V27.82h.31l.09.62a1.6,1.6,0,0,1,0,.31h0v-.31l.09-.61h.29v1.29h-.19V27.91h0L19,29.12h0l-.2-1.21h0v.79Z"/><path d="M20.05,27.77h.24v.93c0,.29-.06.43-.31.45s-.32-.15-.33-.44v-.93h.18v.9c0,.14,0,.26.14.26s.13-.13.12-.27Z"/><path d="M20.29,27.75h.63V28H20.7v1.13h-.19V28H20.3Z"/><path d="M21.58,27.66h.19v.93c0,.3,0,.44-.29.47s-.32-.11-.35-.4v-.93h.18l.06.9c0,.12,0,.25.15.25s.13-.16.11-.28Z"/><line class="cls-8" x1="19.79" y1="19.63" x2="19.54" y2="19.49"/><polygon points="19.48 19.5 19.8 19.7 19.85 19.62 19.53 19.43 19.48 19.5"/><line class="cls-8" x1="19.83" y1="19.85" x2="19.62" y2="19.7"/><polygon points="19.56 19.72 19.84 19.92 19.91 19.84 19.61 19.63 19.56 19.72"/><line class="cls-8" x1="19.93" y1="19.63" x2="20.07" y2="19.44"/><polygon points="20.03 19.41 19.87 19.65 19.93 19.7 20.14 19.43 20.06 19.38 20.03 19.41"/><line class="cls-8" x1="19.93" y1="19.8" x2="20.12" y2="19.63"/><polygon points="20.09 19.61 19.87 19.8 19.93 19.86 20.19 19.63 20.12 19.57 20.09 19.61"/><path class="cls-9" d="M13.25,19.23c-.13.11-.19.12-.22.12a.35.35,0,0,1-.23-.12h-.06c-.09.12-.13.12-.17.12v.19a.32.32,0,0,0,.24-.11.57.57,0,0,0,.28.11h0a.43.43,0,0,0,.28-.11.48.48,0,0,0,.23.1.25.25,0,0,0,.23-.08.46.46,0,0,0,.34.09v-.19c-.14,0-.21,0-.25-.08h-.16c-.07.09-.12.09-.12.09h0a.42.42,0,0,1-.18-.11h-.07Zm.3.31Z"/><path class="cls-9" d="M13.25,19.77c-.14.13-.2.13-.22.13a.32.32,0,0,1-.23-.13l-.13.15a.69.69,0,0,0,.35.18.56.56,0,0,0,.3-.12.55.55,0,0,0,.22.1.25.25,0,0,0,.23-.07.49.49,0,0,0,.33.09v-.2c-.14,0-.2,0-.24-.07a.06.06,0,0,0-.08,0h-.09a.11.11,0,0,0-.11.07h0a.27.27,0,0,1-.19-.1.06.06,0,0,0-.06,0Zm.3.31Z"/><path class="cls-9" d="M13.25,20.32a.83.83,0,0,1-.15.11l.08.18.12-.09a.53.53,0,0,0,.24.11.38.38,0,0,0,.23-.08.49.49,0,0,0,.33.09v-.25h-.25l-.08-.06h-.09c-.07.09-.12.09-.12.09a.39.39,0,0,1-.19-.12.09.09,0,0,0-.07,0Z"/><path class="cls-9" d="M13.69,21s-.09.09-.11.09v.18a.21.21,0,0,0,.16-.08.42.42,0,0,0,.34.09v-.19c-.14,0-.21,0-.25-.08h-.14Z"/><path class="cls-2" d="M11.71,16.75h2.37v1.49H12a2.76,2.76,0,0,1-.19-.55Z"/><polygon points="14.12 16.71 11.67 16.71 11.67 16.81 14.17 16.81 14.17 16.71 14.12 16.71"/><path class="cls-9" d="M13.25,18.65c-.13.13-.19.14-.22.13a.39.39,0,0,1-.22-.11.09.09,0,0,0-.07,0,0,0,0,0,0-.07,0c-.09.11-.14.11-.16.11a.6.6,0,0,1-.25-.13l-.13.14a.69.69,0,0,0,.38.19.37.37,0,0,0,.24-.12.4.4,0,0,0,.57,0,.43.43,0,0,0,.22.12h0a.37.37,0,0,0,.22-.08.54.54,0,0,0,.33.08v-.2c-.14,0-.21,0-.24-.09a.11.11,0,0,0-.08,0,.14.14,0,0,0-.09,0s-.08.09-.13.09a.42.42,0,0,1-.18-.11,0,0,0,0,0-.07,0Z"/><path d="M27,27v-.09l-.12.08a.86.86,0,0,1-.08.68.56.56,0,0,1-.42.27h-.21s.54.22.75-.21a1.07,1.07,0,0,0,.12-.61h.24c.09,0,.19-.12.22-.19a.23.23,0,0,0,0-.2.52.52,0,0,0-.19-.14l-.11.18s.3.11,0,.2A.34.34,0,0,1,27,27Z"/><polygon points="27.2 27.3 27.11 27.42 27.23 27.52 27.32 27.41 27.2 27.3"/><polygon points="26.2 26.43 26.09 26.54 26.21 26.66 26.31 26.53 26.2 26.43"/><polygon points="25.51 28.15 25.42 28.28 25.52 28.39 25.63 28.27 25.51 28.15"/><polygon points="22.8 27.41 22.71 27.52 22.82 27.63 22.93 27.51 22.8 27.41"/><polygon points="23.05 27.33 22.96 27.45 23.06 27.56 23.18 27.43 23.05 27.33"/><polygon points="26.41 26.35 26.31 26.48 26.43 26.59 26.53 26.46 26.41 26.35"/><polygon points="28.49 22.65 28.4 22.77 28.5 22.88 28.62 22.77 28.49 22.65"/><polygon points="28.26 22.68 28.17 22.8 28.27 22.91 28.39 22.79 28.26 22.68"/><polygon points="31.89 24.21 31.78 24.35 31.89 24.48 32.02 24.32 31.89 24.21"/><path d="M24.7,28c-.06.12-.15.66-.49.67a.47.47,0,0,1-.46-.36c.14.14.25.24.42.22s.35-.41.4-.52l.12-.22s.06.21.49.17c.67-.06.64-.33.64-.33a.2.2,0,0,0,.21,0c.11,0,.33-.33.51-.25a.14.14,0,0,1,.14.14.15.15,0,0,1-.14.15.37.37,0,0,1-.33-.12.25.25,0,0,1-.1-.16,2.77,2.77,0,0,1,.09-.4h.25c.08,0,0-.18,0-.18l.13-.18s.22.24.13.39-.4.18-.4.18v.1c0,.11,0,.16.09.2s.17.13.22.07,0-.11-.13-.07-.28.27-.41.28a.21.21,0,0,1-.19,0s.1.22-.56.35A.78.78,0,0,1,24.7,28Z"/><path d="M23.86,27.9a.36.36,0,0,1-.26.14,1,1,0,0,1-.09.67.58.58,0,0,1-.49.36c-.15,0-.28-.23-.28-.23a1.43,1.43,0,0,0,.61-.12.85.85,0,0,0,.15-.62h-.2c-.11,0-.1-.19,0-.26s.19-.23.24-.16l.1.18c.18,0,.16,0,.22-.13s.13-.25.2-.27a.3.3,0,0,1,.27.19.24.24,0,0,1-.21.21.26.26,0,0,1-.14-.11l.08-.09s.1.09.14,0,0-.11-.08-.13S23.94,27.81,23.86,27.9Z"/><path d="M23,28a.6.6,0,0,1-.12.11c-.16.06-.09,0-.17,0s-.09-.26-.17-.27-.21.16-.24.32.18.15.27.13,0,.42-.27.55a.37.37,0,0,1-.46-.11s.1.32.33.31a.47.47,0,0,0,.44-.31,1.12,1.12,0,0,0,.11-.47,1,1,0,0,0,.25-.07c.13,0,.19-.08.22-.2s-.16-.35-.16-.35l-.12.21S23,28,23,28Z"/><path d="M24.69,27.57a.33.33,0,0,0,.19-.06c.08-.08-.21-.22-.21-.22v.09s.13,0,.12.09-.18.09-.21,0,.08-.12.08-.1a.42.42,0,0,1-.22.4.42.42,0,0,0-.14.09.3.3,0,0,0,.27-.08.57.57,0,0,0,.16-.36v-.21c0,.08-.21.22-.18.31S24.69,27.57,24.69,27.57Z"/><path d="M32.16,24a2.33,2.33,0,0,0-.06-.35l-.18.13s.13.12,0,.15-.32,0-.37-.09-.25.61-.6.67-.53-.08-.59-.18.1.5.57.37a.92.92,0,0,0,.64-.68h.31A.36.36,0,0,0,32.16,24Z"/><path d="M29.41,23.73a.57.57,0,0,1-.26,0c-.07.12-.22.57-.65.56s-.32-.52-.32-.52a.31.31,0,0,0,.27.35h0c.36,0,.54-.41.54-.41a.21.21,0,0,1-.19-.11c0-.11.19-.32.27-.31s.09.27.09.27a.2.2,0,0,0,.27,0c-.09-.11-.26-.46-.17-.54a1.31,1.31,0,0,1,.91-.13c.28.13,0,.29,0,.29h-.15s.1-.07,0-.12-.67,0-.68.13.23.44.23.44a.74.74,0,0,0,.68,0c.09.24.32.08.32.08s.13.15.22.14,0-.16,0-.16L31,23.6A.53.53,0,0,1,31,24a1.11,1.11,0,0,1-.26.07.4.4,0,0,1-.24-.16c-.18.09-.25,0-.25,0a1.19,1.19,0,0,1-.46,0,1.14,1.14,0,0,1-.35-.13Z"/><path d="M28.52,23.07l-.18.09v.16a1,1,0,0,1-.25-.06s0-.2-.08-.2-.29.17-.28.25.22.11.22.11,0,.25-.53.39a.43.43,0,0,1-.3-.18.29.29,0,0,0,.24.34h.07a.8.8,0,0,0,.62-.53s.34.14.47,0S28.52,23.07,28.52,23.07Z"/><path d="M19.08,21.68a1.26,1.26,0,0,0-.55.11c-.15.1.46-.09.52,0s.12,0,0,.28a1.63,1.63,0,0,0-.11.31l.19-.36s0-.23.16-.14.56.21.59.37a2.45,2.45,0,0,0-.47-.44s.07-.53.24-.55l-.44.42a2.6,2.6,0,0,1-.3-.36c-.17-.23-.29-.26-.29-.26l.45.58"/><path d="M18.62,21.05l.46.59h0l-.39-.5.17.19c.17.22.31.37.31.38h0l.27-.26a2,2,0,0,0-.08.35h0a.88.88,0,0,1,.24.19l-.15-.06-.2-.11a.07.07,0,0,0-.09,0c-.08,0-.11.16-.11.18h0a.54.54,0,0,0,0-.18v-.07s0,0-.06,0a.65.65,0,0,0-.34,0,1.15,1.15,0,0,1,.37,0h0a1.46,1.46,0,0,0-.57.1h0a1.06,1.06,0,0,1,.5,0h0v.23a2.08,2.08,0,0,0-.12.32h0l.2-.34h0a.19.19,0,0,1,0-.15h0l.22.12a1.11,1.11,0,0,1,.27.13l.1.12h0a.21.21,0,0,0-.11-.13,1.47,1.47,0,0,0-.35-.31,2.09,2.09,0,0,1,.11-.43l.11-.1h0s-.07,0-.09.1l-.33.31s-.15-.18-.28-.36a.59.59,0,0,0-.3-.26Z"/><path class="cls-4" d="M19.17,21.8a7.84,7.84,0,0,0,.68-2.05c-.06-.37-.2-.45-.2-.45h.23v.63a7.7,7.7,0,0,1-.72,2"/><path d="M19.88,19.22h-.25s.13,0,.21.44h0a9.86,9.86,0,0,1-.68,2h0a7.18,7.18,0,0,0,.73-2V19h0Zm0,0v.61a7.93,7.93,0,0,1-.71,1.92,8.71,8.71,0,0,0,.7-2V19.7a.86.86,0,0,0-.18-.44Z"/><path class="cls-5" d="M12.83,14.86a.61.61,0,0,1,0-.19h0v-.1h0v-.09h0s0-.09-.12,0a.17.17,0,0,0,0,.14h0a.2.2,0,0,0,0,.11h0v.15h0a.14.14,0,0,1-.08-.09h0V14.7h0v-.09h0V14.5h.48a.16.16,0,0,0-.15-.1h-.22v-.09h-.07c-.06,0,0-.09.07-.1h.19s.1,0,.12.06v-.06a.28.28,0,0,1,.1.09h0a.14.14,0,0,1,0,.09h0a.31.31,0,0,1,.06.13.25.25,0,0,0-.09-.19.16.16,0,0,0-.2-.07h-.09a.08.08,0,0,1,.09-.08h.18s.08.09.08.12v0h0v0a.54.54,0,0,1,0-.18V14h0v.24a1.13,1.13,0,0,0,0,.26v-.21h0a.28.28,0,0,1,0-.13v.08l.09-.12h0c0-.06.07,0,.07,0h.12l.08.08h-.07a.19.19,0,0,0-.23.07s-.08.22-.08.18a.75.75,0,0,1,.07-.12h0l.06-.08h0l.09-.07h0l.11-.07v.07a.17.17,0,0,1,.1,0h0a.14.14,0,0,1,.09,0h0l.07.11a.11.11,0,0,0-.07-.06v.1h0a.28.28,0,0,0-.22,0,.21.21,0,0,0-.14.12h.46a.17.17,0,0,1,0,.1h0v.08h0v.09h0l-.09.09h0a.43.43,0,0,0,0-.16h0v-.11h0a.15.15,0,0,0,0-.13h-.11v.09h0v.11h0a.54.54,0,0,1,0,.18"/><path d="M12.87,13.81a.28.28,0,0,0,0,.13v.29h0v-.11h0V14h0a.65.65,0,0,0-.08-.09h-.18l-.08.08h0a.16.16,0,0,1,.22,0h0v-.08h0a.24.24,0,0,0-.08-.06h-.24a.14.14,0,0,0-.07.1h0V14h0V14a.26.26,0,0,1,.21,0,.13.13,0,0,1,.13.09h-.23a.14.14,0,0,0,0,.09h0a.14.14,0,0,0,0,.09h0a.11.11,0,0,0,0,.08h0l.07.06h0v-.12h0v-.07h0a.29.29,0,0,1,0-.13h0v.08h0v.25h0v-.16h0v-.08h0a.06.06,0,0,0-.06,0h0a.14.14,0,0,0-.06.11h0a.14.14,0,0,0,0,.09h0a.38.38,0,0,0,0,.15h0V14.4h.32a.19.19,0,0,0-.16-.12.23.23,0,0,0-.22.07h0v-.07h.17v.07h0v.06h0a.28.28,0,0,0,0-.13.17.17,0,0,0-.23,0h.22a.34.34,0,0,1,.06.12h0a.14.14,0,0,1,0,.09h0a.17.17,0,0,1,0,.1h0v.07h0a1,1,0,0,0,0-.25v-.15h0V14h0a.2.2,0,0,1,0,.15,1.13,1.13,0,0,0,0,.26h0V14.3h0v-.09h0v-.09h0a.26.26,0,0,1,.07-.11h.15a.3.3,0,0,0-.23.07.31.31,0,0,0-.06.13h0v-.07h0v-.08h.27v.07h0a.39.39,0,0,0-.22-.07.2.2,0,0,0-.14.13h.25a.09.09,0,0,1,0,.07h0a.13.13,0,0,1-.06.07h0v-.15h0v-.09h0a.15.15,0,0,0-.07-.12h-.06v.08h0a.11.11,0,0,1,0,.08h0v.14h0v-.19h0a.16.16,0,0,1,.06.13h0v0h0a.17.17,0,0,1,0,.1h0a.14.14,0,0,0,.09-.08h0a.09.09,0,0,0,0-.07h0v-.08h0a.14.14,0,0,0,0-.09h-.36a.18.18,0,0,1,.12-.09c.12,0,.18,0,.21.06h0V13.9h.06a.17.17,0,0,0-.06-.12h-.25l-.08.06h0a.17.17,0,0,1,.21,0h0a.07.07,0,0,0-.06-.07h-.19l-.06.09h0V14h0v.11h0a.2.2,0,0,1,0-.11v-.07a.17.17,0,0,0,0-.1h0v-.06h0Z"/><path class="cls-10" d="M12.84,15.75v-.89h0l.08.07s.11,0,.11.1H13A.06.06,0,0,1,13,15h0v.77h-.12Z"/><path d="M12.83,14.86v.89h.08V15h0v.08h0a.06.06,0,0,0,0,.06H13L12.87,15h0L12.79,15H12.7Zm0,.24v-.24h0l.08.08s.1,0,.1.09h-.07V15h-.06v.82h0v-.68Z"/><path class="cls-5" d="M12.17,16.15h0V16h.08v.07a.11.11,0,0,0,0-.08v0h0v-.09h0v-.06h0v-.11h0v0h0v0h0v0h.08v0s0,0,.06,0v.07h.06a.09.09,0,0,1,0,.07h.08a.09.09,0,0,1,0,.07h.08a.11.11,0,0,1,0,.08h.09V16a.14.14,0,0,0,.09,0h.06v.09Z"/><path d="M13.25,15.66a.21.21,0,0,0,0,.11h-.06v0h0v.07h0a.09.09,0,0,0,0,.07v-.08h0a.06.06,0,0,1,0,.06h0V16h0a.11.11,0,0,1,0,.08h0V16h-1a.28.28,0,0,1,0,.13h1.55V16h-.2v-.07h-.15v-.07h-.06v-.08h0a.17.17,0,0,1,0-.1h0Zm0,0v.07h.21v.06h.08v.09H12.17a.17.17,0,0,0,0-.1h0v.06h0a.06.06,0,0,0,0-.06h0v-.09h0v-.1h0v-.08h0v.06h0v-.09h0V15.4h.06a.54.54,0,0,1,.66-.35.53.53,0,0,1,.35.65Z"/><path class="cls-9" d="M13.55,16.2c-.12,0-.21,0-.21-.09s.11-.1.22-.09.21.09.21.16S13.67,16.23,13.55,16.2Z"/><path d="M13.37,16.05h0c0,.08,0,.08.13.08h.27c0-.08-.08-.15-.21-.17A.25.25,0,0,0,13.37,16.05Zm.1.15c-.08,0-.13,0-.11-.09h.18a.19.19,0,0,1,.19.16h-.26Z"/><path class="cls-1" d="M13.24,16.18c-.12,0-.21,0-.21-.08s.09-.13.21-.12.21,0,.21.13S13.36,16.18,13.24,16.18Z"/><path d="M13.05,16a.08.08,0,0,0,0,.12h.38s0,0,0-.07-.1-.13-.22-.13A.2.2,0,0,0,13.05,16Zm0,.11h0v-.06a.28.28,0,0,1,.18,0c.1,0,.2,0,.2.11h-.27s-.09,0-.1-.05Z"/><path class="cls-9" d="M12.92,16.17c.11,0,.2,0,.22-.07s-.09-.13-.21-.13-.22,0-.22.12S12.8,16.17,12.92,16.17Z"/><path d="M12.71,16.09a.11.11,0,0,0,0,.08h.39V16h-.18C12.81,16,12.71,16,12.71,16.09Zm0,.06a.06.06,0,0,1,0-.06.34.34,0,0,1,.21-.12.25.25,0,0,1,.17,0V16h-.38Z"/><path class="cls-1" d="M12.62,16.18c.12,0,.21,0,.21-.08s-.09-.13-.2-.12-.21,0-.21.13S12.56,16.18,12.62,16.18Z"/><path d="M12.63,16c-.12,0-.23,0-.23.13v.07a.11.11,0,0,0,.11,0h.28a.09.09,0,0,0,0-.13h0A.24.24,0,0,0,12.63,16Zm-.2.19h0a.34.34,0,0,1,.22-.12.22.22,0,0,1,.16,0v.06h-.25S12.45,16.19,12.43,16.17Z"/><rect class="cls-1" x="11.85" y="17.76" width="2.31" height="0.05"/><rect x="11.89" y="17.75" width="2.26" height="0.03"/><rect x="11.89" y="17.82" width="2.26" height="0.01"/><rect class="cls-1" x="12.52" y="17.2" width="0.06" height="0.94"/><polygon points="12.58 17.66 12.69 17.76 12.69 17.76 12.6 17.65 12.58 17.66"/><polygon points="12.58 17.32 13.01 17.76 13.02 17.75 12.6 17.32 12.58 17.32"/><polygon points="12.6 17.45 12.9 17.76 12.92 17.75 12.6 17.44 12.6 17.45"/><polygon points="12.58 17.56 12.79 17.76 12.8 17.75 12.6 17.55 12.58 17.56"/><polygon points="12.41 17.76 12.41 17.76 12.52 17.66 12.51 17.65 12.41 17.76"/><polygon points="12.08 17.75 12.09 17.76 12.52 17.32 12.51 17.32 12.08 17.75"/><polygon points="12.2 17.75 12.2 17.76 12.52 17.44 12.51 17.43 12.2 17.75"/><polygon points="12.31 17.75 12.31 17.76 12.53 17.56 12.52 17.55 12.31 17.75"/><rect class="cls-1" x="13.46" y="17.2" width="0.08" height="0.94"/><path d="M13.52,17.2h-.07v.95h.09V17.2Zm0,0v.92h-.06V17.2Z"/><polygon points="13.52 17.66 13.63 17.76 13.64 17.76 13.54 17.65 13.52 17.66"/><polygon points="13.52 17.32 13.95 17.76 13.96 17.75 13.54 17.32 13.52 17.32"/><polygon points="13.54 17.45 13.83 17.76 13.85 17.75 13.54 17.44 13.54 17.45"/><polygon points="13.51 17.56 13.73 17.76 13.73 17.75 13.52 17.55 13.51 17.56"/><polygon points="13.36 17.76 13.36 17.76 13.46 17.66 13.45 17.65 13.36 17.76"/><polygon points="13.02 17.75 13.03 17.76 13.46 17.32 13.45 17.32 13.02 17.75"/><polygon points="13.12 17.75 13.14 17.76 13.46 17.44 13.45 17.43 13.12 17.75"/><polygon points="13.24 17.75 13.25 17.76 13.46 17.56 13.46 17.55 13.24 17.75"/><path class="cls-9" d="M12.31,16.2c.12,0,.21,0,.21-.09s-.1-.1-.22-.09-.21.09-.21.16S12.2,16.23,12.31,16.2Z"/><path d="M12.3,16c-.12,0-.22.09-.21.17h.27c.07,0,.13,0,.13-.09h0A.24.24,0,0,0,12.3,16Zm-.18.22h0s.08-.14.19-.15a.28.28,0,0,1,.18,0h0c0,.07,0,.07-.11.09h-.15S12.14,16.24,12.12,16.23Z"/><path class="cls-10" d="M12.91,15.39h-.08"/><path d="M12.83,15.39h0Z"/><path d="M13,15a.11.11,0,0,0,0,.08h0Z"/><path d="M12.87,14.85h0a.33.33,0,0,1,0-.14h0Z"/><path d="M12.84,14.85h0v-.27h0A2.42,2.42,0,0,0,12.84,14.85Z"/><rect x="14.07" y="13.42" width="0.09" height="8.4"/><rect class="cls-9" x="11.99" y="18.1" width="2.08" height="0.19"/><path d="M26.39,9.36H11.64v7.15a8.62,8.62,0,0,0,2.43,5.24A10.31,10.31,0,0,0,19,25h0A10.25,10.25,0,0,0,24,21.8a8.61,8.61,0,0,0,2.49-5.27V9.37h-.05ZM19,9.46h7.31v7.07a8.39,8.39,0,0,1-2.41,5.15A10.16,10.16,0,0,1,19,24.92h0a10.12,10.12,0,0,1-4.86-3.24,8.52,8.52,0,0,1-2.41-5.15V9.46Z"/><path class="cls-1" d="M10.24,3.56a.81.81,0,0,0-.38,0,.81.81,0,0,0,.45.13c.09.05-.2,0-.2,0S10.19,3.56,10.24,3.56Z"/><path d="M11,4.49A.08.08,0,0,0,11,4.41m-.13,0a.08.08,0,0,0,.06.08Z"/><path d="M11.16,4.36s.11,0,.11-.08m-.07,0a.09.09,0,0,0-.07,0,.08.08,0,0,0,0,.08Z"/><path d="M11.33,4.2a.07.07,0,0,0,.07-.06.07.07,0,0,0-.07-.07h0a.07.07,0,0,0-.06.07A.06.06,0,0,0,11.33,4.2Z"/><path d="M11.27,4.05A.07.07,0,0,0,11.33,4h0a.08.08,0,0,0-.14-.06.06.06,0,0,0,0,.06A.08.08,0,0,0,11.27,4.05Z"/><path d="M29.69,3.22l-.7.12s-.32-.14-.32,0v.22a.24.24,0,0,0-.31.13.21.21,0,0,1-.27.11h0a3.25,3.25,0,0,0,.33-.57c0-.1.35-.24.35-.24h.34Z"/><path d="M27.47,4.83a5.35,5.35,0,0,1-.55.11l-.18,0-.26-.23.23-.11a3.69,3.69,0,0,0,.45.11c.13,0,.4-.22.57-.27s.42-.69.35-.69-.12.45,0,.6S27.57,4.67,27.47,4.83Z"/><path d="M28,3.74h0a1.27,1.27,0,0,0,0,.39.62.62,0,0,1-.26.27.66.66,0,0,0-.26.14c-.1,0-.23.14-.3.13l-.43-.13h0l-.3.17.31.28H27a2.42,2.42,0,0,0,.47-.07h0a.92.92,0,0,1,.28-.19c.16-.09.25-.15.28-.23h0V4.25a.89.89,0,0,0,.08-.32h0s0-.08-.07-.08Zm-.55.9a1.19,1.19,0,0,1,.25-.13.48.48,0,0,0,.24-.2v.1h0a1.24,1.24,0,0,1-.23.15,1.58,1.58,0,0,0-.29.22,3.33,3.33,0,0,1-.53.11,1.13,1.13,0,0,0-.18,0l-.2-.18.2-.07.44.13a.74.74,0,0,0,.27-.16Z"/><path d="M28.25,4s.25.27.19.46a1.09,1.09,0,0,0-.07.24l-.06-.5-.12-.17h-.13S28.19,4,28.25,4Z"/><path d="M28,4h.12l.11.14v.5h.09a.86.86,0,0,1,.06-.23c.07-.21-.19-.49-.2-.5h0S28.09,4,28,4Zm.32.27a.43.43,0,0,1,0,.16h0a.45.45,0,0,0,0-.16Z"/><path d="M28.09,3.44c-.15.13.5.13.34.26a3.09,3.09,0,0,1-1,.27h-.09s-.35,0-.38-.12-.42-.46-.24-.42.54.32.53.26-.2-.17-.12-.14a3.32,3.32,0,0,0,.54-.15A.93.93,0,0,1,28.09,3.44Z"/><path d="M27.94,4.92c-.08-.4-.87-1-1.15-.85h0A2.09,2.09,0,0,1,27.94,4.92Z"/><path d="M27.81,5.1c-.09-.39-.87-1-1.15-.85h0A2.09,2.09,0,0,1,27.81,5.1Z"/><path d="M28.14,4.46c-.22-.35-1.15-.62-1.36-.39h0A2,2,0,0,1,28.14,4.46Z"/><path class="cls-1" d="M27.77,3.56h.36a.69.69,0,0,1-.44.13c-.09,0,.21-.11.21-.11Z"/><path d="M27,4.49A.09.09,0,0,1,27,4.41.07.07,0,0,1,27,4.34a.07.07,0,0,1,.07.07h0A.08.08,0,0,1,27,4.49Z"/><path d="M26.84,4.36V4.28m.13,0s-.09.08-.13.08Z"/><path d="M26.74,4.2a.07.07,0,0,1-.07-.06.07.07,0,0,1,.07-.07Z"/><path d="M26.67,4a.07.07,0,0,1,.07-.06A.06.06,0,0,1,26.8,4Z"/><path class="cls-2" d="M22.38,2.85A3.75,3.75,0,1,1,15.25,4.5a3.8,3.8,0,0,1,.39-1.68h0a4.15,4.15,0,0,0-.75,2.39,4.18,4.18,0,1,0,8.35.16,4.13,4.13,0,0,0-.76-2.48l-.11-.11Z"/><path d="M22.32,2.78v.09h0a3.71,3.71,0,0,1-6.66,3.25,3.8,3.8,0,0,1-.37-1.62,3.64,3.64,0,0,1,.39-1.65h0l-.11.08h0a4.21,4.21,0,1,0,7,0h0l-.22-.21Zm.55,1.72A3.8,3.8,0,0,0,22.55,3a4.14,4.14,0,0,1,.68,2.27,4.14,4.14,0,0,1-8.26,0,4.15,4.15,0,0,1,.49-1.95,4.06,4.06,0,0,0-.18,1.2,3.8,3.8,0,0,0,7.59,0Z"/><path class="cls-4" d="M15.69,22.46a1.15,1.15,0,0,0,.84-.35l-.11-.21c0-.08.09,0,.09,0s0,.08.09,0,0-.11,0-.11a.74.74,0,0,0-.07-.21h0l-.21.21.09.16A1,1,0,0,1,15,22l.08-.16s0-.22-.21-.21h0l-.09.21v.11s.09,0,.09,0H15l-.09.21a1.11,1.11,0,0,0,.84.35Z"/><path d="M16.42,21.68a.27.27,0,0,0-.06.17,1.38,1.38,0,0,1,.08.17A1,1,0,0,1,15,22a1.3,1.3,0,0,0,.08-.17h0a.25.25,0,0,0,0-.17.17.17,0,0,0-.14,0h0a.9.9,0,0,0-.08.21V22h0l-.09.2h0a1.11,1.11,0,0,0,.84.35h0a1.25,1.25,0,0,0,.82-.35h0l0-.32h0m.07,0h0a.14.14,0,0,0,0-.09l-.09-.2h0a.19.19,0,0,0,0,.07Zm-.07-.22a.15.15,0,0,1,.13,0h0l.09.2a.09.09,0,0,1,0,.07h-.06l.09.21h0a1.3,1.3,0,0,1-.81.35h0a1.14,1.14,0,0,1-.83-.35h0l.09-.21h0v-.1a1.08,1.08,0,0,1,.08-.19h0a.15.15,0,0,1,.13,0,.22.22,0,0,1,0,.16l-.08.17h0a.94.94,0,0,0,.72.3.91.91,0,0,0,.71-.3h0l-.08-.17A.25.25,0,0,1,16.42,21.68Z"/><rect class="cls-1" x="14.98" y="20.47" width="1.41" height="0.4"/><path d="M16.42,20.46H15v.41h1.41Zm0,0v.38H15v-.38Z"/><polyline class="cls-11" points="14.98 20.47 15.68 20.68 16.39 20.47"/><polygon class="cls-4" points="14.98 20.65 15.68 20.86 16.39 20.65 16.39 20.86 14.98 20.86 14.98 20.65"/><path d="M16.42,20.39H14.93v.89s0,.56.75.85h0a1,1,0,0,0,.74-.85Zm0,0v.88a1,1,0,0,1-.72.84c-.72-.3-.73-.83-.73-.84v-.88Z"/><path d="M16.42,20.46H15v.41h1.41v-.41Zm0,0v.38H15v-.37Z"/><path class="cls-12" d="M16.42,20.91v.4a1,1,0,0,1-.69.8h0c-.71-.29-.71-.8-.71-.8v-.4Z"/><path class="cls-13" d="M15.06,21.58h1.29v-.21a.52.52,0,0,1-.35-.31h-.19a.28.28,0,0,1-.13,0h-.11a.38.38,0,0,1-.15,0h0l-.28.24v.07H15v.17"/><path d="M16.42,20.91H15v.4s0,.53.72.8a1,1,0,0,0,.71-.8v-.4Zm0,0v.39a1,1,0,0,1-.69.78c-.69-.27-.7-.77-.7-.78v-.39Z"/><path d="M15.64,19.3h0v.87h0V19.3Zm0,0h0v.89h0v-.88h0s0,0,0,0Z"/><path class="cls-1" d="M15.69,20.39h0V20.3h-.17v.09Z"/><path d="M15.6,20.25h0v.08h.1v-.08h-.1Zm.09,0h.08v.08h-.09a.11.11,0,0,1,0-.08h0Z"/><path class="cls-1" d="M15.56,20.28h-.12a.08.08,0,0,0,.08.07h.09S15.59,20.28,15.56,20.28Z"/><path d="M15.44,20.29h0a.16.16,0,0,0,.09.09h.1v-.06h0S15.46,20.26,15.44,20.29Zm0,0h.08A.11.11,0,0,1,15.44,20.29Z"/><path class="cls-1" d="M15.42,20.3H15.3s0,.07.09,0h0Z"/><path d="M15.42,20.29h-.13a.11.11,0,0,0,.1.06h.09Zm-.12,0h.12a.11.11,0,0,1-.08,0,.12.12,0,0,1,0,.1Z"/><path class="cls-1" d="M15.82,20.28h.11a.07.07,0,0,1-.07.07h-.09S15.79,20.28,15.82,20.28Z"/><path d="M15.82,20.26h0v.07h.09a.12.12,0,0,0,.08-.09h0Zm0,.09h0m0-.06h.1a.06.06,0,0,1,0,.08Z"/><path class="cls-1" d="M16,20.3h.12s-.08.07-.09,0h0Z"/><path d="M16,20.29s-.06,0-.06.08H16a.13.13,0,0,0,.09-.07H16Zm-.06.08Z"/><path class="cls-12" d="M15.82,20.29h.08A.11.11,0,0,1,15.82,20.29Z"/><path class="cls-14" d="M15.63,19.89h0V20l-.3.14a.11.11,0,0,0-.07.09h.08l.17.11a.38.38,0,0,1,.15,0l-.11-.11h-.11l.13-.08h.17V20h0"/><path d="M15.6,19.8v.06l-.16.07L15.3,20a.17.17,0,0,0-.06.11h0l.17.11h.16l-.11-.11h-.09l.11-.08h.17v-.09H15.6Zm-.34.35h0v-.09l.16-.07c.08,0,.14,0,.14-.07v-.07h.07v.09h-.07a.17.17,0,0,0-.1,0l-.13.08h.1l.1.12h-.15S15.28,20.17,15.26,20.15Z"/><path class="cls-14" d="M15.73,19.85h0Z"/><path d="M15.65,19.85Zm0,0h.07s0,0,0,0Z"/><path class="cls-14" d="M15.73,19.86h-.08S15.74,19.88,15.73,19.86Z"/><path class="cls-14" d="M15.73,19.89h0Z"/><path class="cls-14" d="M15.72,19.92Z"/><path class="cls-14" d="M15.74,19.76h.08a1.49,1.49,0,0,0,.27.23.21.21,0,0,1,0,.11h0l-.14.14h-.16s.08-.13.11-.13.09-.06.09-.06a.22.22,0,0,1-.12-.11s0-.13-.09-.14h-.06v-.1h0"/><path d="M15.69,19.65h0v.1h.06a.16.16,0,0,0,.09.13A.16.16,0,0,0,16,20l-.09.07a.34.34,0,0,0-.09.12h.15l.16-.14h0a.17.17,0,0,0,0-.1l-.22-.18h0Zm0,0h.08l.22.19v.09h0l-.15.13H15.7a.38.38,0,0,1,.09-.13h.09a.24.24,0,0,1-.1-.1s-.06-.15-.1-.15h-.07v-.09h0Z"/><path class="cls-14" d="M15.65,19.71Z"/><path d="M15.65,19.71Zm0,0h0s.07,0,0,0Z"/><path class="cls-14" d="M15.65,19.74Z"/><path class="cls-14" d="M15.65,19.76Z"/><path class="cls-4" d="M15.72,19.62a.17.17,0,0,1,.14,0c.07,0,.2.08.23,0v-.09h-.25a.17.17,0,0,0-.14,0Z"/><path class="cls-11" d="M16.11,19.48H16v-.12h.12Z"/><path class="cls-15" d="M15.7,19.35a.24.24,0,0,1,.12,0h.11v.19h-.2A.63.63,0,0,0,15.7,19.35Z"/><path d="M15.79,19.32H15.7a.76.76,0,0,1,0,.3h0a.17.17,0,0,1,.14,0h.24v-.31h0a.28.28,0,0,1-.13,0h-.16Zm0,0a.54.54,0,0,1,.18,0h0a.13.13,0,0,0,.12,0v.3h-.23a.28.28,0,0,0-.13,0v-.1a.48.48,0,0,0,0-.17Z"/><polygon points="14.93 21.71 14.85 21.88 14.87 21.88 14.94 21.71 14.93 21.7 14.93 21.71"/><path d="M14.84,21.58v.09a.08.08,0,0,0,.08.07h0a.06.06,0,0,0,0-.06h0v.09h0V21.7h0Zm.06,0h0s0,.1,0,.1Z"/><polygon points="16.42 21.71 16.5 21.88 16.52 21.88 16.44 21.7 16.42 21.71"/><path d="M16.51,21.58h0v.06h0l-.09,0h0a.1.1,0,0,0,.12-.05h0v-.09h0Zm-.09.1h0v0Z"/><path d="M16.31,21.77h0v.07h0v-.08h0Z"/><path class="cls-1" d="M15.75,22.3v.07h-.09v-.08Zm0,0Z"/><path class="cls-1" d="M16.26,22.13h.06V22Zm0,0Z"/><path class="cls-1" d="M21.81,21.76l-.1-.08h-.08a.3.3,0,0,0-.27-.09s.09,0,.1.08a.33.33,0,0,0-.14,0h.09s.18.17.24.14h0c.06,0,.07.08.14.12h0"/><path d="M21.32,21.59h.13c.07,0,.13.11.16.09h0l0,.12h-.06a.51.51,0,0,1-.16-.09h0a.11.11,0,0,0-.08,0,.59.59,0,0,1,.25.09h.06l.11.08h0a.36.36,0,0,1-.09-.08h-.08A.32.32,0,0,0,21.32,21.59Zm.22.17Z"/><path class="cls-1" d="M22.74,21.76l.13-.08H23a.29.29,0,0,1,.25-.09.1.1,0,0,0-.09.08.38.38,0,0,1,.15,0h-.09s-.2.17-.22.14h0a.65.65,0,0,1-.14.12"/><path d="M23,21.68h-.09l-.09.08h0l.09-.08h0a.28.28,0,0,1,.23-.09h0l-.09.07-.13.07h-.13a.2.2,0,0,0,.14-.07H23A.05.05,0,0,0,23,21.68Zm0,.08Z"/><path d="M22.71,22.35l-.29-.9v.08h0a.41.41,0,0,0,0,.22c0,.07.09,0,.09,0h0v.1h.08v.08h.28v-.09s-.1,0-.12,0,0-.09,0-.09l.12-.07h.22c.08,0,.1-.14.11-.15h0a.11.11,0,0,0,0-.08h-.1v-.06h0v.06h0v.08h0v-.08h-.23a.13.13,0,0,0-.12,0h0m-.06,0h0m.06,0c0-.06-.07-.17,0-.18s0,.12.17.22.13,0,.13,0h.12c.19,0,.09-.08.09-.08.19,0,.09-.09.09-.09.19,0,.06-.1.06-.1V21.1c.21-.11,0-.11,0-.11v-.15a.38.38,0,0,0,.09-.09h-.06a.2.2,0,0,0,.09-.11h0a.86.86,0,0,0,.13-.14h0l.1-.17a.13.13,0,0,0,.06-.1c0-.08-.34.11-.43.16a1.34,1.34,0,0,0-.42.36c-.07.12,0,.22,0,.2s.07,0,0,.13a.21.21,0,0,1-.24.14h0c-.11-.07-.12-.4-.12-.45h.2V20.7h0v-.06h0v-.07h0a.09.09,0,0,1-.1,0h0a.11.11,0,0,0,.11-.11.12.12,0,0,0-.12-.12h-.06a.2.2,0,0,0,0,.29s0,0,0,0h0a.27.27,0,0,0-.26.08h-.1s0-.1.07-.1.12,0,.18.14a.68.68,0,0,1,0,.4l-.1.13a.21.21,0,0,1-.24-.14v-.33a1.82,1.82,0,0,0-.42-.36c-.09,0-.46-.24-.45-.16a.16.16,0,0,0,.08.1s-.09,0,.1.17h0a.86.86,0,0,0,.13.14h-.06a.31.31,0,0,0,.09.11h0a.2.2,0,0,0,.09.09s-.17,0,0,.15-.16,0,0,.11c0,0-.14,0,0,.12s-.13.06.06.1-.1,0,.08.09-.09.09.1.08,0,.09.12,0,0,.12.13,0,.14-.22.17-.22-.11.12,0,.18.07,0,.06,0h0a.06.06,0,0,1-.06,0h0a.11.11,0,0,0-.11,0h-.72v.08h0v-.08h0s.08,0,0-.06h0a.06.06,0,0,1,0,.06h-.12a.11.11,0,0,0,0,.08h0a.17.17,0,0,0,.12.15h.16a.15.15,0,0,0,.2,0v.09h-.13s0,.08,0,.09h.08v-.07H22v-.11h.09a.41.41,0,0,0,0-.22h0v-.07l-.3.9"/><path class="cls-1" d="M22,21.88a1.23,1.23,0,0,1,.08-.31h0l-.26.8h0"/><path d="M22.1,21.55l-.26.8h0l.26-.8h0v.36h0v-.3h0Z"/><path class="cls-1" d="M22.07,22a2,2,0,0,1,.09-.41h0s-.22.77-.22.79h0Z"/><path d="M22.12,21.58,22,22a2.07,2.07,0,0,1-.1.33h0l.1-.43.09-.41h0S22.13,21.55,22.12,21.58Zm-.19.82h0a.75.75,0,0,1,.09-.32l.14-.46h0l-.1.41h0l-.09.41Z"/><path class="cls-1" d="M22.13,21.9v-.26h0l-.18.75h0"/><path d="M22.15,21.68a3.41,3.41,0,0,1-.2.75h0l.18-.75h0v.21h0v-.21h0S22.16,21.61,22.15,21.68Z"/><path class="cls-1" d="M22.17,21.91v-.23h0L22,22.4h0"/><path d="M22.17,21.68,22,22.4h0l.17-.72h0V22h0v-.27h0Z"/><path class="cls-1" d="M22.17,21.91a2.12,2.12,0,0,1-.09.51h0v-.83h0v.29"/><path d="M22.21,21.68v0h0v.85h0v-.2l.08-.42h0l-.08.42v.09h0l.08-.57v-.17h0S22.23,21.61,22.21,21.68Z"/><path class="cls-1" d="M22.26,21.68h0s-.1.81-.1.83h0Z"/><path d="M22.26,21.68h0v.78h0v-.78Zm0,.79v-.79h0v.78h0Z"/><path class="cls-1" d="M22.51,21.88c0-.13,0-.25-.08-.31h0l.26.8h0"/><path d="M22.43,21.57l.08.31h0v-.31h0l.09.25a4.68,4.68,0,0,0,.17.53h0l-.17-.53-.09-.27h0Z"/><path class="cls-1" d="M22.48,22a1.49,1.49,0,0,0-.09-.41h0s.22.77.22.79h0Z"/><path d="M22.39,21.58V22l.09.41h0a.82.82,0,0,0-.11-.36l-.12-.42h0Zm0,0h0l.12.42.1.37h0L22.52,22l-.06-.25v-.16Z"/><path class="cls-1" d="M22.42,21.9a1.13,1.13,0,0,0,0-.26h0l.18.75h0"/><path d="M22.37,21.68h0v.2h0v-.2h0a5,5,0,0,0,.19.75h0l-.15-.75h0Z"/><path class="cls-1" d="M22.38,21.91v-.23h0l.17.72h0"/><path d="M22.34,21.68v.23h0v-.23h0l.12.48v.24h0v-.24l-.08-.48h0Z"/><path class="cls-1" d="M22.38,21.91a2.12,2.12,0,0,0,.09.51h0v-.83h0v.29"/><path d="M22.3,21.68v.26l.07.57h.07V22h0v-.32H22.3Zm.11.81-.07-.55v-.26h0v.22h0v.5h0Z"/><path class="cls-1" d="M22.29,21.68h0s.1.81.1.83h0Z"/><path d="M22.29,21.59h0v.84h0v-.84Zm0,0h0v.83h-.08v-.84Z"/><path d="M22.28,22.16h.13l-.11-.3h0l-.09.3h0a.09.09,0,0,0,.07,0h0"/><path class="cls-4" d="M21.67,21.36h-.09v.08h0Z"/><path class="cls-4" d="M21.58,21.35v-.08h.08Z"/><path class="cls-2" d="M22.28,21.4a.42.42,0,0,0,.24-.32v-.22H22v.22A.39.39,0,0,0,22.28,21.4Z"/><path class="cls-16" d="M22.5,21.19,22,20.93v-.07h0l.43.23Z"/><path class="cls-4" d="M22.43,21.28l-.4-.23v-.12l.47.26h0Z"/><polygon class="cls-2" points="22.28 21 22.29 21.05 22.33 21.02 22.3 21.06 22.34 21.06 22.3 21.09 22.34 21.1 22.29 21.1 22.3 21.14 22.28 21.1 22.25 21.14 22.26 21.1 22.21 21.1 22.25 21.09 22.2 21.06 22.25 21.06 22.23 21.02 22.26 21.05 22.28 21"/><path class="cls-1" d="M21.71,20.29a1.37,1.37,0,0,0-.23-.19v.13l.09.09h0v-.08h0a.2.2,0,0,0,0,.11h0v.12h0v.12h0v.09h.32v-.13h-.12Z"/><path class="cls-1" d="M21.44,20.07a2.35,2.35,0,0,0-.43-.19h0l.39.19Z"/><path class="cls-1" d="M21.58,20.39a5.29,5.29,0,0,0-.5-.32h0l.5.32Z"/><path class="cls-1" d="M21.58,20.39c-.14-.1-.29-.19-.44-.28h0l.43.28Z"/><path class="cls-1" d="M21.58,20.56l-.32-.17h0l.33.22Z"/><path class="cls-1" d="M21.58,20.63l-.18-.08s-.13-.11-.14-.08a.35.35,0,0,0,.11.1l.21.07Z"/><path class="cls-1" d="M21.58,20.72h-.14s-.14-.08-.16,0l.16.07S21.58,20.74,21.58,20.72Z"/><path class="cls-1" d="M21.65,20.78h0Z"/><path class="cls-1" d="M21.67,20.83h-.28a.14.14,0,0,0,.09,0h.19Z"/><path class="cls-1" d="M21.71,20.9h-.28a1.31,1.31,0,0,0,.28,0Z"/><path class="cls-1" d="M21.76,20.93l-.17.08h0S21.79,21,21.76,20.93Z"/><path class="cls-1" d="M21.81,21l-.16.13h0S21.84,21,21.81,21Z"/><path class="cls-1" d="M21.89,21a1,1,0,0,1-.23.22h0l.2-.18Z"/><path class="cls-1" d="M22,21l-.11.14-.1.08s.09,0,.11-.08A.37.37,0,0,0,22,21S22,21,22,21Z"/><path class="cls-2" d="M21.81,20.2h.09a.34.34,0,0,1,.2,0c.07,0,.23,0,.25.13s0,.24-.07.21-.15-.19-.18-.22a.15.15,0,0,0-.16,0v.09a.14.14,0,0,1,0-.09.11.11,0,0,1,.13,0,1.27,1.27,0,0,0,.21.14l-.09-.13a.19.19,0,0,0-.26,0Z"/><path class="cls-2" d="M22.23,20a.19.19,0,0,1-.08-.15.1.1,0,0,1,.11-.1h0v.05h0m0,.09h.09a.09.09,0,0,0,0-.12l0,0a.11.11,0,0,0-.13,0,.21.21,0,0,0,0,.28h0Z"/><path class="cls-2" d="M22.25,19.88Z"/><path class="cls-4" d="M22.42,20.19h-.08S22.42,20.17,22.42,20.19Z"/><path d="M21.7,21.39Z"/><path class="cls-2" d="M22,21.59Z"/><path class="cls-2" d="M21.89,21.68Z"/><polygon class="cls-2" points="22.02 21.52 22.01 21.53 22.01 21.53 22.02 21.52"/><polygon class="cls-2" points="21.89 21.73 21.88 21.76 21.89 21.76 21.89 21.73"/><path class="cls-2" d="M21.81,21.77h0v.08h0Z"/><path class="cls-2" d="M21.89,21.76Z"/><path class="cls-2" d="M21.71,21.81Z"/><path class="cls-2" d="M21.83,21.61Z"/><path class="cls-2" d="M22,21.53h0v.18s-.07,0,0,0h0A.5.5,0,0,0,22,21.53Z"/><path class="cls-2" d="M22,21.75s.06,0,0-.07h0v.07Z"/><path class="cls-2" d="M21.84,21.5a.29.29,0,0,0-.13,0h.13Z"/><path class="cls-2" d="M21.67,21.51h-.13m0-.07v.07m0-.06h0s.12.08.13.06Z"/><path class="cls-2" d="M21.58,21.42h0v.08h0Z"/><path class="cls-2" d="M21.46,21.48a.09.09,0,0,1,0-.07h0v.07Z"/><path class="cls-2" d="M21.4,21.39h0a.06.06,0,0,0-.08,0h.08Z"/><path d="M23,21.68h0a.06.06,0,0,0-.06-.06Z"/><path class="cls-4" d="M22.87,21.35v-.08h0Z"/><path class="cls-1" d="M22.87,20.29a1.37,1.37,0,0,1,.23-.19.17.17,0,0,1-.06.13l-.09.09h0a.11.11,0,0,1,0-.08h0a.71.71,0,0,1-.08.15h0v.12h0v.12h0v.09h-.32v-.13h.13Z"/><path class="cls-1" d="M23.11,20.07a2.35,2.35,0,0,1,.43-.19h0l-.39.19Z"/><path class="cls-1" d="M22.93,20.39c.17-.11.33-.22.51-.32h0l-.48.31Z"/><path class="cls-1" d="M23,20.39a3.29,3.29,0,0,1,.44-.28h0l-.43.28Z"/><path class="cls-1" d="M22.93,20.56l.37-.23h0l-.34.22Z"/><path class="cls-1" d="M23,20.63l.18-.08s.13-.11.14-.08a.32.32,0,0,1-.13.1l-.19.07S23,20.63,23,20.63Z"/><path class="cls-1" d="M22.93,20.72h.15s.14-.08.14,0-.11,0-.14.07S22.87,20.74,22.93,20.72Z"/><path class="cls-1" d="M22.87,20.78h0Z"/><path class="cls-1" d="M22.87,20.9h.28a1.31,1.31,0,0,1-.28,0Z"/><path class="cls-1" d="M22.79,20.93,23,21h.1A.11.11,0,0,1,23,21S22.77,21,22.79,20.93Z"/><path class="cls-1" d="M22.74,21l.17.13h0S22.71,21,22.74,21Z"/><path class="cls-1" d="M22.66,21a1.26,1.26,0,0,0,.24.22h0L22.69,21Z"/><path class="cls-1" d="M22.6,21l.11.14.11.08s-.09,0-.12-.08-.1-.11-.11-.13S22.59,21,22.6,21Z"/><path class="cls-1" d="M22.28,21.49c.11,0,.25-.12.28-.12h0s-.18.13-.23.12h0l-.23-.12h0A.22.22,0,0,0,22.28,21.49Z"/><path d="M22.51,21.3h0l-.22.11-.23-.11h0a.38.38,0,0,0,.51,0h-.06Zm-.54,0h0c.09,0,.19.11.23.1l.22-.1h0v.06h0a.62.62,0,0,1-.26.12.62.62,0,0,1-.26-.12h0Z"/><path class="cls-2" d="M22.59,21.59Z"/><path class="cls-2" d="M22.66,21.68Z"/><polygon class="cls-2" points="22.64 21.71 22.65 21.72 22.65 21.73 22.64 21.71"/><polygon class="cls-2" points="22.53 21.52 22.55 21.53 22.55 21.53 22.53 21.52"/><polygon class="cls-2" points="22.66 21.73 22.68 21.76 22.66 21.76 22.66 21.73"/><path class="cls-2" d="M22.74,21.77h0a.11.11,0,0,1,0,.08h0Z"/><path class="cls-2" d="M22.66,21.76Z"/><path class="cls-2" d="M22.73,21.61Z"/><path class="cls-2" d="M22.52,21.53h0v.18s.07,0,0,0h0s0,.08-.06,0S22.5,21.68,22.52,21.53Z"/><path class="cls-2" d="M22.59,21.75s-.07,0,0-.07h0v.07Z"/><path class="cls-2" d="M22.71,21.5a.28.28,0,0,1,.13,0h-.13Z"/><polygon class="cls-2" points="22.7 21.48 22.7 21.5 22.69 21.5 22.7 21.48"/><path class="cls-2" d="M22.62,21.55h0a.09.09,0,0,1,0,.07h0Z"/><path class="cls-2" d="M22.87,21.55a.28.28,0,0,0,0,.13h0Z"/><path class="cls-2" d="M22.87,21.51H23s0-.06,0-.07v.07a.06.06,0,0,0,0-.06h0S22.87,21.53,22.87,21.51Z"/><path class="cls-2" d="M23,21.42h0a.11.11,0,0,1,0,.08h0Z"/><path class="cls-2" d="M23.09,21.48a.09.09,0,0,0,0-.07h0v.07Z"/><path class="cls-2" d="M23.15,21.39h0a.11.11,0,0,1,.08,0h-.08Z"/><polygon class="cls-1" points="22.24 22.15 22.26 21.82 22.25 21.82 22.24 22.15"/><polygon class="cls-1" points="22.29 21.82 22.3 22.15 22.3 21.82 22.29 21.82"/><polygon class="cls-1" points="22.17 22.15 22.23 21.82 22.21 21.82 22.17 22.15"/><polygon class="cls-1" points="22.12 22.15 22.19 21.82 22.19 21.82 22.12 22.15"/><polygon class="cls-1" points="22.07 22.13 22.08 22.13 22.15 21.81 22.07 22.13"/><polygon class="cls-1" points="22.02 22.12 22.11 21.8 22.1 21.8 22.02 22.12"/><polygon class="cls-1" points="21.97 22.09 21.97 22.11 22.06 21.8 21.97 22.09"/><polygon class="cls-1" points="22.33 21.82 22.37 22.15 22.34 21.82 22.33 21.82"/><polygon class="cls-1" points="22.37 21.82 22.42 22.15 22.37 21.82 22.37 21.82"/><polygon class="cls-1" points="22.48 22.13 22.48 22.13 22.41 21.81 22.48 22.13"/><polygon class="cls-1" points="22.44 21.8 22.52 22.12 22.46 21.8 22.44 21.8"/><polygon class="cls-1" points="22.57 22.11 22.59 22.09 22.5 21.8 22.57 22.11"/><path class="cls-1" d="M22.28,22a1.07,1.07,0,0,0,.49-.09h0a1.59,1.59,0,0,1-.38.07,1.21,1.21,0,0,1-.37-.07h0a1,1,0,0,0,.49.09Z"/><path d="M22.28,21.86a1.21,1.21,0,0,1-.38-.06h0a1.4,1.4,0,0,0,.49.08h0a1.33,1.33,0,0,0,.49-.08h0A1,1,0,0,1,22.28,21.86Zm-.4,0h0a.9.9,0,0,0,.74,0h0a.94.94,0,0,1-.47.09h0a1,1,0,0,1-.49-.09h.22Z"/></svg>