<svg id="Layer_2" data-name="Layer 2" xmlns="http://www.w3.org/2000/svg" width="12.17mm" height="10.88mm" viewBox="0 0 34.49 30.85"><defs><style>.cls-1{fill:#fff;}.cls-2{fill:#fce82b;}.cls-3{fill:#eb6549;}.cls-4{fill:#ea2d2e;}.cls-5{fill:#009d53;}.cls-6{fill:#9e9b80;}.cls-7{fill:#f0922f;}.cls-8{fill:none;}.cls-9{fill:#00a8de;}.cls-10{fill:#a5584a;}.cls-11{fill:#009eda;}.cls-12{fill:#00b1e0;}.cls-13{fill:#0072b5;}.cls-14{fill:#f5ddbf;}.cls-15{fill:#00a9db;}.cls-16{fill:#231f20;}</style></defs><path class="cls-1" d="M21.41,9.91a.37.37,0,0,1-.15-.33.31.31,0,0,1,.13-.25,1,1,0,0,1,.77-.45c.49,0,.84-.62,1.38-.77a2.92,2.92,0,0,1,1.54.28c.37.13.53,0,.53,0l-.29-.77a2.09,2.09,0,0,0-.89-.19c-.22.07-.21-.49-.18-.67a.64.64,0,0,1,.15-.31l.15.2a3,3,0,0,0,.52-.1c.15,0,0-.55-.15-.62a.44.44,0,0,0-.32,0h-.32v.22s-.49-.37-.52-.67-.07-.55-.07-.55l-.18-.27A.89.89,0,0,1,24,4.53c.17,0,.56-.32.71-.29A4.08,4.08,0,0,0,25.6,4c.12,0,.59.28.74.3a2.27,2.27,0,0,0,1,0s.11.32-.2.36a3,3,0,0,1,1.14,1.32l.22.17v.27a2.6,2.6,0,0,1,.28.61,7.33,7.33,0,0,1,.71.76,18,18,0,0,0,.4,2.73,4.37,4.37,0,0,0,.84,1.92,5,5,0,0,1,1.34,2,.85.85,0,0,0,.81-.91.78.78,0,0,0-.12-.39c-.49-1.14-1.49-1.84-1.49-3s1-2.86,1.57-2.38S31.89,9,32,10a7.94,7.94,0,0,0,1.39,2.75,1.79,1.79,0,0,1-.51,2.47,1.82,1.82,0,0,1-.93.29s-.28.17-.08.56-.13.38,0,.61a2.68,2.68,0,0,0,.4.79c.12.11,0,.47.06.59s0,.38,0,.55-.31.42-.27.62a1.18,1.18,0,0,1-.29.8c-.15.09-.38.22-.35.49s-.25.07-.47.4-.4.32-.38.49a.54.54,0,0,1-.32.5,1.33,1.33,0,0,0-.3.23l-2-.58s.17-.48.44-.58a8.83,8.83,0,0,1,1-.16c.1,0,1.13-1.94.89-2.61s-1.25-1.07-1.46-1.59a2.92,2.92,0,0,1-.21-1.24,3,3,0,0,0,.21,1.22c.2.25-.35.66-.35,1.13a2.23,2.23,0,0,0,.17,1.14L28,19a1.09,1.09,0,0,1-.27.33,4,4,0,0,1-.58-.14c-.18,0-.32.16-.42.16s-.25-.2-.35-.16-.15.21-.28.16-1.13-.7-1.63-.6-.29-.83-.72-1.06c-.2-.11-.18-.13-.18-.13L23.77,16a1.72,1.72,0,0,1,.64.43c.12.22.22.85.62,1.13a2.37,2.37,0,0,0,1.64.08c.5-.1,0-1.27-.13-1.51a2.09,2.09,0,0,1,.6-2.66A8.43,8.43,0,0,1,26,11.38c-.27-.92-.4-.57-.52-.57s-1-1.13-1.24-1.26a.87.87,0,0,0-.9.15c-.06.15-.14.17-.14.17Z"/><path d="M25.63,4a3.19,3.19,0,0,1-.86.27.73.73,0,0,0-.35.15c-.13.08-.3.18-.37.16a.86.86,0,0,0-.51.12h0l.2.31a2.39,2.39,0,0,1,.06.53c0,.31.53.69.55.7l.09.06L24.37,6h.29a.26.26,0,0,1,.27,0,.73.73,0,0,1,.19.47h0a3.86,3.86,0,0,1-.49.09l-.16-.21h0a.91.91,0,0,0-.17.34,1.44,1.44,0,0,0,.11.68.11.11,0,0,0,.13,0,1.93,1.93,0,0,1,.78.25l.26.75a.72.72,0,0,1-.46,0H25a2.57,2.57,0,0,0-1.45-.22,2,2,0,0,0-.68.39,1.3,1.3,0,0,1-.69.37,1,1,0,0,0-.77.42h0a.4.4,0,0,0,0,.63h1.73a.39.39,0,0,0,.18-.2.83.83,0,0,1,.82-.12,5.39,5.39,0,0,1,.53.54c.49.55.66.73.74.73h.19c.08,0,.19.24.29.6a8,8,0,0,0,1.13,2.09,2.26,2.26,0,0,0-.85,1.7,2.13,2.13,0,0,0,.27,1,2.85,2.85,0,0,1,.34,1.14.34.34,0,0,1,0,.2.17.17,0,0,1-.15.12,2.29,2.29,0,0,1-1.61-.07,1.62,1.62,0,0,1-.5-.83,1.08,1.08,0,0,0-.1-.27,1.73,1.73,0,0,0-.67-.45h-.05l-.15,1.58.19.17a1,1,0,0,1,.3.56c.05.23.12.57.45.51a3.12,3.12,0,0,1,1.47.51l.14.08c.11,0,.17,0,.23-.08a.18.18,0,0,1,.08-.07.23.23,0,0,1,.16.07.38.38,0,0,0,.17.08.35.35,0,0,0,.17-.06.34.34,0,0,1,.24-.09l.23.07a.76.76,0,0,0,.37.06.79.79,0,0,0,.28-.32l.7-.11h0A2.33,2.33,0,0,1,28.6,18a1.74,1.74,0,0,1,.24-.77.6.6,0,0,1,.09-.22,2.72,2.72,0,0,0,.61.61,2.33,2.33,0,0,1,.78.87.45.45,0,0,1,0,.23,5.73,5.73,0,0,1-.9,2.27h-.21a4.58,4.58,0,0,0-.81.14c-.28.11-.46.58-.46.61h0l2,.59h0a1.29,1.29,0,0,1,.3-.22.61.61,0,0,0,.34-.49v-.08a.18.18,0,0,1,.1-.14,1.42,1.42,0,0,0,.26-.29.46.46,0,0,1,.31-.2c.08,0,.17,0,.17-.2v-.06a.5.5,0,0,1,.3-.4h0a1.28,1.28,0,0,0,.33-.76v-.08h0a.53.53,0,0,1,.13-.27.65.65,0,0,0,.14-.29v-.08a.43.43,0,0,1,0-.16v-.16a.31.31,0,0,0,0-.19.13.13,0,0,1,0-.12v-.28a.25.25,0,0,0-.07-.2,2.87,2.87,0,0,1-.37-.77.12.12,0,0,1,0-.16.49.49,0,0,0,.08-.21.68.68,0,0,0-.11-.33.79.79,0,0,1-.08-.26.35.35,0,0,1,.13-.26,1.93,1.93,0,0,0,1.58-1,1.7,1.7,0,0,0,.16-.74,2.14,2.14,0,0,0-.28-1.05c-.09-.16-.21-.33-.35-.54a5.7,5.7,0,0,1-1.13-2.2V10a2.22,2.22,0,0,1,.55-1.14,1.41,1.41,0,0,0,.4-.75.32.32,0,0,0-.15-.28.39.39,0,0,0-.44,0A3.28,3.28,0,0,0,31.1,10.3a3.13,3.13,0,0,0,.79,1.83,7.48,7.48,0,0,1,.71,1.14,1.18,1.18,0,0,1,.11.5.76.76,0,0,1-.08.33,1,1,0,0,1-.66.42,5.31,5.31,0,0,0-1.34-2,3.12,3.12,0,0,1-.7-1.45l-.07-.6a9.5,9.5,0,0,1-.17-2.06,5.8,5.8,0,0,0,0-.59,7.78,7.78,0,0,0-.77-.75,2.88,2.88,0,0,0-.27-.59l0-.29L28.37,6a2.94,2.94,0,0,0-1.14-1.28.22.22,0,0,0,.12-.09.43.43,0,0,0,0-.16V4.35h0a2.66,2.66,0,0,1-.93,0h0a1.55,1.55,0,0,1-.29-.14C25.88,4,25.72,4,25.63,4Zm0,.08a1.15,1.15,0,0,1,.41.17,1.27,1.27,0,0,0,.32.13h0a1.83,1.83,0,0,0,.93,0v.07a.24.24,0,0,1,0,.12.3.3,0,0,1-.16.08h0a2.75,2.75,0,0,1,1.14,1.29h0l.21.17v.27h0a3.09,3.09,0,0,1,.36.7h0a7.33,7.33,0,0,1,.71.76v.55a9.1,9.1,0,0,0,.21,2.09l.13.45a3.26,3.26,0,0,0,.73,1.49,4.68,4.68,0,0,1,1.32,2h0a1.13,1.13,0,0,0,.76-.46,1.11,1.11,0,0,0,0-.91A6.83,6.83,0,0,0,32,11.89a3.09,3.09,0,0,1-.77-1.78,3.25,3.25,0,0,1,1.14-2.39.3.3,0,0,1,.36,0c.24.21,0,.48-.27.92A2.16,2.16,0,0,0,31.87,10,5.58,5.58,0,0,0,33,12.24c.14.21.27.39.35.53a2,2,0,0,1,.12,1.72,1.87,1.87,0,0,1-1.53,1h0s-.31.19-.09.62c.1.21,0,.29,0,.36a.2.2,0,0,0-.06.23,3.43,3.43,0,0,0,.41.81c.06.06,0,.17,0,.29a.39.39,0,0,0,0,.3.39.39,0,0,1,0,.3,1,1,0,0,0,0,.24.46.46,0,0,1-.13.23c-.06.08-.18.27-.14.38a1.13,1.13,0,0,1-.29.76h0a.6.6,0,0,0-.33.48v.08c0,.06,0,.08-.11.1a.52.52,0,0,0-.35.23,1.27,1.27,0,0,1-.25.27c-.08.08-.14.12-.14.21h0a.54.54,0,0,1-.31.42,2,2,0,0,0-.29.22L28,21.43a.79.79,0,0,1,.4-.51,5.21,5.21,0,0,1,.79-.13h.23c.07,0,.23-.32.33-.5a5.55,5.55,0,0,0,.64-1.9,1.13,1.13,0,0,0,0-.26,2.59,2.59,0,0,0-.81-.9,2.24,2.24,0,0,1-.64-.66h0a.11.11,0,0,0,0-.08h0a2.85,2.85,0,0,1-.17-.83v-.34h-.09v.33a1.93,1.93,0,0,0,.18.88h0a1.36,1.36,0,0,1-.11.28,2.07,2.07,0,0,0-.25.81h0a2.72,2.72,0,0,0,.15,1.13l-.6.11h0a.81.81,0,0,1-.25.3.65.65,0,0,1-.31-.05L27.2,19a.49.49,0,0,0-.31.09l-.12.05a.31.31,0,0,1-.13-.06c-.08-.06-.15-.12-.23-.08a.27.27,0,0,0-.12.09c0,.05-.08.08-.12.05L26,19.11a3.18,3.18,0,0,0-1.52-.52c-.24,0-.3-.14-.36-.44a.89.89,0,0,0-.33-.62l-.16-.09L23.8,16a1.33,1.33,0,0,1,.57.39.82.82,0,0,1,.1.26,1.74,1.74,0,0,0,.54.86,2.24,2.24,0,0,0,1.67.09.25.25,0,0,0,.2-.17c.17-.35-.18-1.2-.3-1.41a2,2,0,0,1,.59-2.6h0A8.41,8.41,0,0,1,26,11.3c-.14-.52-.26-.62-.33-.66a.25.25,0,0,0-.17,0h0a4.92,4.92,0,0,1-.68-.69c-.18-.13-.37-.26-.56-.37a.68.68,0,0,0-.56,0,.47.47,0,0,0-.39.21.33.33,0,0,1-.13.15H21.41a.34.34,0,0,1-.13-.25h0a.35.35,0,0,1,.12-.23h0a.89.89,0,0,1,.7-.38,1.4,1.4,0,0,0,.74-.39,2,2,0,0,1,.71-.48,2.64,2.64,0,0,1,1.39.23h.13a.77.77,0,0,0,.56,0h0l-.28-.84h0a1.94,1.94,0,0,0-.92-.18h0A.66.66,0,0,1,24.35,7a.74.74,0,0,1,0-.21.6.6,0,0,1,.1-.25l.14.17h0a2.36,2.36,0,0,0,.53-.1.13.13,0,0,0,.08-.12A.78.78,0,0,0,25,5.92a.36.36,0,0,0-.35,0h-.36v.16c-.14-.13-.4-.38-.41-.57A5.39,5.39,0,0,0,23.77,5h0l-.14-.14A.64.64,0,0,1,24,4.7a.73.73,0,0,0,.43-.16c.12-.06.24-.14.3-.13a3.67,3.67,0,0,0,.91-.33Z"/><path class="cls-2" d="M21.82,9.85l1.28.06s.22-.35.35-.35.49-.14.6,0,.47.19.58.27.33,0,.39.14.09.32.24.36a3,3,0,0,1,.63.07c.12.08.4.13.5.3a3.71,3.71,0,0,1,.47.82c0,.18.32.4.4.59s0,.37.07.51a5.5,5.5,0,0,1,.72,1.06c.1.28.34.61.37.75s0,.52.21.67.29.64.34.79,0,.43.16.52a.87.87,0,0,1,.31.4c0,.1.21.27.27.33a6.47,6.47,0,0,0,.43.51,1.51,1.51,0,0,1,.41.75,2.46,2.46,0,0,0-.06.66,1.59,1.59,0,0,1-.2.53c0,.07-.08.23-.14.42s-.26.3-.4.52-.21.43-.37.45-.92,0-1,.2,1.35.33,1.45.27a6.07,6.07,0,0,0,.69-.75c.21-.27,0-.69.27-.88s.18-.44.14-.65a.84.84,0,0,1,.08-.41s-.08-.77-.19-.84.06-.71-.12-.87a8.79,8.79,0,0,1-.7-.66,9.58,9.58,0,0,1-.82-1.67,4.66,4.66,0,0,0-.52-1.34,5.59,5.59,0,0,1-.32-1c-.08-.19-.23-1.08-.42-1.23s-.22-.76-.56-1a5.86,5.86,0,0,0-1.21-.7A10.07,10.07,0,0,1,24.35,9,2,2,0,0,0,23,9a2.79,2.79,0,0,1-1,.39c-.16,0-.64.15-.65.28S21.82,9.85,21.82,9.85Z"/><path class="cls-2" d="M24.87,10.26l.3.37a2,2,0,0,1-.39.33,2.6,2.6,0,0,0-.58.23.62.62,0,0,1-.29.12v-.44s0-.29.18-.29A3.55,3.55,0,0,0,24.87,10.26Z"/><path class="cls-2" d="M28,15l.44,1.08a4.7,4.7,0,0,0-.33.91,1.23,1.23,0,0,1,0,.54,6.47,6.47,0,0,0-.05.76c0,.26-.2.3-.4.43s-.3.11-.47.22-.78-.18-.94-.11a2.67,2.67,0,0,1-.93-.11c-.23,0-.46-.3-.6-.2s-.53-.29-.55-.38a1.1,1.1,0,0,0-.34-.4,4.26,4.26,0,0,1-.16-.79s1.22,1,1.42,1.19a4.08,4.08,0,0,0,1.86.28c.39-.07.63-.68.62-1a11.21,11.21,0,0,1,.07-1.83A1.33,1.33,0,0,1,28,15Z"/><path class="cls-2" d="M24.76,5.68s.48-.51.62-.36a1.27,1.27,0,0,1,.37.86,5.27,5.27,0,0,1-.23,1c-.06.24.33,0,.41.09a3.73,3.73,0,0,0,.44.45c.15.13,0,.52-.2.6l-.47.13-.18-.8s-.65-.4-.82-.35-.21-.32-.17-.4.63-.12.72-.4S24.93,5.63,24.76,5.68Z"/><path class="cls-3" d="M24.24,9.64l.6.65a3,3,0,0,1-.75.47h-.22v-1Z"/><path class="cls-3" d="M21.25,9.51a1.57,1.57,0,0,0,.61-.06l.43-.22a3.51,3.51,0,0,0-.37.4c-.08.13.62-.18.84-.35s.17.15.1.27.13.23.21.08.64-.72.88-.72,1.07.14,1.22.6c0,0,.2.36.35.4s.65-.38.79-.38.32-.1.3,0-.12.3,0,.4.48-.1.48.18a2.33,2.33,0,0,0,.17.69c0,.17,0,.28.1.34s.3,0,.3.18a.93.93,0,0,0,.06.43c.07.12.29.19.23.31s0,.21.1.36.22.22.17.42-.08.34,0,.47.25.22.23.37a1,1,0,0,0,.2.5c.07.1.25.25.22.37s.08,0,.18.17a.67.67,0,0,1,.15.38.61.61,0,0,0,.1.37c.07.07-.05.11.09.22s.36,0,.36.14.19.33.12.46a.39.39,0,0,0,.07.4c.08.06-.09.27,0,.36s.29.06.32.18.25.07.19.25a.37.37,0,0,0,.06.4,1.42,1.42,0,0,1,.29.59c0,.1,0,2.19-1,2.74-.54.29-1.48-.11-1.67,0s-.06.11-.23.37l1.91.57s.52-.24.56-.39,0-.31.07-.42a4,4,0,0,1,.52-.49,1.73,1.73,0,0,0,.27-.15.85.85,0,0,1,.08-.39,1.12,1.12,0,0,0,.59-1c0-.34.36-.36.33-.8l-.05-.57v-.37s-.38-.69-.45-.86.13-.38.13-.38l-.1-.65a8.72,8.72,0,0,0,.14-1.31,5.55,5.55,0,0,0-1.42-2.12,6.36,6.36,0,0,1-.79-2c-.09-.4-.15-2.27-.15-2.27a4.3,4.3,0,0,0-.68-.85l-.27-.62v-.2l-.2-.17a3.37,3.37,0,0,0-1.27-1.35l-.77-.47L25.71,4a5.3,5.3,0,0,1-.88.28,1.25,1.25,0,0,0-.53.19,1.4,1.4,0,0,1-.26.16,3.74,3.74,0,0,0,.49.32c.09,0,1,.37,1,.61s.61.73,0,1.28.08.39.16.44.42,0,.44.17a3.06,3.06,0,0,1,.08.8c-.06.15-.38.18-.58.18a2.3,2.3,0,0,1-1.14-.31,2.48,2.48,0,0,0-.94,0c-.32.13-.74.56-1.26.77-.15.07-.35,0-.58.15A1.32,1.32,0,0,0,21.25,9.51Z"/><path class="cls-3" d="M27.13,13.55a17,17,0,0,1,1,1.9c0,.26-.27,1.72-.25,2s-.07.84-.25.92a2.46,2.46,0,0,1-.91.24A5,5,0,0,1,24.62,18c-.32-.24-.75-1-.94-1l.07-.88s.55.19.6.34a4,4,0,0,0,.55,1.13,2.16,2.16,0,0,0,1.65.18c.75-.14-.24-1.8-.29-2.28A2.06,2.06,0,0,1,27.13,13.55Z"/><path class="cls-3" d="M31.87,15.44l.15-1s.67-.11.75-.56a3.12,3.12,0,0,0-.84-1.93,3.06,3.06,0,0,1-.75-2c.12-.75.77-2.63,1.56-2.22.62.33-.68,1.51-.77,1.84a3.05,3.05,0,0,0,.69,2.07,4.5,4.5,0,0,1,1,1.69c0,.41.35,1.81-1.74,2.27Z"/><path d="M26.8,4.44l-.61.1s-.27-.12-.27,0v.2a.23.23,0,0,0-.28.11.17.17,0,0,1-.23.1h0a2.55,2.55,0,0,0,.3-.5c0-.09.3-.21.3-.21h.29Z"/><path d="M25.42,7.92a.48.48,0,0,0,.35-.25c.09-.23.17-.47.32-.55s.42-.12.5-.22.25-.43.15-.62a3.87,3.87,0,0,1-.29-.87,1,1,0,0,1,0-.34l.4.71a.9.9,0,0,1,.2.63,1.23,1.23,0,0,1-.44.66c-.23.18-.52.15-.54.37a1,1,0,0,1-.65.82Z"/><path d="M25.32,7.62s.25-.4.35-.42.25-.13.44-.2.32-.32.27-.42-.14-.38,0-.42a.69.69,0,0,0,.22-.23h-.34a3.09,3.09,0,0,0,0-.43,1.74,1.74,0,0,0-.08-.3,2.53,2.53,0,0,0-.09.78,2.15,2.15,0,0,1-.27.73.88.88,0,0,1-.33.25s.2-.31.12-.31-.33.31-.33.31-.17.28-.32.3H24.6Z"/><path d="M25.67,8.44a.56.56,0,0,0,0,.36,2.21,2.21,0,0,1-.1,1.14c-.15.12-.13-.13-.13-.23a2.46,2.46,0,0,0-.12-.93,1,1,0,0,0-.42-.22s-.18.6-.45.72,0-.25,0-.4.13-.44,0-.49-.29-.32-.38-.3a3.45,3.45,0,0,0,.46,0s.38.1.52.16Z"/><path d="M23.87,9.88h0V12h0a2.35,2.35,0,0,1,.72-.24.34.34,0,0,1,.2,0H25a.47.47,0,0,1,.11-.31l.42-.36h0a1.13,1.13,0,0,1-.45-.47,3.09,3.09,0,0,0-.33-.39,2.79,2.79,0,0,1-.37-.4.15.15,0,0,0-.11-.08C24.18,9.67,23.87,9.88,23.87,9.88Zm.41-.15a.09.09,0,0,1,.08.06,3.79,3.79,0,0,0,.38.42,2.76,2.76,0,0,1,.31.37,1.3,1.3,0,0,0,.46.47c-.08.06-.33.29-.4.35a.61.61,0,0,0-.14.33H24.6a2.4,2.4,0,0,0-.7.23v-2S24.18,9.71,24.28,9.73Z"/><path d="M23.85,9.87l.35-.21.45.39-.2.07s-.08-.11-.1,0,.2.46.23.6-.3-.39-.4-.52-.1-.08-.17,0,.07.44-.06.44-.1-.27-.1-.27Z"/><path d="M23.91,11.73a2.36,2.36,0,0,0,.69-.19,3.29,3.29,0,0,1,.77-.5c.09,0,.17.18.17.18a.44.44,0,0,0-.46.24c-.09.19,0,.3-.14.3s-.32-.09-.49,0l-.58.22Z"/><path d="M25.32,10.72s.42.11.47-.2.09-.72.2-.72,0,1,0,1.14.62-.1.89-.29.72-.17.74,0-.42.2-.51.25-.08.3-.23.35-.52.15-.47.27a1.15,1.15,0,0,0,.42.58,2,2,0,0,0,1.06-.28c.16-.1.16,0,.08.12a1.36,1.36,0,0,1-1,.45c-.34,0,.18.67.33.77a1,1,0,0,0,1.14-.35c.37-.47.27-.07.25,0s-.57.47-.65.57.13.13,0,.21a.29.29,0,0,0-.15.19s.48.15.4.37-.52.11-.5.21a6.87,6.87,0,0,0,.33.69c.08.16,0,.36.09.52s-1-1.61-1-1.76A16.68,16.68,0,0,1,26,11.62s-.28-.37-.42-.33S25.32,10.72,25.32,10.72Z"/><path d="M26.63,14.1a1.55,1.55,0,0,0-.37,1.13,3.71,3.71,0,0,0,.4,1.39,1.63,1.63,0,0,1,.12,1c-.09.18-.94.29-1.26.22a2.28,2.28,0,0,1-.52-.18,2.3,2.3,0,0,0,.32.38c.1.08.47.15.39,0s.38,0,.43.1.39.12.35,0a.27.27,0,0,1,.44-.24c.24.21.43.22.43.09s-.33-.52-.35-.65.35,0,.46.06.53.1.56,0-.83-.33-.9-.48,0-.17.13-.19-.17-.37-.23-.5.33,0,.47,0,.43.13.43,0c-.26-.2-.52-.39-.8-.57a4.87,4.87,0,0,1-.27-.44s0-.5.17-.27a1.75,1.75,0,0,0,.65.46c.17.11-.27-.44-.35-.5s-.13-.31-.27-.36-.32-.2-.28-.33a2.13,2.13,0,0,0,.1-.42Z"/><path d="M25.84,7.92a1.42,1.42,0,0,1,.54-.08c.15,0,.48-.22.53-.37s.13-.46.18-.7.19-.22.38-.3a.78.78,0,0,0,.44-.29,1.84,1.84,0,0,0-.31-.65,8.48,8.48,0,0,0-.9-.79h.41a4.75,4.75,0,0,1,.94.81,2.69,2.69,0,0,0,.34.57.59.59,0,0,1,.17.25,3.35,3.35,0,0,0,.19.53,2,2,0,0,1,.19.28c0,.07-.27,0-.42,0a1.09,1.09,0,0,0-.55.51c-.06.2-.14.48-.35.55s-.56-.13-.84,0-.82.08-1.23.09l.23-.22,1-.1a2,2,0,0,0,.67-.1,1.29,1.29,0,0,0,.37-.64.67.67,0,0,1,.37-.42h.24l-.14-.3s-.7.15-.8.38a6.59,6.59,0,0,0-.34.71c0,.15-.31.36-.42.38S25.92,7.84,25.84,7.92Z"/><path d="M29,7.22l.17.28s-.65.1-.74.27a1.17,1.17,0,0,0-.12.52c0,.17-.25.2-.25.2a3,3,0,0,1,0-.6,1,1,0,0,1,.32-.45Z"/><path d="M29.19,7.52A3.2,3.2,0,0,0,28.5,8a1.85,1.85,0,0,1-.63.55,1.9,1.9,0,0,0-.69.46,2,2,0,0,1-.72.56.27.27,0,0,0-.22.15,3.42,3.42,0,0,1,.64,0,1,1,0,0,0,.71-.41c.07-.15.46-.72.6-.67s.41-.48.59-.58.35-.36.42-.22a1,1,0,0,1,0,.55c0,.08-.23,0-.52.15s-.57.14-.7.31a1.7,1.7,0,0,0-.28.61c0,.14.16.14.16.14a1.49,1.49,0,0,1,.29-.5c.15-.1.38-.31.6-.29h.47a.22.22,0,0,1,0,.27c-.1.13-.42.16-.6.31s-.59.42-.69.65.3.14.3.14.47-.43.62-.43a.9.9,0,0,0,.4,0c.14,0,.07.35,0,.48s-.62.15-.82.15a1,1,0,0,0-.65.25c-.15.17.58,0,.75.06s.65-.09.67,0a3.92,3.92,0,0,1-1.24.4c-.12,0-.3.1-.3.18s.54,0,.72,0,.87-.25,1-.18-.72.5-.92.58-.24.15-.17.22.75-.15.75-.15a.91.91,0,0,1,.46-.1c.15.05-.17.37-.4.47s-.49.13-.49.23.35.09.47.07a1.77,1.77,0,0,0,.63-.27c.19-.25.36.1.34.2s-.89.36-1.14.74-.18.4-.15.5-.2.23-.15.37.35-.12.35-.28.45-.51.67-.64.52-.29.54-.18.28.08.25.23-.6.65-.62.79-.59.61-.57.87.2.05.27,0,.6-.8.77-.84.43-.5.5-.35-.37.6-.43.74c-.11.36.4-.12.4-.12s.23-.3.28-.17-.52.72-.7.79a1.81,1.81,0,0,0-.64.62c0,.18-.2.27-.12.33s.64-.6.82-.65a2.06,2.06,0,0,0,.5-.33s.24-.26.31-.15a4,4,0,0,1-.6.75c-.19.15-.49.49-.46.59s.59-.31.64-.42.32-.36.39-.27.26-.36.23-.17-.74.8-.89,1-.54.72-.5.89.3,0,.34-.15a3.44,3.44,0,0,1,.78-.92c.15,0,.32-.39.35-.24s-.38.57-.48.74a.22.22,0,0,0,.06.28.51.51,0,0,1-.21.39c-.21.23-.39.45-.34.56s.24-.11.32-.23.37-.35.48-.47.07-.53.17-.5a2.36,2.36,0,0,1,.12.54,4.71,4.71,0,0,1-.64.83c-.11.09,0,.4,0,.47s.17-.11.24-.25.45-.77.57-.72,0,.34,0,.5a.38.38,0,0,1-.1.32c-.08.1-.4.52-.57.69s-.2.13-.22.23-.28.17-.15.25.62-.21.67-.3.29-.6.44-.55.06.47,0,.47a.91.91,0,0,0-.46.28c-.08.1.26,0,.31.08s-.64.36-.75.36-.27.12-.27.23.9-.19.9-.19a.21.21,0,0,1,0,.19c0,.1-.19.29-.15.39a1.71,1.71,0,0,0,.13.23l.06-.27L32,20a1,1,0,0,0,.2-.65c0-.13.32-.44.28-.8s.12-.29,0-.67v-.25s-.5-.88-.42-.76c-.08-.12.05-.49,0-.6-.11-.39-.21-.73-.11-.65-.12-.09.34-.92.2-1.13A3.59,3.59,0,0,0,31,12.65a3.24,3.24,0,0,1-.6-.86A11.3,11.3,0,0,1,29.84,10a20.75,20.75,0,0,0-.07-2.12c-.07-.23-.46-.45-.46-.45"/><path d="M32.13,14.39l.33-.17s.51.75.47,1a1.68,1.68,0,0,1-.47.22C32.27,15.44,32.13,14.39,32.13,14.39Z"/><path d="M32.54,14.18l.77.56a.61.61,0,0,0,.27-.6v-.07l-.84-.18A.5.5,0,0,1,32.54,14.18Z"/><path d="M32.79,13.57l.79-.12a.83.83,0,0,0-.12-.44c-.1-.11-.75.19-.75.19Z"/><path d="M32.47,12.76s.38-.46.65-.42l-.31-.4s-.52.21-.59.36Z"/><path d="M31.93,11.87s.44-.48.61-.41l-.25-.36s-.59.21-.67.4Z"/><path d="M31.43,11.06s.39-.44.69-.38L32,10.22s-.63,0-.72.33A.65.65,0,0,0,31.43,11.06Z"/><path d="M31.2,9.76s.62-.08.73.09L32,9.53s-.5-.25-.69-.12Z"/><path d="M32.13,9.35s-.35-.47-.69-.4l.17-.34s.6.13.69.47Z"/><path d="M31.85,8.21s.71.23.67.48l.22-.3s-.47-.47-.69-.42Z"/><path d="M29,21.84s.3-.46.5-.45a2.36,2.36,0,0,0-.39.45C29.13,22,29,21.84,29,21.84Z"/><path d="M28.2,21.67a1.64,1.64,0,0,1,.77-.43s-.55.38-.55.48Z"/><path d="M23.71,16.39s.44.1.53.36c0,0-.41-.37-.53-.26S23.71,16.39,23.71,16.39Z"/><path d="M23.7,16.72s.5.2.48.39c0,0-.39-.33-.48-.26S23.7,16.72,23.7,16.72Z"/><path d="M22.51,9.92s0-.48.37-.57c0,0-.34.09-.4.27l-.12.26Z"/><path d="M21.58,9.91s.33-.56.65-.56c0,0-.48.45-.48.56Z"/><path d="M23.88,4.69a.43.43,0,0,1-.06.29H24S24,4.71,23.88,4.69Z"/><path d="M25.72,4.35s-.42-.07-.52,0a.47.47,0,0,1-.25.13s-.17-.1-.26,0h-.16s.25-.21.37-.2.1.06.27,0,.29-.25.4-.19.14.14.26.11h.33Z"/><path class="cls-2" d="M26.66,4.49a.76.76,0,0,1,.3,0,.69.69,0,0,0,.35,0,.21.21,0,0,1-.09.29h0c-.24.09-.32-.06-.32-.06Z"/><path class="cls-1" d="M13.34,9.91a.37.37,0,0,0,.15-.33.33.33,0,0,0-.12-.25,1,1,0,0,0-.76-.45c-.5,0-.86-.62-1.4-.77a2.92,2.92,0,0,0-1.54.28c-.37.13-.52,0-.52,0l.26-.77a2.09,2.09,0,0,1,.89-.19c.23.07.22-.49.18-.67a.64.64,0,0,0-.15-.31l-.14.2s-.12-.25-.16-.18a.24.24,0,0,1-.24.13H9.6c-.16,0,0-.65.22-.64h.64v.22s.5-.36.52-.67A5.21,5.21,0,0,1,11.06,5l.17-.27s-.29-.21-.46-.16-.58-.28-.73-.26A4,4,0,0,1,9.15,4c-.12,0-.6.27-.75.29a2,2,0,0,1-1,0s-.12.32.19.37A2.93,2.93,0,0,0,6.49,6l-.22.17v.27a2.73,2.73,0,0,0-.39.66,7.51,7.51,0,0,0-.73.76A16.66,16.66,0,0,1,5,10.48a4.5,4.5,0,0,1-.85,1.92,5.12,5.12,0,0,0-1.34,2A.86.86,0,0,1,2,13.49a.79.79,0,0,1,.13-.39c.5-1.14,1.48-1.84,1.48-3S2.6,7.29,2,7.77s.91,1.29.82,2.27a7.86,7.86,0,0,1-1.45,2.72,1.79,1.79,0,0,0,.44,2.48,1.75,1.75,0,0,0,1,.32s.27.17.06.57.13.37.06.6a3.52,3.52,0,0,1-.4.8c-.12.11,0,.46-.08.59s0,.37,0,.54.32.42.28.63a1.09,1.09,0,0,0,.29.79c.15.09.38.23.35.49s.24.08.47.41.4.32.37.49a.49.49,0,0,0,.33.5c.25.07.27.17.27.17l2-.52s-.17-.48-.45-.58a6.85,6.85,0,0,0-1-.16c-.1,0-1.13-1.95-.9-2.62S5.73,17.2,6,16.67a2.86,2.86,0,0,0,.19-1.23s.06,1-.19,1.21.34.66.34,1.14a2.3,2.3,0,0,1-.17,1.13l.65.11s.14.27.27.33.4-.11.57-.14.32.16.42.16.25-.21.35-.16.15.2.27.16,1.14-.71,1.64-.6.28-.83.73-1.06c.2-.11.17-.14.17-.14L11,16.06a1.8,1.8,0,0,0-.65.43c-.12.23-.23.85-.62,1.14a2.37,2.37,0,0,1-1.64.08c-.49-.1,0-1.27.13-1.51a2.08,2.08,0,0,0-.6-2.66A8.62,8.62,0,0,0,8.8,11.43c.27-.92.4-.57.51-.57a16.24,16.24,0,0,0,1.24-1.25.87.87,0,0,1,.91.15c.07.15.15.17.15.17Z"/><path d="M8.63,4.17l-.28.14h0c-.66.12-.87.06-.94,0h0v.14a.43.43,0,0,0,0,.16.25.25,0,0,0,.07.2A3,3,0,0,0,6.35,6.09l-.22.17v.28a2.35,2.35,0,0,0-.29.54,4.77,4.77,0,0,0-.72.77,2.81,2.81,0,0,0,0,.58,9.42,9.42,0,0,1-.25,2.05l-.12.45A3.19,3.19,0,0,1,4,12.38a5.54,5.54,0,0,0-1.35,2A1,1,0,0,1,2,14,.76.76,0,0,1,2,13.62a1.72,1.72,0,0,1,.11-.5A7.48,7.48,0,0,1,2.77,12a3,3,0,0,0,.79-1.83A3.28,3.28,0,0,0,2.43,7.69a.39.39,0,0,0-.44,0A.33.33,0,0,0,1.84,8a1.48,1.48,0,0,0,.4.75,2.34,2.34,0,0,1,.55,1.14V10a5.37,5.37,0,0,1-1.13,2.2c-.14.21-.25.38-.34.54a2.1,2.1,0,0,0-.24,1.2,2,2,0,0,0,.14.74,1.93,1.93,0,0,0,1.58,1,.35.35,0,0,1,.13.26.77.77,0,0,1-.07.26.55.55,0,0,0-.07.24.32.32,0,0,0,.08.21.17.17,0,0,1,0,.1h0a3.25,3.25,0,0,1-.38.77.26.26,0,0,0-.06.21V18a.24.24,0,0,1,0,.12.36.36,0,0,0-.06.2v.37h0a.48.48,0,0,0,.15.28c0,.11.14.2.14.28h0v.08a1.26,1.26,0,0,0,.31.76H3a.48.48,0,0,1,.3.4v.06c0,.14.09.17.18.2a.48.48,0,0,1,.3.2A1.42,1.42,0,0,0,4,21.2c.08.06.11.1.11.14v.09a.5.5,0,0,0,.35.48c.22.07.25.15.25.15h.15l2.06-.52h0s-.19-.5-.48-.61a4.29,4.29,0,0,0-.81-.14h-.2a5.88,5.88,0,0,1-.91-2.28.81.81,0,0,1,0-.22,2.64,2.64,0,0,1,.78-.88,2.36,2.36,0,0,0,.62-.6A.88.88,0,0,0,6,17a2.1,2.1,0,0,1,.24.77,2.28,2.28,0,0,1-.17,1.13h0l.7.12a.61.61,0,0,0,.29.32.8.8,0,0,0,.37-.06l.22-.07a.46.46,0,0,1,.25.08.3.3,0,0,0,.15.07.46.46,0,0,0,.19-.08s.11-.09.14-.07a.11.11,0,0,1,.08.07c0,.06.13.12.23.08l.15-.08a3,3,0,0,1,1.48-.51c.31.06.38-.23.45-.51s.1-.47.28-.56.21-.14.21-.17L11.13,16h0a1.82,1.82,0,0,0-.66.44,1.36,1.36,0,0,0-.11.28,1.56,1.56,0,0,1-.5.83,2.21,2.21,0,0,1-1.6.06.16.16,0,0,1-.15-.11.34.34,0,0,1,0-.2,3,3,0,0,1,.34-1.14,2,2,0,0,0,.27-1,2.33,2.33,0,0,0-.84-1.7A8.32,8.32,0,0,0,9,11.36c.11-.36.2-.57.28-.6h.19c.08,0,.26-.18.74-.73.17-.19.35-.37.54-.55a.55.55,0,0,1,.47,0,.59.59,0,0,1,.35.18.55.55,0,0,0,.17.2h1.73a.38.38,0,0,0,.17-.36.41.41,0,0,0-.13-.28h0a1,1,0,0,0-.77-.42,1.25,1.25,0,0,1-.69-.36,2.08,2.08,0,0,0-.69-.4A2.6,2.6,0,0,0,10,8.27H9.82a.72.72,0,0,1-.46,0c0-.07.25-.72.26-.75a1.86,1.86,0,0,1,.84-.17.17.17,0,0,0,.14,0,2.09,2.09,0,0,1,0-.59.82.82,0,0,0-.16-.34h0l-.15.17a.19.19,0,0,0-.12-.15.09.09,0,0,0-.07,0,.21.21,0,0,1-.2.11H9.66V6.36c0-.12.06-.42.16-.42h.59l-.05.29.09-.07s.51-.39.53-.7a5.26,5.26,0,0,1,.07-.53l.19-.31h0s-.3-.22-.5-.17-.24,0-.37-.13A.83.83,0,0,0,10,4.19a3.33,3.33,0,0,1-.88-.27A3.68,3.68,0,0,0,8.63,4.17Zm-.27.21h0a1.14,1.14,0,0,0,.3-.13,1.32,1.32,0,0,1,.41-.17,4.42,4.42,0,0,0,.92.28.74.74,0,0,1,.29.12c.17.08.33.17.44.13a.6.6,0,0,1,.41.2L11,5.06h0a2.63,2.63,0,0,1-.07.55,1,1,0,0,1-.42.57l.07-.24H9.83c-.16,0-.28.22-.31.43s0,.26.08.29h.19a.34.34,0,0,0,.28-.13.28.28,0,0,1,.08.15v.07l.16-.22a.51.51,0,0,1,.11.25V7a.57.57,0,0,1-.09.4h0a1.87,1.87,0,0,0-.9.19h0l-.29.84h0a.75.75,0,0,0,.55,0H9.8a2.59,2.59,0,0,1,1.4-.21,2,2,0,0,1,.66.4,1.38,1.38,0,0,0,.75.38.89.89,0,0,1,.69.38h0a.3.3,0,0,1,.11.23h0a.33.33,0,0,1-.12.25h-1.7a.42.42,0,0,1-.11-.15.72.72,0,0,0-.41-.22.75.75,0,0,0-.55,0c-.19.18-.37.37-.54.56a4,4,0,0,1-.68.69H9.24a.22.22,0,0,0-.16,0c-.08,0-.18.14-.34.66a8,8,0,0,1-1.13,2.1h0a2.05,2.05,0,0,1,.59,2.67c-.12.2-.48,1.05-.31,1.41a.28.28,0,0,0,.21.17,2.25,2.25,0,0,0,1.67-.09,1.68,1.68,0,0,0,.53-.87.48.48,0,0,1,.1-.25,1.38,1.38,0,0,1,.58-.37c0,.11.14,1.43.14,1.46l-.15.09a.9.9,0,0,0-.34.62c-.07.3-.13.49-.35.45a3,3,0,0,0-1.53.51l-.13.08a.22.22,0,0,1-.14-.06l-.1-.09a.31.31,0,0,0-.25.08.29.29,0,0,1-.12.07l-.13-.06a.52.52,0,0,0-.29-.09.84.84,0,0,0-.24.07.7.7,0,0,1-.32.05c-.09,0-.21-.22-.25-.3h0l-.6-.11a2.56,2.56,0,0,0,.14-1.13A1.82,1.82,0,0,0,6.07,17,2.33,2.33,0,0,1,6,16.71H6a1.7,1.7,0,0,0,.18-.89V15.5h-.1v.32a2.76,2.76,0,0,1-.19.85h0v.08h0a2.2,2.2,0,0,1-.63.66,2.62,2.62,0,0,0-.82.9,1.13,1.13,0,0,0,0,.26,5.41,5.41,0,0,0,.62,1.88c.11.19.28.51.35.52h.21a5.34,5.34,0,0,1,.8.13c.2.07.35.39.39.52l-1.95.47a.48.48,0,0,0-.27-.17.42.42,0,0,1-.31-.4h0c0-.09,0-.13-.14-.21A2.16,2.16,0,0,1,3.9,21a.48.48,0,0,0-.34-.23c-.09,0-.12,0-.12-.1h0a.59.59,0,0,0-.34-.48h0a1.3,1.3,0,0,1-.29-.68v-.08h0a.68.68,0,0,0-.21-.56.39.39,0,0,1-.11-.22h0v-.24a.38.38,0,0,1,0-.15.19.19,0,0,1,0-.15.48.48,0,0,0,0-.17v-.14a.29.29,0,0,1,0-.13.19.19,0,0,1,0-.15,3.06,3.06,0,0,0,.4-.81.11.11,0,0,0,0-.08.27.27,0,0,0-.05-.15.23.23,0,0,1-.07-.15.5.5,0,0,1,.17-.21A.89.89,0,0,0,3,15.88a.44.44,0,0,0-.16-.34h0a1.84,1.84,0,0,1-1.52-1,1.59,1.59,0,0,1-.17-.68,2.12,2.12,0,0,1,.26-1c.09-.14.2-.32.35-.52a5.6,5.6,0,0,0,1.14-2.27V10a2.21,2.21,0,0,0-.58-1.23A1.49,1.49,0,0,1,2,8a.26.26,0,0,1,.11-.21.27.27,0,0,1,.36,0,3.2,3.2,0,0,1,1.13,2.38A3.16,3.16,0,0,1,2.77,12a7.68,7.68,0,0,0-.71,1.13,1,1,0,0,0,0,.91,1.18,1.18,0,0,0,.77.47h0a4.71,4.71,0,0,1,1.32-2A3.12,3.12,0,0,0,4.87,11L5,10.48a9.22,9.22,0,0,0,.18-2.1,2.44,2.44,0,0,1,0-.54,7.42,7.42,0,0,1,.72-.76h0a2.46,2.46,0,0,1,.28-.59h0V6.21A1.84,1.84,0,0,0,6.4,6h0A2.85,2.85,0,0,1,7.6,4.81h0c-.08,0-.13,0-.15-.08a.13.13,0,0,1,0-.12V4.43A2,2,0,0,0,8.36,4.38Z"/><path class="cls-2" d="M12.93,9.85l-1.24.06s-.21-.35-.36-.35-.49-.14-.59,0-.46.19-.58.27-.34,0-.39.14-.1.32-.24.36a3.14,3.14,0,0,0-.64.07c-.11.08-.38.13-.5.3a3.67,3.67,0,0,0-.46.82c0,.18-.32.4-.39.59s0,.37-.08.51a5.54,5.54,0,0,0-.73,1.06c-.09.28-.33.61-.35.75s0,.52-.23.67-.27.64-.33.79,0,.43-.17.52a.83.83,0,0,0-.29.4c0,.1-.23.27-.29.33a4.39,4.39,0,0,1-.42.51,1.51,1.51,0,0,0-.42.75,1.83,1.83,0,0,1,0,.66,1.24,1.24,0,0,0,.22.53,2.39,2.39,0,0,1,.13.42c0,.2.26.3.4.52s.21.43.38.45.91,0,1,.2-1.34.33-1.45.27a6.68,6.68,0,0,1-.67-.74c-.21-.26,0-.68-.25-.88a.55.55,0,0,1-.15-.65.66.66,0,0,0-.13-.45s.08-.77.19-.84-.06-.72.13-.87a7.7,7.7,0,0,0,.7-.66,9.48,9.48,0,0,0,.8-1.67,5.32,5.32,0,0,1,.52-1.34,3.74,3.74,0,0,0,.32-1c.08-.18.25-1.08.43-1.22s.22-.77.56-1a6.32,6.32,0,0,1,1.2-.71,9.36,9.36,0,0,0,1.78-.54,2,2,0,0,1,1.39,0,2.82,2.82,0,0,0,1.07.42c.17,0,.65.15.65.28S12.93,9.85,12.93,9.85Z"/><path class="cls-2" d="M9.88,10.26l-.3.37A2.06,2.06,0,0,0,10,11a2.83,2.83,0,0,1,.57.23.81.81,0,0,0,.29.12v-.44s0-.29-.18-.29A3.77,3.77,0,0,1,9.88,10.26Z"/><path class="cls-2" d="M6.74,15l-.45,1.08a4.15,4.15,0,0,1,.34.91,1,1,0,0,0,0,.54c0,.25,0,.51,0,.76s.18.3.39.43.29.11.46.22.79-.18,1-.11a2.88,2.88,0,0,0,1-.13c.22,0,.45-.31.59-.2s.53-.29.55-.38a1.15,1.15,0,0,1,.35-.41,3.47,3.47,0,0,0,.15-.78L9.63,18.15a4.09,4.09,0,0,1-1.86.29c-.4-.07-.64-.69-.63-1a12.39,12.39,0,0,0-.07-1.83A1.29,1.29,0,0,0,6.74,15Z"/><path class="cls-2" d="M10,5.68a4.87,4.87,0,0,0-.59-.36A1.37,1.37,0,0,0,9,6.18c.06.27.18.72.23,1s-.33,0-.4.09a6.25,6.25,0,0,1-.44.45c-.15.13,0,.52.19.6a2.71,2.71,0,0,0,.48.13l.18-.8s.63-.4.8-.35.23-.32.17-.4-.61-.12-.71-.4S9.83,5.63,10,5.68Z"/><path class="cls-3" d="M10.55,9.64l-.59.65a2.73,2.73,0,0,0,.74.47h.22v-1Z"/><path class="cls-3" d="M13.51,9.51a1.62,1.62,0,0,1-.62-.06,3.68,3.68,0,0,1-.42-.22,4.48,4.48,0,0,1,.36.4c.08.13-.61-.18-.84-.35s-.17.15-.09.27-.12.23-.2.08-.65-.72-.9-.72-1.07.14-1.22.6c0,0-.19.36-.34.4s-.64-.38-.79-.38-.33-.1-.3,0,.12.3,0,.4-.46-.1-.46.18a2.34,2.34,0,0,1-.18.69c0,.17,0,.28-.1.34s-.3,0-.3.18a.81.81,0,0,1-.07.43c-.07.12-.27.19-.23.31s0,.21-.09.36-.23.22-.18.42a.59.59,0,0,1,0,.47c-.08.14-.25.22-.23.37s-.12.39-.19.5-.25.25-.23.37-.07,0-.17.17a.76.76,0,0,0-.16.38.6.6,0,0,1-.09.37c-.08.07,0,.11-.1.22s-.34,0-.34.14-.2.33-.13.46a.39.39,0,0,1-.07.4c-.07.06.1.27,0,.36s-.3.06-.33.18-.24.07-.2.25a.41.41,0,0,1,0,.4c-.1.09-.33.49-.29.59s0,2.19,1,2.74c.54.29,1.48-.11,1.65,0s.08.11.25.37l-2,.49s-.42-.16-.47-.31,0-.31-.07-.42a3.56,3.56,0,0,0-.62-.46l-.32-.17a.85.85,0,0,0-.08-.39,1.2,1.2,0,0,1-.59-1c0-.34-.35-.35-.32-.8v-.56l.05-.38s.37-.69.45-.86-.13-.38-.13-.38l.09-.64c0-.15-.18-.94-.14-1.32a5.64,5.64,0,0,1,1.41-2.12,6.15,6.15,0,0,0,.8-2c.09-.4.15-2.27.15-2.27a3.6,3.6,0,0,1,.79-.86l.28-.62v-.2l.19-.17A3.38,3.38,0,0,1,7.61,4.77l.76-.46L9,4a5.78,5.78,0,0,0,.89.29,1.13,1.13,0,0,1,.53.19,1.53,1.53,0,0,0,.25.16,3.08,3.08,0,0,1-.48.32c-.1,0-1,.36-1,.61s-.62.73,0,1.27-.08.4-.14.44-.42,0-.45.17a3.08,3.08,0,0,0,0,.74c0,.16.37.18.57.18a2.13,2.13,0,0,0,1.13-.3,2.53,2.53,0,0,1,.95,0c.31.12.73.55,1.26.77.15.07.35,0,.58.15A1.31,1.31,0,0,1,13.51,9.51Z"/><path class="cls-3" d="M7.63,13.55a18.93,18.93,0,0,0-1,1.9c0,.26.28,1.72.25,2s.08.84.25.92a2.46,2.46,0,0,0,.92.24A5,5,0,0,0,10.13,18c.33-.24.75-1,.94-1L11,16.16s-.54.2-.6.34a4,4,0,0,1-.54,1.14,2.23,2.23,0,0,1-1.66.17c-.75-.14.25-1.79.29-2.27A2.07,2.07,0,0,0,7.63,13.55Z"/><path class="cls-3" d="M2.88,15.44l-.14-1s-.68-.11-.75-.56a3.08,3.08,0,0,1,.85-1.93,3.16,3.16,0,0,0,.74-2C3.45,9.18,2.81,7.3,2,7.71s.67,1.51.76,1.84a3,3,0,0,1-.69,2.07,4.64,4.64,0,0,0-.95,1.69c0,.41-.35,1.81,1.74,2.27Z"/><path d="M8,4.44l.62.1s.26-.12.26,0v.2a.23.23,0,0,1,.28.11A.18.18,0,0,0,9.28,5a.19.19,0,0,0,.13,0,5.09,5.09,0,0,1-.3-.5c0-.09-.3-.22-.3-.22H8.49Z"/><path d="M9.33,7.92A.46.46,0,0,1,9,7.67c-.1-.23-.17-.47-.31-.55S8.24,7,8.18,6.9,7.93,6.47,8,6.28a5.11,5.11,0,0,0,.25-.87,1,1,0,0,0,0-.34l-.4.71a.89.89,0,0,0-.19.63,1.11,1.11,0,0,0,.38.67c.22.18.53.16.55.37A.92.92,0,0,0,9,8.1a1,1,0,0,0,.3.11Z"/><path d="M9.41,7.62s-.25-.4-.34-.42-.2-.12-.39-.2-.33-.32-.29-.42.15-.38,0-.42a.57.57,0,0,1-.19-.22h.34a3.09,3.09,0,0,1,0-.43,1.94,1.94,0,0,1,.07-.3,3,3,0,0,1,.1.78A1.39,1.39,0,0,0,9,6.72a1.1,1.1,0,0,0,.35.36s-.19-.32-.12-.32.33.32.33.32.17.27.32.29h.37Z"/><path d="M9.08,8.44a.73.73,0,0,1,0,.36,2.11,2.11,0,0,0,.1,1.14c.14.12.12-.13.12-.23a2.27,2.27,0,0,1,.11-.93,1,1,0,0,1,.42-.22s.19.6.45.72,0-.25,0-.4-.12-.44.05-.49.3-.32.4-.3a3.75,3.75,0,0,1-.48,0l-.51.16Z"/><path d="M10.47,9.69a.16.16,0,0,0-.1.08,3.51,3.51,0,0,1-.37.41c-.12.12-.23.25-.34.38a1,1,0,0,1-.45.47h0l.42.36a.47.47,0,0,1,.12.31h0a.31.31,0,0,0,.19,0h.2a2.35,2.35,0,0,1,.72.24h0v-2h0S10.64,9.67,10.47,9.69Zm-.77.89c0-.07.19-.22.33-.37a3.62,3.62,0,0,0,.36-.42.15.15,0,0,1,.09-.06.75.75,0,0,1,.38.19v2a2.5,2.5,0,0,0-.7-.23H9.79a.47.47,0,0,0-.14-.33c0-.07-.32-.28-.4-.35A1.12,1.12,0,0,0,9.7,10.58Z"/><path d="M10.9,9.87l-.35-.21-.44.39.19.07s.08-.11.1,0-.19.46-.21.6.29-.39.39-.52.09-.08.17,0-.08.44,0,.44.11-.27.11-.27Z"/><path d="M10.84,11.73a2.38,2.38,0,0,1-.68-.19,3.5,3.5,0,0,0-.75-.5c-.1,0-.18.18-.18.18a.46.46,0,0,1,.48.24c.08.19,0,.3.14.3s.3-.09.47,0a5.09,5.09,0,0,0,.58.22Z"/><path d="M9.41,10.72s-.42.11-.46-.2-.1-.72-.21-.72,0,1,0,1.14-.61-.1-.89-.29-.71-.17-.71-.05.42.19.52.25.07.29.22.34.52.16.48.27a1.17,1.17,0,0,1-.42.58,2,2,0,0,1-1.07-.27c-.15-.1-.15,0-.07.11a1.37,1.37,0,0,0,1,.46c.35,0-.17.67-.32.77a1.08,1.08,0,0,1-1.13-.35c-.38-.48-.27-.07-.25,0s.58.46.65.56-.13.13,0,.21a.3.3,0,0,1,.14.19s-.46.15-.39.38.52.1.5.2-.25.53-.32.69,0,.37-.1.53,1-1.62,1-1.76a15.17,15.17,0,0,0,1.14-2.14s.27-.37.42-.33S9.41,10.72,9.41,10.72Z"/><path d="M8.12,14.1a1.55,1.55,0,0,1,.37,1.13,3.53,3.53,0,0,1-.39,1.39,1.57,1.57,0,0,0-.13,1c.1.18.94.29,1.27.22a2.55,2.55,0,0,0,.53-.18,3,3,0,0,1-.33.38c-.11.08-.47.15-.4,0s-.36,0-.42.1-.4.12-.35,0a.28.28,0,0,0-.45-.24c-.25.21-.42.22-.42.09s.32-.52.34-.65-.34,0-.46.06-.52.1-.55,0,.82-.33.9-.48,0-.17-.12-.19.17-.37.21-.5-.32,0-.46,0-.42.13-.42,0a6.34,6.34,0,0,1,.79-.57,3.91,3.91,0,0,0,.26-.44s0-.5-.17-.27a1.68,1.68,0,0,1-.65.46c-.17.11.28-.44.36-.5s.12-.31.27-.36.33-.2.27-.33-.07-.28-.1-.42Z"/><path d="M8.91,7.92a1.42,1.42,0,0,0-.54-.08c-.15,0-.48-.22-.52-.37a6.46,6.46,0,0,1-.17-.7c0-.12-.21-.22-.4-.3a.69.69,0,0,1-.42-.29,1.91,1.91,0,0,1,.29-.65,11.06,11.06,0,0,1,.9-.79h-.4s-.87.6-.94.81a2.36,2.36,0,0,1-.35.57.59.59,0,0,0-.17.25A2.55,2.55,0,0,1,6,6.9a1.46,1.46,0,0,0-.21.28c0,.07.27,0,.42,0a1.09,1.09,0,0,1,.55.51c.08.2.14.48.35.55s.57-.13.84,0,.82.08,1.23.09L9,8.11,8,8a1.93,1.93,0,0,1-.68-.1A1.16,1.16,0,0,1,7,7.27a.67.67,0,0,0-.37-.42H6.35l.14-.3s.7.15.8.38a5.19,5.19,0,0,1,.35.71c0,.15.3.36.42.38S8.83,7.84,8.91,7.92Z"/><path d="M5.71,7.22l-.17.28s.65.1.75.27a1.31,1.31,0,0,1,.11.52c0,.17.25.2.25.2q0-.3,0-.6a1.07,1.07,0,0,0-.31-.45C6.17,7.37,5.71,7.22,5.71,7.22Z"/><path d="M5.56,7.52A3.33,3.33,0,0,1,6.27,8a1.7,1.7,0,0,0,.61.55,1.9,1.9,0,0,1,.69.46,2.07,2.07,0,0,0,.72.56.26.26,0,0,1,.23.15,3.53,3.53,0,0,0-.65,0,1,1,0,0,1-.64-.34c-.09-.19-.47-.75-.6-.71s-.42-.5-.62-.58-.36-.36-.42-.21a.83.83,0,0,0,0,.54c0,.08.21,0,.52.15s.57.15.69.32a1.36,1.36,0,0,1,.27.6.15.15,0,0,1-.14.15h0a1.48,1.48,0,0,0-.3-.5c-.16-.1-.37-.32-.6-.3a1.85,1.85,0,0,1-.47,0,.28.28,0,0,0,0,.28c.09.12.42.15.59.3s.61.42.7.65-.3.15-.3.15-.46-.43-.62-.43a1.28,1.28,0,0,1-.39,0c-.16,0-.08.35,0,.47s.63.15.82.15A1,1,0,0,1,7,10.7c.14.17-.57,0-.74.07s-.65-.09-.67,0a4.41,4.41,0,0,0,1.24.4c.1,0,.29.1.29.18s-.54,0-.73,0-.86-.25-1-.18.73.5.92.58.25.14.17.21-.74-.15-.74-.15a1.12,1.12,0,0,0-.48-.1c-.14.06.17.38.4.48s.5.12.5.23-.35.09-.46.06a1.47,1.47,0,0,1-.63-.27c-.2-.25-.37.1-.35.21s.9.36,1.13.73.17.4.15.5.19.23.15.38-.35-.13-.35-.29-.45-.51-.67-.63-.53-.3-.55-.18-.27.08-.25.22S5,13.8,5,14s.6.6.56.86-.19.06-.27,0S4.71,14,4.53,14s-.42-.5-.49-.35.36.6.42.75c.13.35-.4-.13-.4-.13s-.22-.29-.27-.17.52.72.69.8a1.73,1.73,0,0,1,.65.61c0,.18.19.27.13.33s-.65-.6-.82-.65a1.81,1.81,0,0,1-.5-.33s-.21-.26-.33-.14a4.75,4.75,0,0,0,.59.75c.19.14.5.49.48.59s-.6-.32-.65-.42-.33-.37-.4-.28-.25-.36-.22-.17.74.8.89,1.05.55.71.49.88-.29,0-.34-.14A3.23,3.23,0,0,0,3.73,16c-.14,0-.31-.4-.35-.24s.38.57.48.74a.2.2,0,0,1,0,.27.48.48,0,0,0,.19.4c.23.22.4.44.35.55s-.25-.11-.32-.22-.31-.33-.47-.48-.08-.52-.18-.5a2.12,2.12,0,0,0-.13.54,4.82,4.82,0,0,0,.66.83c.09.09,0,.4,0,.47s-.18-.1-.25-.25-.45-.76-.57-.72,0,.35,0,.5a.44.44,0,0,0,.09.32,7.83,7.83,0,0,0,.58.69c.17.19.2.13.22.23s.27.17.15.25-.62-.2-.67-.29-.3-.61-.45-.56,0,.48.06.48a1.06,1.06,0,0,1,.47.27c.08.1-.28,0-.33.08s.66.36.75.36.27.13.27.23-.9-.18-.9-.18a.28.28,0,0,0,0,.18c0,.1.21.3.16.4l-.12.22-.08-.27L3,20a1.15,1.15,0,0,1-.19-.65c0-.12-.32-.44-.27-.79s-.13-.3,0-.67v-.25s.5-.89.42-.76c.08-.13,0-.49,0-.61.1-.38.2-.72.1-.64.12-.09-.35-.92-.21-1.14A3.52,3.52,0,0,1,4,12.69a3.43,3.43,0,0,0,.59-.87A9.09,9.09,0,0,0,5.06,10a18,18,0,0,1,.08-2.11c.08-.24.45-.46.45-.46"/><path d="M2.54,14.86l-.31-.17s-.5.72-.46.93a1.62,1.62,0,0,0,.46.22C2.43,15.86,2.54,14.86,2.54,14.86Z"/><path d="M2.17,14.65l-.75.55a.63.63,0,0,1-.26-.59v-.06L2,14.37A.49.49,0,0,0,2.17,14.65Z"/><path d="M1.92,14.07l-.76-.13a1.06,1.06,0,0,1,.12-.42c.1-.1.72.18.72.18Z"/><path d="M2.24,13.28s-.36-.44-.62-.41l.28-.38s.51.2.58.35Z"/><path d="M2.84,11.87s-.45-.48-.63-.41l.25-.36s.6.21.67.4Z"/><path d="M3.33,11.06s-.4-.44-.7-.38l.18-.46s.62,0,.72.33A.73.73,0,0,1,3.33,11.06Z"/><path d="M3.55,9.76s-.62-.08-.71.09l-.08-.32s.5-.25.69-.12Z"/><path d="M2.6,9.35S3,8.88,3.29,9l-.17-.34s-.59.13-.69.47Z"/><path d="M2.91,8.21s-.72.23-.67.48L2,8.39s.47-.47.69-.42Z"/><path d="M5.71,21.84s-.29-.46-.5-.45c0,0,.38.34.39.45S5.71,21.84,5.71,21.84Z"/><path d="M6.55,21.67a1.56,1.56,0,0,0-.76-.43s.56.38.56.48Z"/><path d="M11,16.39s-.43.1-.52.36c0,0,.4-.37.52-.26S11,16.39,11,16.39Z"/><path d="M11.06,16.72s-.51.2-.49.39c0,0,.39-.33.49-.26S11.06,16.72,11.06,16.72Z"/><path d="M12.25,9.92s0-.48-.37-.57c0,0,.33.09.41.27a2,2,0,0,0,.11.26Z"/><path d="M13.17,9.91s-.35-.56-.64-.56c0,0,.48.45.48.56Z"/><path d="M9.9,5.86a4.17,4.17,0,0,0,.49.08h.16l.23-.2-.21-.11a2.38,2.38,0,0,1-.38.11c-.12,0-.36-.2-.5-.24s-.34-.57-.28-.57.09.4,0,.53S9.81,5.71,9.9,5.86Z"/><path d="M9.41,4.9,9.35,5h0a.7.7,0,0,0,.06.32.25.25,0,0,1,0,.17h0c0,.07.11.13.24.21a.67.67,0,0,1,.22.28h0a2.77,2.77,0,0,0,.5.1h.18l.28-.25-.26-.14h0l-.39.11a.35.35,0,0,1-.25-.11.61.61,0,0,0-.22-.13.42.42,0,0,1-.23-.24,1.93,1.93,0,0,0,0-.34h0Zm.24.73a.26.26,0,0,1-.2-.13h0V5.41a.55.55,0,0,0,.22.18.78.78,0,0,1,.2.11.55.55,0,0,0,.32.14l.38-.11.14.07-.12.14a.61.61,0,0,0-.19,0,3.55,3.55,0,0,1-.47-.09,1.61,1.61,0,0,0-.23-.22Z"/><path d="M9.21,5.16s-.22.24-.16.41a.83.83,0,0,1,.06.21V5.34l.1-.15h.11S9.27,5.09,9.21,5.16Z"/><path d="M9.19,5.13h0S9,5.4,9,5.58v.2H9.1V5.34l.09-.13h.18l0-.09S9.24,5.06,9.19,5.13Zm-.11.42h0a.33.33,0,0,1,0-.14v.14Z"/><path d="M9.41,4.63c.14.12-.44.12-.29.23a2.79,2.79,0,0,0,.9.24h.08s.3,0,.32-.1.32-.42.13-.39-.48.29-.45.23.15-.15.09-.13a1.91,1.91,0,0,1-.47-.12A1.1,1.1,0,0,0,9.41,4.63Z"/><path d="M10.87,4.69A.38.38,0,0,0,11,5H10.8S10.8,4.71,10.87,4.69Z"/><path d="M9,4.35s.43-.07.52,0a.5.5,0,0,0,.26.13s.17-.1.26,0h.15a1,1,0,0,0-.35-.13c-.12,0-.12.06-.29,0s-.29-.25-.38-.19-.15.13-.26.11H8.6Z"/><path class="cls-2" d="M8.1,4.49a.76.76,0,0,0-.3,0,.69.69,0,0,1-.35,0s-.19.18,0,.27a.41.41,0,0,0,.4,0Z"/><path d="M9.49,5.94c.07-.35.76-.87,1-.75h0A1.83,1.83,0,0,0,9.49,5.94Z"/><path d="M9.61,6.1c.08-.35.76-.86,1-.75h-.06A1.83,1.83,0,0,0,9.61,6.1Z"/><path d="M9.31,5.53c.19-.3,1-.54,1.21-.34h0A1.73,1.73,0,0,0,9.31,5.53Z"/><path class="cls-1" d="M17.36,23.59c3-.68,6.42-4.35,6.47-7.39V9.89H10.92V16.2c.06,3,3.41,6.71,6.47,7.39Z"/><path d="M23.87,9.85h-13v6.3A7.55,7.55,0,0,0,13,20.76a9.1,9.1,0,0,0,4.35,2.88h0a9.07,9.07,0,0,0,4.37-2.83,7.6,7.6,0,0,0,2.19-4.65V9.86h-.05Zm-6.47.09h6.44v6.22a7.42,7.42,0,0,1-2.13,4.55,8.89,8.89,0,0,1-4.35,2.85h0a9,9,0,0,1-4.28-2.85A7.47,7.47,0,0,1,11,16.16V9.94Z"/><path class="cls-2" d="M17.36,27.74c1.83,0,5.83-.25,7-.82a1.6,1.6,0,0,0,.62-1.6,8.68,8.68,0,0,1,.36-1.74.55.55,0,0,0-.12-.35c.49-.29,4.66,1.13,4.85,1.13a1.33,1.33,0,0,0,.9-.09,12.18,12.18,0,0,0,2.79-2.76c.22-.45-.08-.8-.47-.67s-1.33,1.32-1.64,1.43-.16.24-1.54,0C28.52,22,26.43,20.7,24.41,21s-1.91,2.51-1.91,2.79.07.32.48.31c1.4-.07.64.45.64.45-1.13.76-5.68.77-6.24.77h0c-.57,0-5.15,0-6.26-.77,0,0-.76-.52.64-.45.41,0,.49,0,.49-.31s.11-2.45-1.92-2.79-4.12,1-5.68,1.23-1.24.12-1.55,0S1.82,21,1.46,20.84s-.7.22-.49.67a12.22,12.22,0,0,0,2.8,2.76,1.33,1.33,0,0,0,.9.09c.19,0,4.37-1.42,4.85-1.13a.5.5,0,0,0-.12.35,8,8,0,0,1,.35,1.74,1.63,1.63,0,0,0,.63,1.6C11.52,27.49,15.54,27.74,17.36,27.74Z"/><path d="M33.27,20.8a3.77,3.77,0,0,0-.88.76,4.92,4.92,0,0,1-.76.68h-.14c-.17.08-.26.14-1.39,0a13.26,13.26,0,0,1-1.76-.54A8.21,8.21,0,0,0,24.41,21c-1.29.22-2,1.22-2,2.79h0a.4.4,0,0,0,.08.28c.08.08.22.08.45.08.68,0,.79.07.8.11h0c0,.08-.11.18-.18.23-1,.71-5,.77-6.22.77h0c-.92,0-5.14,0-6.18-.78-.07,0-.2-.15-.2-.23h0s.13-.15.81-.11c.23,0,.38,0,.45-.08a.35.35,0,0,0,.07-.28h0c0-1.58-.67-2.57-1.94-2.79a8,8,0,0,0-3.93.72,13.83,13.83,0,0,1-1.77.53c-1.14.19-1.23.14-1.39,0H3.17a4.35,4.35,0,0,1-.79-.69,4.1,4.1,0,0,0-.92-.74.45.45,0,0,0-.5.11.6.6,0,0,0,0,.63,13,13,0,0,0,2.77,2.78,1.31,1.31,0,0,0,.87.09h.05a4.5,4.5,0,0,0,.6-.17,20,20,0,0,1,4.19-1,.47.47,0,0,0-.09.28.06.06,0,0,0,0,.06,3.19,3.19,0,0,0,.13.59,6.47,6.47,0,0,1,.23,1.06v.07a1.31,1.31,0,0,0,0,.28A1.56,1.56,0,0,0,10.38,27c1.14.57,5.2.82,7,.82h0c1.79,0,5.82-.25,7-.82a1.52,1.52,0,0,0,.67-1.38.61.61,0,0,0,0-.27v-.07a7.67,7.67,0,0,1,.22-1.06,5.63,5.63,0,0,0,.14-.59v-.05a.7.7,0,0,0-.09-.29,19.62,19.62,0,0,1,4.19,1,4,4,0,0,0,.59.17h.07a1.26,1.26,0,0,0,.85-.09,13,13,0,0,0,2.8-2.78.56.56,0,0,0,0-.63A.43.43,0,0,0,33.27,20.8ZM3.8,24.21A12.4,12.4,0,0,1,1.05,21.5a.51.51,0,0,1,0-.53.37.37,0,0,1,.41-.09,4.09,4.09,0,0,1,.83.72,3.7,3.7,0,0,0,.81.72h.12c.19.09.29.14,1.45,0a11,11,0,0,0,1.79-.48,8,8,0,0,1,3.89-.7c1.23.2,1.9,1.13,1.88,2.7h0c0,.12,0,.18-.06.22a1.47,1.47,0,0,1-.38,0c-.56,0-.83,0-.89.18s.19.33.22.35c1.05.73,5.07.79,6.28.79h0c1.25,0,5.2-.06,6.23-.78,0,0,.23-.16.23-.3h0a1.68,1.68,0,0,0-.82-.19h-.37c-.06,0,0-.1,0-.21h0c0-1.53.63-2.5,1.87-2.7a7.89,7.89,0,0,1,3.89.7,10.11,10.11,0,0,0,1.78.53c1.14.2,1.26.15,1.44,0h.13a3.56,3.56,0,0,0,.8-.7,4.84,4.84,0,0,1,.83-.74.38.38,0,0,1,.41.09.48.48,0,0,1,0,.54A12.6,12.6,0,0,1,31,24.24a1.11,1.11,0,0,1-.8.09h-.07l-.6-.22c-1.93-.59-3.95-1.13-4.31-.95h0a.45.45,0,0,1,.09.32,4.52,4.52,0,0,1-.13.58A3.66,3.66,0,0,0,25,25.19a1.51,1.51,0,0,1-.59,1.55c-1.13.58-5.17.83-7,.83h0c-1.8,0-5.81-.25-7-.83-.63-.3-.67-1.29-.61-1.55a3.64,3.64,0,0,0-.21-1.13,2.24,2.24,0,0,0-.14-.58.46.46,0,0,1,.1-.32h0c-.35-.2-2.37.36-4.3.95a4.23,4.23,0,0,1-.58.17H4.62a1.08,1.08,0,0,1-.79,0Z"/><path class="cls-4" d="M17,21.5l-.09.25a2.79,2.79,0,0,0-.22,1.14s.27-.93.33-1a.68.68,0,0,1,.23-.18"/><path d="M17,21.49l-.09.25a2.8,2.8,0,0,0-.23,1.14h0a9.49,9.49,0,0,1,.33-1,.71.71,0,0,1,.23-.19h0a.88.88,0,0,0-.24.19,8.1,8.1,0,0,0-.31.95h0a3.23,3.23,0,0,1,.25-1l.1-.28h0Z"/><path class="cls-5" d="M21.65,16.37h2.19s.08,1.94-2.19,4.54Z"/><rect class="cls-6" x="19.33" y="9.81" width="0.32" height="0.15"/><polygon class="cls-2" points="16.81 2.07 17.42 3.43 18.08 2.09 18.05 3.58 19.22 2.66 18.53 3.98 19.99 3.66 18.8 4.55 20.25 4.9 18.78 5.19 19.95 6.12 18.5 5.76 19.15 7.11 18 6.15 18 7.64 17.39 6.28 16.73 7.62 16.76 6.12 15.59 7.05 16.27 5.72 14.82 6.05 16.01 5.15 14.56 4.82 16.02 4.51 14.85 3.58 16.3 3.95 15.66 2.6 16.81 3.57 16.81 2.07"/><path d="M16.77,2.07V3.46l-1.13-.89h0l.59,1.32-1.36-.36v.08L16,4.5l-1.45.31h0l1.36.32L14.77,6V6l1.46-.26c-.1.16-.67,1.3-.67,1.3h.06l1.13-.88V7.61h.08l.53-1.23c.07.14.58,1.28.58,1.28H18V6.25l1.14.91,0-.08-.6-1.25,1.36.34V6.1l-1.13-.89,1.37-.27V4.81l-1.36-.32L20,3.65V3.57l-1.36.3.64-1.25h-.06s-1,.78-1.14.87V2.09H18s-.55,1.14-.63,1.26c-.06-.15-.57-1.28-.57-1.28Zm.07,1.5V2.26l.57,1.27L18,2.28V3.67l1.14-.86L18.5,4l1.35-.3-1.13.84,1.35.32-1.37.27L19.78,6,18.44,5.7,19,7,18,6.05v1.4l-.57-1.27L16.8,7.43V6l-1.14.87.64-1.24L15,5.94l1.14-.83-1.39-.3,1.37-.28-1-.86L16.43,4l-.59-1.25,1.06.89Z"/><polygon points="23.86 16.32 21.62 16.32 21.62 16.41 23.91 16.41 23.91 16.32 23.86 16.32"/><rect x="18.82" y="18.21" width="0.09" height="4.87"/><rect x="15.85" y="18.21" width="0.09" height="4.84"/><rect x="15.23" y="13.47" width="2.19" height="4.78"/><rect class="cls-2" x="19.53" y="13.47" width="2.11" height="4.75"/><rect class="cls-4" x="13.03" y="13.47" width="2.23" height="4.75"/><rect class="cls-4" x="10.92" y="9.87" width="12.95" height="3.61"/><polygon points="23.86 13.43 10.88 13.43 10.88 13.52 23.91 13.52 23.91 13.43 23.86 13.43"/><rect x="17.35" y="13.45" width="0.08" height="4.78"/><rect x="15.18" y="13.45" width="0.08" height="4.8"/><rect x="19.49" y="13.45" width="0.08" height="4.78"/><rect x="21.6" y="13.45" width="0.08" height="7.49"/><path class="cls-2" d="M17.19,10.75a.06.06,0,0,0,.08.06.24.24,0,0,1,0,.12h-.5V11l.21.1.07.28h.16v1.87h.31V11.4h.16l.07-.29L18,11v-.09s-.37.06-.48.06v-.09c.1-.12-.07-.18,0-.37s-.06-.18-.09-.22-.08.12-.11.07a2.83,2.83,0,0,0-.41-.27l-.37.32a.56.56,0,0,1,.67.27Z"/><path d="M16.89,10l-.37.31v.07a.53.53,0,0,1,.62.23v.08h0a.08.08,0,0,0,0,.07h-.46V11l.21.1.07.31h.14v1.86h.4V11.37h.15l.08-.31.21-.13v-.1h-.43a.17.17,0,0,0,0-.1.17.17,0,0,0,0-.1v-.17h0a.27.27,0,0,0-.08-.19h-.05l-.07.07a.89.89,0,0,0-.42-.24h0Zm0,.08a.47.47,0,0,1,.36.22h0l.08-.06h0a.42.42,0,0,1,.07.15h0a.17.17,0,0,0,0,.1.24.24,0,0,0,0,.12v.07a.06.06,0,0,1,0,.06h0v.16h.5l-.22.14a1.34,1.34,0,0,1-.07.27h-.17v1.86h-.22V11.36h-.17L17,11.09,16.77,11h.59V10.9a.09.09,0,0,0,0-.1h0v-.09h0a.57.57,0,0,0-.57-.33Z"/><path class="cls-2" d="M19.26,10.75a.06.06,0,0,0,.08.06.24.24,0,0,1,0,.12h-.5V11l.21.1.06.28h.17v1.87h.36V11.4h.16l.06-.29.22-.14v-.09s-.36.06-.48.06v-.09c.1-.12-.07-.18,0-.37s-.05-.18-.09-.22-.08.12-.11.07a2.83,2.83,0,0,0-.41-.27l-.36.32a.57.57,0,0,1,.68.27A.31.31,0,0,0,19.26,10.75Z"/><path d="M19,10l-.36.31v.07a.52.52,0,0,1,.63.23v.08h0a.08.08,0,0,0,0,.07h-.46V11l.21.1.06.31h.16v1.86h.45V11.37h.14l.08-.31.22-.13v-.1h-.43a.17.17,0,0,0,0-.1v-.1a.14.14,0,0,1,0-.09v-.08h0a.41.41,0,0,0-.08-.19h0a.08.08,0,0,0-.08.07.78.78,0,0,0-.42-.24h0Zm0,.08a.49.49,0,0,1,.37.22h0a.1.1,0,0,0,.08-.06h0a.42.42,0,0,1,.07.15h0a.17.17,0,0,0,0,.1.24.24,0,0,0,0,.12v.13h0v.16h.61l-.22.14-.06.27h-.18v1.86H19.4V11.36h-.17l-.07-.27L19,11h.49V10.9a.17.17,0,0,0,0-.1h-.05v-.09h0a.6.6,0,0,0-.58-.33Z"/><path class="cls-2" d="M21.36,10.81a.13.13,0,0,1,0,.12h-.5V11l.21.1.07.28h.17v1.87h.3V11.4h.16l.07-.29.22-.14v-.09s-.38.06-.49.06v-.09c.11-.12,0-.18,0-.37a.24.24,0,0,0-.09-.22s-.09.12-.12.07a2,2,0,0,0-.41-.27l-.36.32a.57.57,0,0,1,.67.27l0,.1Z"/><path d="M21,10l-.37.31v.07a.53.53,0,0,1,.62.23v.08h0a.08.08,0,0,0,0,.07h-.51V11l.2.1.07.31h.16v1.86h.39V11.45h.16s0-.27.07-.31L22,11v-.18h-.49a.17.17,0,0,0,0-.1.17.17,0,0,0,0-.1.14.14,0,0,1,0-.09v-.08h0a.34.34,0,0,0-.09-.19h-.06l-.08.07a.75.75,0,0,0-.41-.24h0Zm0,.08a.5.5,0,0,1,.36.22h0a.07.07,0,0,0,.07-.06h0a.35.35,0,0,1,.07.15h0a.17.17,0,0,0,0,.1.24.24,0,0,0,0,.12v.13h0v.16h.44l-.22.14-.05.27h-.17v1.86h-.23V11.36h-.17L21,11.09,20.82,11h.47v-.09a.14.14,0,0,0,0-.09h0v-.09h0a.56.56,0,0,0-.56-.33Z"/><path class="cls-2" d="M15.09,10.75a.06.06,0,0,0,.08.06.24.24,0,0,1,0,.12h-.5V11l.21.1.07.28h.15v1.87h.32V11.4h.16l.07-.29.22-.14v-.09s-.37.06-.48.06v-.09c.11-.12-.06-.18,0-.37s-.06-.18-.09-.22-.08.12-.12.07a2.38,2.38,0,0,0-.41-.27l-.36.32a.57.57,0,0,1,.68.27Z"/><path d="M14.82,10l-.37.31v.07a.51.51,0,0,1,.61.23v.08h0a.08.08,0,0,0,0,.07h-.44V11l.2.1.07.31h.2v1.86h.4V11.37h.15l.08-.31.21-.13v-.1H15.5a.17.17,0,0,0,0-.1.17.17,0,0,0,0-.1v-.17h0a.46.46,0,0,0-.08-.19h0a.08.08,0,0,0-.07.06.76.76,0,0,0-.42-.23h0Zm0,.08a.47.47,0,0,1,.36.22h0l.08-.06h0a.42.42,0,0,1,.07.15h0a.17.17,0,0,0,0,.1.24.24,0,0,0,0,.12.08.08,0,0,1,0,.07.06.06,0,0,1,0,.06h0v.16h.5l-.21.14-.07.27h-.16v1.86h-.23V11.36h-.07L15,11.09l-.2-.11h.49v-.1h0v-.09h0a.6.6,0,0,0-.58-.33Z"/><path class="cls-2" d="M13,10.75a.06.06,0,0,0,.08.06.24.24,0,0,1,0,.12h-.5V11l.2.1.07.28h.16v1.87h.32V11.4h.16l.06-.29.22-.14v-.09s-.36.06-.48.06v-.09c.1-.12-.05-.18,0-.37s-.05-.18-.09-.22-.08.12-.11.07a2.83,2.83,0,0,0-.41-.27l-.36.32a.57.57,0,0,1,.68.27A.17.17,0,0,0,13,10.75Z"/><path d="M12.73,10l-.36.31v.07a.53.53,0,0,1,.62.23v.08h0a.08.08,0,0,0,0,.07h-.45V11l.2.1.07.31H13v1.86h.39V11.37h.14l.08-.31.22-.13v-.1h-.43a.17.17,0,0,0,0-.1v-.1a.14.14,0,0,1,0-.09.11.11,0,0,1,0-.08h0a.34.34,0,0,0-.09-.19h0a.07.07,0,0,0-.07.07.85.85,0,0,0-.39-.31h-.09Zm0,.08a.47.47,0,0,1,.36.22h0l.08-.06h0a.42.42,0,0,1,.07.15h0v.1a.24.24,0,0,0,0,.12.08.08,0,0,1,0,.07.06.06,0,0,1,0,.06h0v.16h.44l-.21.14a2.68,2.68,0,0,1-.07.27h-.16v1.86H13V11.36h-.17l-.06-.27-.2-.11h.48V10.9a.17.17,0,0,0,0-.1h0v-.09h0a.59.59,0,0,0-.58-.33Z"/><polygon points="21.65 18.18 13.01 18.18 13.01 18.27 21.68 18.27 21.68 18.18 21.65 18.18"/><path class="cls-7" d="M22.68,15.56a3.08,3.08,0,0,1,0,1l-.12.16s.22-.13.29,0,.15-.14.21,0L23,16.5a5,5,0,0,1,0-.95C22.93,15.46,22.68,15.56,22.68,15.56Z"/><path d="M22.66,15.53h0a2.8,2.8,0,0,1,0,1l-.13.17h.06c.06,0,.2-.08.24,0H23l-.1-.25c0-.3-.07-.6-.07-.79v-.12h0S22.87,15.44,22.66,15.53Zm.16,0a.43.43,0,0,0,0,.16,6.81,6.81,0,0,0,.05.78h0v.15a.24.24,0,0,0-.12,0h-.18a1.27,1.27,0,0,0,.08-.51,4.69,4.69,0,0,0,0-.53Z"/><path class="cls-5" d="M23.12,14.43s0-.79-.38-.53c0,0-.53-.12-.5.5v.28s-.33-.11-.28.19,0,.23.18.27-.37.17-.2.47.41.26.47.17.25.12.54-.08c0,0,.59.32.59-.26a.48.48,0,0,0-.14-.36s.34-.12.18-.4a.37.37,0,0,0-.47-.14Z"/><path d="M22.74,13.89a.49.49,0,0,0-.39.08.58.58,0,0,0-.16.43h0a.81.81,0,0,0,0,.22.37.37,0,0,0-.21,0,.2.2,0,0,0,0,.21v.06a.28.28,0,0,0,.11.22.49.49,0,0,0-.18.2v.09a.35.35,0,0,0,.05.18.5.5,0,0,0,.39.24.16.16,0,0,0,.15-.07h.12a.41.41,0,0,0,.4,0,.57.57,0,0,0,.48,0,.39.39,0,0,0,.15-.35.54.54,0,0,0-.12-.34.35.35,0,0,0,.17-.19.11.11,0,0,0,0-.08.25.25,0,0,0,0-.17.42.42,0,0,0-.47-.18h0c0-.07,0-.5-.2-.6A.21.21,0,0,0,22.74,13.89Zm0,.07h.16a1.52,1.52,0,0,1,.16.52h0v.16h0a.32.32,0,0,1,.4.13.15.15,0,0,1,0,.18c0,.1-.18.16-.18.16h0a.42.42,0,0,1,.14.32c0,.14,0,.23-.12.27a1.89,1.89,0,0,1-.42,0h0a.32.32,0,0,1-.33,0,.33.33,0,0,0-.22.05h-.08a.42.42,0,0,1-.32-.19.31.31,0,0,1,0-.19.41.41,0,0,1,.22-.21v-.08c-.11,0-.11-.08-.13-.19v-.18a.23.23,0,0,1,.2,0v-.08h0a1,1,0,0,1,0-.25.53.53,0,0,1,.14-.4.51.51,0,0,1,.32-.07h0Z"/><path d="M23,14.91A.09.09,0,0,0,23,15h0c.06.08.29.09.37.1h0V15h0a.77.77,0,0,1-.3-.06H23Z"/><path d="M22.54,15.36h0a.28.28,0,0,1,0,.22h.07a.45.45,0,0,0,.07-.28h0Z"/><path class="cls-5" d="M22.27,14.68a.19.19,0,0,0,.19,0"/><path d="M22.21,14.69h0a.33.33,0,0,0,.24,0h0v-.08h-.14Z"/><path class="cls-4" d="M17.15,21.56c0,.14.15.33.46.25s0-.86,0-.86a1.81,1.81,0,0,1,.15.65c0,.21.47.12.55-.15.36,0,.32-.36.32-.41,0-.3-.79-.26-.79-.26a5.59,5.59,0,0,0,.59-.08c.55-.22-.42-.65-.4-.64s-.42-.82-.55-.23a3.64,3.64,0,0,0,0,.66s.05-.2-.24-.62-.5-.07-.49.14c-.26.13-.45.19-.2.44.06.05.79.05.84.15s-.82-.18-.93-.05a.21.21,0,0,0,0,.29c0,.08-.07.21,0,.28s.93-.41,1-.27-.79.3-.82.46S17,21.65,17.15,21.56Z"/><path d="M17.64,19.57c-.09,0-.15.08-.18.23a1.93,1.93,0,0,0,0,.34h0a1.41,1.41,0,0,0-.19-.34c-.14-.22-.26-.23-.34-.21a.4.4,0,0,0-.19.36h-.07c-.13.06-.24.12-.25.2h0a.28.28,0,0,0,.12.2h-.08a.26.26,0,0,0-.07.16.38.38,0,0,0,0,.15h0v.08a.11.11,0,0,0,0,.08.14.14,0,0,0,0,.09,1.19,1.19,0,0,0,.43-.12,1.52,1.52,0,0,1,.51-.16c-.17.05-.77.3-.79.44h0a.17.17,0,0,0,.1.18.55.55,0,0,0,.45.07.21.21,0,0,0,.07.15.4.4,0,0,0,.42.09c.07,0,.09-.13.09-.27a2.41,2.41,0,0,0,0-.38,1.45,1.45,0,0,1,.07.35v.09a.11.11,0,0,0,.09.11.45.45,0,0,0,.49-.28.28.28,0,0,0,.24-.09.39.39,0,0,0,.09-.26v.22h0a.17.17,0,0,0-.07-.14.72.72,0,0,0-.4-.12l.32-.08a.2.2,0,0,0,.18-.18h0c0-.21-.45-.43-.57-.47S17.82,19.57,17.64,19.57Zm-.16.57a.92.92,0,0,1,0-.33c0-.14.08-.19.13-.19A1.42,1.42,0,0,1,18,20h0c.09,0,.52.25.53.43h0a.37.37,0,0,1-.15.15l-.58.08h0a1.74,1.74,0,0,1,.71.13.09.09,0,0,1,0,.1h0a.43.43,0,0,1-.07.29.35.35,0,0,1-.22.08h0a.45.45,0,0,1-.45.26.09.09,0,0,1-.06-.08h0a1.87,1.87,0,0,0-.15-.66h0c.07.33.11.82,0,.84a.45.45,0,0,1-.39-.08.19.19,0,0,1,0-.15h0a.49.49,0,0,1-.44,0,.18.18,0,0,1-.08-.18c0-.1.51-.32.82-.43h0a1.08,1.08,0,0,0-.56.16,1.85,1.85,0,0,1-.4.12.24.24,0,0,1,0-.12.14.14,0,0,0,0-.15h0a.21.21,0,0,1,0-.26c.07-.08.59,0,.91.07h0c0-.07-.21-.09-.51-.13h-.34c-.08-.09-.11-.15-.1-.19s.1-.11.23-.17h.09a.3.3,0,0,1,.16-.32.28.28,0,0,1,.29.18,1.58,1.58,0,0,1,.23.47v.15h0v-.48Z"/><path d="M9.53,23.16v.09h0a4.65,4.65,0,0,1,2.51.56.15.15,0,0,1,0,.13h.08a.2.2,0,0,0,0-.21c-.24-.4-1.79-.6-2.58-.6Z"/><path d="M9.74,23.25a.2.2,0,0,0-.16.19c0,.4,1.33,1.14,1.54,1.14h0V24.5h0c-.26-.09-1.47-.78-1.48-1.14,0,0,0-.07.11-.11h0v0Z"/><path d="M1.29,21a.25.25,0,0,0-.22.17.76.76,0,0,0,.28.58,2.92,2.92,0,0,0,2.79.69h0v-.08h0a2.46,2.46,0,0,1-.47.1h0a2.24,2.24,0,0,1-1.73-.59v-.25a.53.53,0,0,0,0-.35A.57.57,0,0,0,1.29,21Zm.12.68c-.22-.19-.27-.34-.27-.42v-.06a.16.16,0,0,1,.15-.12.52.52,0,0,1,.49.26.43.43,0,0,1,0,.16.29.29,0,0,1,0,.13v.13a.27.27,0,0,0,.08.19,1.61,1.61,0,0,0,.64.38,2.9,2.9,0,0,1-1-.65Z"/><path d="M25.21,23.16c-.79,0-2.34.2-2.58.6a.28.28,0,0,0,0,.22h.08a.17.17,0,0,1,0-.14c.21-.34,1.63-.55,2.51-.55h0v-.13Z"/><path d="M25,23.32h0c.12,0,.12.09.12.11,0,.31-1.22,1-1.48,1.14h0v.08h0c.21-.07,1.53-.77,1.53-1.14a.18.18,0,0,0-.15-.19h0Z"/><path d="M32.93,21.26a.55.55,0,0,0,0,.36v.25a2.33,2.33,0,0,1-1.66.52h0a3.56,3.56,0,0,1-.47-.1h0v.08h0a2.9,2.9,0,0,0,2.78-.7c.31-.28.31-.47.29-.58a.29.29,0,0,0-.23-.17A.59.59,0,0,0,32.93,21.26Zm0,.66a.26.26,0,0,0,.06-.19v-.26a.43.43,0,0,1,0-.16.54.54,0,0,1,.49-.26.16.16,0,0,1,.16.12v.06c0,.08,0,.23-.26.42a2.88,2.88,0,0,1-1.14.65,1.72,1.72,0,0,0,.67-.38Z"/><path d="M4.53,24.11l-.27-1L4.52,23h.19a.26.26,0,0,1,.09.16v.24h0c.09,0,.15.05.18.18s0,.08,0,.12a.21.21,0,0,1-.17.25Zm.16-.21h.08a.15.15,0,0,0,0-.16c0-.1-.07-.14-.16-.1H4.54l.08.29Zm-.13-.44a.21.21,0,0,0,.11-.07.24.24,0,0,0,0-.12c0-.06,0-.1-.12-.08H4.48l.07.25Z"/><path d="M5.15,23.82l-.28-1,.44-.16v.15L5.1,23l.07.24.26-.08v.13l-.26.11.08.28.28-.09v.14Z"/><path d="M5.78,23.15l.1.42H5.72l-.24-1,.31-.1c.14,0,.26,0,.3.16S6.12,23,6,23H6c.09,0,.13,0,.16.13s0,.28.11.3h0l-.17.06a.62.62,0,0,1-.1-.22s0-.14-.09-.14H5.77Zm0-.15H5.9a.12.12,0,0,0,0-.17c-.08-.1-.06-.11-.12-.1H5.67Z"/><path d="M6.6,22.63c0-.09,0-.19-.13-.15a.09.09,0,0,0-.08.1h0a.2.2,0,0,0,.13.12.88.88,0,0,1,.22.1.25.25,0,0,1,.12.19.29.29,0,0,1-.18.36h0c-.19,0-.28-.05-.31-.22v-.08h.17c0,.1.06.16.14.13s.09-.06.07-.13a.18.18,0,0,0-.09-.12,1.14,1.14,0,0,1-.29-.15.23.23,0,0,1-.08-.14.27.27,0,0,1,.18-.34h0c.25-.07.3.16.32.26Z"/><path d="M7,23.23l-.18-1,.45-.11v.14L7,22.33v.26l.26-.08v.15l-.15.07V23L7.47,23v.15Z"/><path d="M7.62,23.08l-.16-1h.17l.07.44h0c0-.08,0-.17.07-.26V22H8l-.15.47.32.53H7.94l-.22-.37v.41Z"/><path d="M8.54,21.84h.17l.08.7c0,.22,0,.35-.25.37s-.26-.05-.26-.27l-.08-.71h.16l.08.7c0,.09,0,.19.13.17s.11-.12.09-.22Z"/><path d="M8.85,21.84h.56V22h-.2v.87H9.1V22H8.86Z"/><path d="M10,21.84h.17v.71c0,.24-.07.34-.29.33s-.28-.12-.27-.34v-.71h.17v.69c0,.1,0,.19.12.2s.12-.09.12-.2Z"/><path d="M10.41,26.39l.21-1.14.26.08a.23.23,0,0,1,.17.15.38.38,0,0,1,0,.21c0,.11,0,.2-.15.21h0c.09,0,.1.16.08.3v.14c-.07.14-.14.17-.25.14Zm.22-.11a.09.09,0,0,0,.1,0,.42.42,0,0,0,.08-.13c0-.06,0-.18-.08-.22h-.07l-.11.29Zm.09-.51h.12a.13.13,0,0,0,0-.12v-.16h-.07v.29Z"/><path d="M11.09,26.53l.15-1.13.46.1v.17l-.31-.07v.29l.28.06v.17l-.27-.06v.36l.3.07v.17Z"/><path d="M11.92,26.2l-.05.5h-.16l.11-1.13.31.07a.23.23,0,0,1,.23.26V26c0,.13-.06.27-.17.25h0c.1,0,.12.13.1.23a1.27,1.27,0,0,0,0,.39h-.18a1.5,1.5,0,0,1,0-.3v-.2a.33.33,0,0,0-.14,0Zm0-.17h.13c.06,0,.1,0,.11-.16s0-.15-.09-.17H12Z"/><path d="M12.47,25.64l.56.09v.17h-.2l-.08,1h-.16l.08-1h-.19Z"/><path d="M13,26.9l.28-1.14h.23L13.59,27h-.18v-.3h-.19l-.07.28Zm.27-.43h.15V25.9h0V26a.38.38,0,0,0,0,.15Z"/><path d="M13.85,27H13.7l.06-1.14H14v.82h0v-.26l.12-.53h.26L14.34,27h0V26h0l-.24,1H14l-.12-1.14h0V27Z"/><path d="M14.63,27.1l0-1.13H15a.18.18,0,0,1,.18.1.38.38,0,0,1,0,.21c0,.11,0,.21-.12.24h0c.09,0,.13.13.12.29v.13a.2.2,0,0,1-.23.2Zm.2-.16h.1a.44.44,0,0,0,.06-.16c0-.05,0-.18-.11-.19h-.06v.35Zm0-.52H15s0-.06,0-.12,0-.13-.1-.14h-.08v.23Z"/><path d="M15.23,27.15,15.48,26h.23l.16,1.14h-.19v-.31h-.19l-.06.3Zm.26-.45h.14v-.58h0a.08.08,0,0,0,0,.07v.17Z"/><path d="M16,27.2V26.07h.17v.46h.22v-.48h.17v1.13h-.17v-.52h-.22v.54Z"/><path d="M17.15,27.25H17V26.11h.27l.08.55a1.22,1.22,0,0,1,0,.27h0v-.27l.08-.54h.26v1.14h-.17V26.19h0l-.18,1.07h0l-.18-1.07h0v.7Z"/><path d="M18.28,26.07h.22v.82c0,.26-.06.38-.27.39s-.29-.12-.3-.38v-.82h.16v.79c0,.13,0,.23.13.23s.11-.11.1-.24Z"/><path d="M18.5,26.06h.56v.17h-.2v1h-.17v-1h-.18Z"/><path d="M19.64,26h.17v.81c0,.27,0,.39-.26.41s-.29-.09-.31-.35V26h.16l.05.8c0,.1,0,.21.13.21s.11-.13.1-.23Z"/><line class="cls-8" x1="18.06" y1="18.9" x2="17.84" y2="18.78"/><polygon points="17.79 18.79 18.07 18.96 18.11 18.89 17.83 18.72 17.79 18.79"/><line class="cls-8" x1="18.09" y1="19.09" x2="17.91" y2="18.96"/><polygon points="17.85 18.98 18.1 19.15 18.16 19.08 17.9 18.9 17.85 18.98"/><line class="cls-8" x1="18.18" y1="18.9" x2="18.31" y2="18.73"/><polygon points="18.27 18.71 18.13 18.91 18.18 18.96 18.36 18.72 18.3 18.67 18.27 18.71"/><line class="cls-8" x1="18.18" y1="19.05" x2="18.35" y2="18.9"/><polygon points="18.32 18.88 18.13 19.05 18.18 19.11 18.41 18.9 18.35 18.84 18.32 18.88"/><path class="cls-9" d="M12.3,18.55a.34.34,0,0,1-.19.1.32.32,0,0,1-.21-.1h-.06c-.08.1-.11.1-.14.1v.17a.28.28,0,0,0,.21-.1.43.43,0,0,0,.24.1h0a.39.39,0,0,0,.25-.1.4.4,0,0,0,.21.09.22.22,0,0,0,.2-.07.39.39,0,0,0,.3.08v-.17c-.13,0-.19,0-.22-.07h-.15c-.06.08-.1.08-.1.08h0a.27.27,0,0,1-.16-.1H12.3Zm.26.27Z"/><path class="cls-9" d="M12.3,19c-.13.11-.18.11-.19.11A.31.31,0,0,1,11.9,19l-.11.12a.52.52,0,0,0,.3.16.52.52,0,0,0,.27-.1.56.56,0,0,0,.19.09.25.25,0,0,0,.2-.07.46.46,0,0,0,.3.08v-.17c-.13,0-.18,0-.22-.07a.08.08,0,0,0-.07,0h-.08a.12.12,0,0,0-.1.07h0a.26.26,0,0,1-.16-.09,0,0,0,0,0-.05,0Zm.26.27Z"/><path class="cls-9" d="M12.3,19.5l-.14.11.07.15.11-.08a.51.51,0,0,0,.21.1.29.29,0,0,0,.2-.07.46.46,0,0,0,.3.08v-.22h-.23l-.07-.06a.11.11,0,0,0-.08,0c-.05.08-.1.08-.1.08a.33.33,0,0,1-.17-.1h-.1Z"/><path class="cls-9" d="M12.68,20.07s-.07.08-.1.08v.16a.21.21,0,0,0,.15-.07.46.46,0,0,0,.3.08v-.17c-.13,0-.19,0-.22-.07h-.13Z"/><path class="cls-2" d="M10.94,16.36H13v1.31h-1.8a2.74,2.74,0,0,1-.17-.48Z"/><polygon points="13.06 16.32 10.9 16.32 10.9 16.41 13.11 16.41 13.11 16.32 13.06 16.32"/><path class="cls-9" d="M12.3,18c-.11.11-.17.12-.19.11a.3.3,0,0,1-.2-.1.08.08,0,0,0-.07,0,0,0,0,0,0-.05,0c-.08.1-.13.1-.15.1a.65.65,0,0,1-.22-.11l-.11.12a.6.6,0,0,0,.33.16.32.32,0,0,0,.22-.1.34.34,0,0,0,.23.1.39.39,0,0,0,.27-.1.35.35,0,0,0,.19.1h0a.26.26,0,0,0,.19-.07.45.45,0,0,0,.3.07v-.17c-.13,0-.18,0-.22-.08h-.07a.11.11,0,0,0-.08,0s-.06.08-.11.08a.39.39,0,0,1-.16-.1.06.06,0,0,0-.06,0Z"/><path d="M24.42,25.41v-.08l-.1.07a.78.78,0,0,1-.07.6.52.52,0,0,1-.38.24h-.18s.48.19.66-.18a.88.88,0,0,0,.1-.55h.22a.26.26,0,0,0,.19-.16.19.19,0,0,0,0-.18.41.41,0,0,0-.17-.12l-.09.15s.26.11,0,.19A.37.37,0,0,1,24.42,25.41Z"/><polygon points="24.59 25.66 24.51 25.76 24.61 25.85 24.69 25.75 24.59 25.66"/><polygon points="23.7 24.89 23.61 24.99 23.71 25.09 23.8 24.98 23.7 24.89"/><polygon points="23.1 26.41 23.02 26.52 23.11 26.61 23.2 26.51 23.1 26.41"/><polygon points="20.71 25.75 20.64 25.85 20.73 25.94 20.83 25.84 20.71 25.75"/><polygon points="20.93 25.68 20.85 25.78 20.94 25.89 21.05 25.77 20.93 25.68"/><polygon points="23.9 24.82 23.8 24.93 23.91 25.03 24 24.92 23.9 24.82"/><polygon points="25.72 21.56 25.64 21.66 25.74 21.76 25.84 21.66 25.72 21.56"/><polygon points="25.52 21.58 25.44 21.7 25.53 21.79 25.63 21.68 25.52 21.58"/><polygon points="28.72 22.93 28.62 23.06 28.72 23.17 28.84 23.04 28.72 22.93"/><path d="M22.38,26.24c-.05.1-.13.58-.43.59a.43.43,0,0,1-.41-.32c.13.13.23.22.38.19s.31-.36.35-.45l.1-.19s.06.18.44.14c.59-.05.56-.29.56-.29a.19.19,0,0,0,.18,0c.11,0,.3-.29.46-.22a.12.12,0,0,1,.12.13.12.12,0,0,1-.12.12.36.36,0,0,1-.3-.1.28.28,0,0,1-.09-.14,2.35,2.35,0,0,1,.08-.35h.23c.07,0,0-.16,0-.16L24,25s.2.21.12.35-.36.15-.36.15v.09c0,.1,0,.14.08.18s.15.11.2.06,0-.1-.12-.06-.25.23-.36.25a.25.25,0,0,1-.17,0s.09.19-.49.3A.75.75,0,0,1,22.38,26.24Z"/><path d="M21.65,26.18a.36.36,0,0,1-.23.13.92.92,0,0,1-.08.59.57.57,0,0,1-.43.32c-.14,0-.25-.21-.25-.21a1.27,1.27,0,0,0,.53-.1.76.76,0,0,0,.14-.55.54.54,0,0,1-.18,0c-.09,0-.08-.17,0-.22s.17-.21.21-.15l.09.16c.16,0,.14,0,.2-.12s.11-.21.17-.23a.27.27,0,0,1,.24.17.21.21,0,0,1-.19.18.27.27,0,0,1-.12-.09l.07-.08s.09.08.12,0,0-.11-.07-.12S21.71,26.1,21.65,26.18Z"/><path d="M20.87,26.3a.45.45,0,0,1-.1.09c-.13.05-.08,0-.15,0s-.08-.23-.14-.24-.2.15-.22.28.16.14.24.12,0,.37-.24.48a.33.33,0,0,1-.41-.1s.09.29.3.27a.39.39,0,0,0,.38-.27,1.19,1.19,0,0,0,.11-.41.58.58,0,0,0,.21-.07c.12,0,.17-.06.19-.17s-.13-.3-.13-.3l-.12.18S20.89,26.23,20.87,26.3Z"/><path d="M22.37,25.9a.27.27,0,0,0,.17-.06c.07-.07-.18-.19-.18-.19v.08s.12,0,.1.08-.15.08-.18,0,.07-.11.07-.09a.39.39,0,0,1-.19.35.57.57,0,0,0-.13.08.26.26,0,0,0,.24-.07.43.43,0,0,0,.14-.32v-.18c0,.07-.18.19-.16.27S22.37,25.9,22.37,25.9Z"/><path d="M29,22.75a1.88,1.88,0,0,0-.06-.31l-.15.12s.11.1,0,.12-.29,0-.33-.08-.22.55-.53.59a.49.49,0,0,1-.52-.15c-.06-.1.09.44.5.32a.81.81,0,0,0,.57-.6h.27A.27.27,0,0,0,29,22.75Z"/><path d="M26.53,22.51a.45.45,0,0,1-.23,0c-.05.11-.19.5-.56.49s-.29-.45-.29-.45a.27.27,0,0,0,.24.3h0c.32,0,.48-.36.48-.36A.2.2,0,0,1,26,22.4c0-.1.17-.28.24-.27s.08.24.08.24a.21.21,0,0,0,.24,0c-.08-.11-.23-.41-.15-.48a1.12,1.12,0,0,1,.8-.12c.24.12,0,.25,0,.25H27.1s.09-.05,0-.1-.59,0-.6.12.2.38.2.38a.64.64,0,0,0,.6,0c.08.22.29.07.29.07s.11.14.19.13,0-.14,0-.14L28,22.4a.42.42,0,0,1,0,.31,1.19,1.19,0,0,1-.23.05.36.36,0,0,1-.21-.13c-.16.08-.22,0-.22,0a1.41,1.41,0,0,1-.41,0,1.11,1.11,0,0,1-.3-.12Z"/><path d="M25.75,21.93l-.16.08v.14a.55.55,0,0,1-.22-.06s0-.17-.07-.17-.26.15-.25.22.2.1.2.1,0,.22-.47.34a.35.35,0,0,1-.26-.16.27.27,0,0,0,.21.31h.06a.71.71,0,0,0,.55-.47s.29.13.41,0S25.75,21.93,25.75,21.93Z"/><path d="M17.43,20.71a1.23,1.23,0,0,0-.49.09c-.12.09.41-.08.47,0s.1,0,0,.25a1.25,1.25,0,0,0-.1.27l.17-.32s0-.2.13-.12.5.19.53.33a2.16,2.16,0,0,0-.41-.39s.05-.47.2-.49l-.38.38a1.92,1.92,0,0,1-.26-.32c-.15-.21-.27-.23-.27-.23l.4.51"/><path d="M17,20.15l.41.52h0l-.34-.44a.8.8,0,0,1,.15.17c.15.19.27.32.27.33h0l.24-.23a1.55,1.55,0,0,0-.07.31h0a.68.68,0,0,1,.21.17l-.13-.06-.18-.09a.06.06,0,0,0-.08,0c-.07,0-.09.14-.09.16h0a.43.43,0,0,0,0-.16v-.07s0,0-.06,0a.71.71,0,0,0-.29,0,1.71,1.71,0,0,1,.32,0h0a1.24,1.24,0,0,0-.5.09h0a1.09,1.09,0,0,1,.44,0h0v.21a1.57,1.57,0,0,0-.1.28h0l.17-.3h0a.15.15,0,0,1,0-.13h0l.19.1a1.08,1.08,0,0,1,.24.12l.09.1h0a.22.22,0,0,0-.1-.11,1.38,1.38,0,0,0-.31-.28,2.24,2.24,0,0,1,.1-.37l.09-.09h0s-.05,0-.08.09l-.28.27a4.06,4.06,0,0,1-.25-.32.51.51,0,0,0-.26-.22Z"/><path class="cls-4" d="M17.51,20.81a6.76,6.76,0,0,0,.6-1.81c-.05-.33-.18-.39-.18-.39h.21v.55a7.21,7.21,0,0,1-.64,1.73"/><path d="M18.14,18.54h-.22s.11,0,.18.38h0a8.22,8.22,0,0,1-.6,1.75h0a6.29,6.29,0,0,0,.65-1.74v-.55h0Zm0,0v.53a7.16,7.16,0,0,1-.63,1.69A7.59,7.59,0,0,0,18.13,19V19a.79.79,0,0,0-.16-.39Z"/><path class="cls-5" d="M11.92,14.7v-.17h0v-.09h0a.11.11,0,0,0,0-.08h0s0-.08-.1,0a.24.24,0,0,0,0,.12h0a.17.17,0,0,0,0,.1h0v.13h0a.11.11,0,0,1-.07-.08h0v-.08h0v-.08h0v-.09h.17a.14.14,0,0,1,.09,0h.16a.14.14,0,0,0-.13-.09h-.2v-.08h-.05c-.06,0,0-.08.05-.09H12s.1,0,.11.06v-.06l.09.08h0v.08h0a.37.37,0,0,1,0,.11.22.22,0,0,0-.07-.16.15.15,0,0,0-.19-.06h-.08a.07.07,0,0,1,.08-.07h.16s.07.08.07.1v-.06a.21.21,0,0,1,0,.11h0v0a.43.43,0,0,1,0-.16V14h0V14a.38.38,0,0,1,0,.15.81.81,0,0,0,0,.22v-.18h0a.21.21,0,0,1,0-.11v.07l.08-.11h0c0-.05.07,0,.07,0h.1l.07.07h-.06a.16.16,0,0,0-.2.06s-.07.19-.07.16a.33.33,0,0,1,.06-.1h0l.05-.07h0l.08-.07h0l.09-.06v.06h.18l.06.1a.09.09,0,0,0-.06-.06v.1h0a.21.21,0,0,0-.19,0,.15.15,0,0,0-.12.1h.41v.09h0v.07h0v.08h0l-.08.08h0v-.14h0v-.1h0a.24.24,0,0,0,0-.12h-.11v.08h0a.21.21,0,0,1,0,.11h0a.2.2,0,0,1,0,.15"/><path d="M12,13.77a.2.2,0,0,0,0,.11v.26h0V14h0V14h0s-.06-.08-.07-.08h-.16l-.07.07h0a.13.13,0,0,1,.2,0h0v-.07h0l-.07-.06h-.22a.12.12,0,0,0-.05.09h0V14h0v-.07a.19.19,0,0,1,.18,0,.12.12,0,0,1,.11.08h-.2a.11.11,0,0,0,0,.08h0a.11.11,0,0,0,0,.08h0a.09.09,0,0,0,0,.07h0s0,0,.06.06h0v-.11h0v-.07h0a.2.2,0,0,1,0-.11h0V14h0v.23h0v-.15h0v-.07h-.05a.11.11,0,0,0-.06.1h0a.11.11,0,0,0,0,.08h0a.29.29,0,0,0,0,.13h0v-.07h.28a.13.13,0,0,0-.13-.1.18.18,0,0,0-.19.05h0v-.05h.14v.05h0v.06h0a.2.2,0,0,0,0-.11.13.13,0,0,0-.2,0h.19a.21.21,0,0,1,.06.1h0v.08h0v.09h0v.06h0V14.3a.33.33,0,0,1,0-.14h0a.17.17,0,0,1,0-.1v-.17h0a.33.33,0,0,1,0,.14.88.88,0,0,0,0,.23h0V14.2h0v-.08h0a.11.11,0,0,1,0-.08h0a.19.19,0,0,1,0-.09h.14a.25.25,0,0,0-.2.06.24.24,0,0,0-.06.11h0v-.06h0V14h.24v.06h0a.35.35,0,0,0-.19-.06.2.2,0,0,0-.13.12h.23v.05h0a.2.2,0,0,1-.06.07h0V14.1h0V14h0a.14.14,0,0,0-.06-.11h-.05V14h0v.07h0v.13h0V14h0a.13.13,0,0,1,.05.11h0v0h0a.14.14,0,0,1,0,.09h0a.14.14,0,0,0,.08-.07h0a.08.08,0,0,0,0-.07h0V14h0a.11.11,0,0,0,0-.08h-.31a.14.14,0,0,1,.1-.08c.1,0,.16,0,.18.05h0v-.06h.06a.24.24,0,0,0-.06-.11H11.5l-.06.06h0a.13.13,0,0,1,.18,0h0a.07.07,0,0,0-.06-.07H11.4l-.06.08h0v.08h0V14h0v-.15a.17.17,0,0,0,0-.1h0v-.05h0Z"/><path class="cls-10" d="M11.94,15.48V14.7h0l.06.06s.11,0,.11.09H12a.06.06,0,0,1,0-.06h0v.68h-.1Z"/><path d="M11.92,14.7v.78H12V14.8h0v.07h0v.06h.07l-.1-.08h0l-.07-.07h-.08Zm0,.2v-.2h0l.07.07s.09,0,.09.08H12a.06.06,0,0,1,0-.06H12v.73h0v-.61Z"/><path class="cls-5" d="M11.34,15.83h0v-.11h.07v.06a.09.09,0,0,0,0-.07v0h0V15.6h0v-.06h0v-.09h0v0h0v0h0a.11.11,0,0,0,0-.08v0a.08.08,0,0,1,0,.07h.07v0s0,0,.06,0v.07h.05a.06.06,0,0,1,0,.06h.07a.08.08,0,0,1,0,.07h.07a.08.08,0,0,1,0,.07h.08v.05H12v.08Z"/><path d="M12.3,15.4a.14.14,0,0,0,0,.09h-.06a.06.06,0,0,1,0,.06v-.06h0v.07h0a.06.06,0,0,0,0,.06.09.09,0,0,0,0-.07h0a.06.06,0,0,1,0,.06h0v.08h0a.06.06,0,0,1,0,.06h0V15.7h-.92a.21.21,0,0,1,0,.11h1.36v-.06a0,0,0,0,0,0-.05H12.5v-.06h-.12v-.07h-.06V15.5h0v-.09h0Zm0,0v.06h.18v.06h.07v.08H11.34a.17.17,0,0,0,0-.1h0v.06h0a.06.06,0,0,0,0-.06h0v-.07h0v-.1h0v-.06h0v.05h0a.11.11,0,0,0,0-.08h0v-.06h.06a.47.47,0,0,1,.58-.32.47.47,0,0,1,.31.58Z"/><path class="cls-9" d="M12.56,15.88c-.1,0-.18,0-.18-.08s.09-.09.19-.08.18.08.18.14S12.66,15.9,12.56,15.88Z"/><path d="M12.4,15.74h0c0,.07,0,.07.11.07h.24c0-.07-.07-.12-.18-.15A.23.23,0,0,0,12.4,15.74Zm.09.14c-.07,0-.11,0-.1-.08h0a.43.43,0,0,1,.16,0,.17.17,0,0,1,.17.14h-.23Z"/><path class="cls-1" d="M12.29,15.86c-.1,0-.18,0-.18-.07s.08-.11.18-.1.18,0,.18.11S12.39,15.86,12.29,15.86Z"/><path d="M12.12,15.73a.08.08,0,0,0,0,.11h.34s0,0,0-.06-.09-.11-.2-.11A.16.16,0,0,0,12.12,15.73Zm0,.1h0v-.05a.22.22,0,0,1,.16,0c.09,0,.18,0,.18.1h-.24s-.08,0-.09-.05Z"/><path class="cls-9" d="M12,15.85c.11,0,.19,0,.2-.06s-.08-.11-.19-.11-.19,0-.19.1S11.9,15.85,12,15.85Z"/><path d="M11.82,15.78a.08.08,0,0,0,0,.07h.34v-.06a.09.09,0,0,0,0-.07H12C11.91,15.68,11.82,15.72,11.82,15.78Zm0,.05v-.05a.31.31,0,0,1,.18-.1.14.14,0,0,1,.15,0v.05h-.33Z"/><path class="cls-1" d="M11.74,15.86c.1,0,.18,0,.18-.07s-.08-.11-.17-.1-.19,0-.19.11S11.69,15.86,11.74,15.86Z"/><path d="M11.75,15.69c-.11,0-.2,0-.2.11a.06.06,0,0,0,0,.06h.34a.09.09,0,0,0,0-.12h0A.24.24,0,0,0,11.75,15.69Zm-.18.16h0a.3.3,0,0,1,.19-.11h.15v.06h-.22S11.59,15.87,11.57,15.85Z"/><rect class="cls-1" x="11.06" y="17.25" width="2.03" height="0.05"/><rect x="11.09" y="17.24" width="1.99" height="0.02"/><rect x="11.09" y="17.3" width="1.99" height="0.01"/><rect class="cls-1" x="11.65" y="16.75" width="0.06" height="0.83"/><polygon points="11.71 17.16 11.8 17.25 11.8 17.25 11.72 17.15 11.71 17.16"/><polygon points="11.71 16.87 12.08 17.25 12.09 17.24 11.72 16.87 11.71 16.87"/><polygon points="11.72 16.98 11.99 17.25 12 17.24 11.72 16.97 11.72 16.98"/><polygon points="11.71 17.07 11.89 17.25 11.9 17.24 11.72 17.06 11.71 17.07"/><polygon points="11.56 17.25 11.56 17.25 11.65 17.16 11.64 17.15 11.56 17.25"/><polygon points="11.27 17.24 11.28 17.25 11.65 16.87 11.64 16.87 11.27 17.24"/><polygon points="11.37 17.24 11.37 17.25 11.65 16.97 11.64 16.96 11.37 17.24"/><polygon points="11.47 17.24 11.47 17.25 11.66 17.07 11.65 17.06 11.47 17.24"/><rect class="cls-1" x="12.48" y="16.75" width="0.07" height="0.83"/><path d="M12.54,16.75h-.07v.84h.08v-.84Zm0,0v.82h-.06v-.82Z"/><polygon points="12.54 17.16 12.63 17.25 12.64 17.25 12.55 17.15 12.54 17.16"/><polygon points="12.54 16.87 12.91 17.25 12.92 17.24 12.55 16.87 12.54 16.87"/><polygon points="12.55 16.98 12.81 17.25 12.82 17.24 12.55 16.97 12.55 16.98"/><polygon points="12.53 17.07 12.72 17.25 12.72 17.24 12.54 17.06 12.53 17.07"/><polygon points="12.39 17.25 12.39 17.25 12.48 17.16 12.47 17.15 12.39 17.25"/><polygon points="12.09 17.24 12.11 17.25 12.48 16.87 12.47 16.87 12.09 17.24"/><polygon points="12.19 17.24 12.2 17.25 12.48 16.97 12.47 16.96 12.19 17.24"/><polygon points="12.29 17.24 12.3 17.25 12.48 17.07 12.48 17.06 12.29 17.24"/><path class="cls-9" d="M11.47,15.88c.1,0,.18,0,.18-.08s-.09-.09-.19-.08-.18.08-.18.14S11.37,15.9,11.47,15.88Z"/><path d="M11.46,15.71c-.1,0-.19.08-.18.15h.24c.05,0,.11,0,.11-.08h0A.23.23,0,0,0,11.46,15.71Zm-.16.19h0s.07-.12.17-.13a.22.22,0,0,1,.16,0h0c0,.06,0,.06-.1.08H11.4S11.32,15.91,11.3,15.9Z"/><path class="cls-10" d="M12,15.16h-.07"/><path d="M11.92,15.16h0Z"/><path d="M12,14.85a.06.06,0,0,0,0,.06h0Z"/><path d="M12,14.69h0a.29.29,0,0,1,0-.13h0Z"/><path d="M11.94,14.69h0v-.24h0A1,1,0,0,0,11.94,14.69Z"/><rect x="13.01" y="13.43" width="0.08" height="7.41"/><rect class="cls-9" x="11.19" y="17.55" width="1.83" height="0.17"/><path d="M23.87,9.85h-13v6.3A7.55,7.55,0,0,0,13,20.76a9.1,9.1,0,0,0,4.35,2.88h0a9.07,9.07,0,0,0,4.37-2.83,7.6,7.6,0,0,0,2.19-4.65V9.86h-.05Zm-6.47.09h6.44v6.22a7.42,7.42,0,0,1-2.13,4.55,8.89,8.89,0,0,1-4.35,2.85h0a9,9,0,0,1-4.28-2.85A7.47,7.47,0,0,1,11,16.16V9.94Z"/><path class="cls-1" d="M9.64,4.74a.62.62,0,0,0-.33,0,.64.64,0,0,0,.4.11c.08.05-.18,0-.18,0S9.6,4.74,9.64,4.74Z"/><path d="M10.29,5.55a.06.06,0,0,0,.06-.06m-.12,0a.06.06,0,0,0,.06.06Z"/><path d="M10.46,5.44s.09,0,.09-.07m-.06,0h-.07a.07.07,0,0,0,0,.07Z"/><path d="M10.61,5.31a.06.06,0,0,0,0-.12h0a.06.06,0,0,0-.06.06S10.58,5.3,10.61,5.31Z"/><path d="M10.55,5.17a.06.06,0,0,0,.06-.06h0a.07.07,0,0,0-.13-.05,0,0,0,0,0,0,.05A.07.07,0,0,0,10.55,5.17Z"/><path d="M26.78,4.44l-.61.1s-.29-.12-.29,0v.2a.22.22,0,0,0-.27.11.19.19,0,0,1-.24.1h0a4.14,4.14,0,0,0,.3-.5c0-.09.3-.21.3-.21h.3Z"/><path d="M24.83,5.86a4.21,4.21,0,0,1-.49.09h-.16L24,5.74l.21-.11a2.85,2.85,0,0,0,.39.11c.12,0,.36-.2.5-.24s.38-.62.31-.62-.1.4,0,.54S24.92,5.71,24.83,5.86Z"/><path d="M25.32,4.9h0a1.93,1.93,0,0,0,0,.34.53.53,0,0,1-.23.24.51.51,0,0,0-.23.12c-.09,0-.2.13-.26.11a2.85,2.85,0,0,1-.39-.11h0L24,5.75l.27.25h.2l.42-.06h0a.7.7,0,0,1,.24-.17.62.62,0,0,0,.25-.2h0V5.35a.71.71,0,0,0,.06-.28h0s0-.07-.05-.07Zm-.48.79a1.06,1.06,0,0,1,.21-.11.49.49,0,0,0,.22-.18v.09h0a1.11,1.11,0,0,1-.2.13,1.35,1.35,0,0,0-.27.2,3.4,3.4,0,0,1-.46.09.41.41,0,0,0-.16,0L24,5.78l.17-.07.39.12a.49.49,0,0,0,.23-.14Z"/><path d="M25.51,5.16s.23.24.17.41a.83.83,0,0,0-.06.21l-.05-.44-.11-.15h-.11S25.46,5.09,25.51,5.16Z"/><path d="M25.32,5.12h.11l.09.13v.44h.08a.66.66,0,0,1,.06-.2c.05-.18-.17-.43-.19-.45h0S25.37,5.09,25.32,5.12Zm.28.24a.38.38,0,0,1,0,.15h0a.39.39,0,0,0,0-.15Z"/><path d="M25.37,4.63c-.13.12.45.12.3.23a2.86,2.86,0,0,1-.9.24h-.08s-.31,0-.33-.1-.37-.41-.21-.38.47.29.46.23-.17-.15-.1-.12A2.85,2.85,0,0,0,25,4.6.81.81,0,0,1,25.37,4.63Z"/><path d="M25.24,5.94c-.07-.35-.77-.87-1-.75h0A1.84,1.84,0,0,1,25.24,5.94Z"/><path d="M25.12,6.1c-.08-.35-.76-.86-1-.75h0A1.78,1.78,0,0,1,25.12,6.1Z"/><path d="M25.42,5.53c-.2-.3-1-.54-1.21-.34h0A1.75,1.75,0,0,1,25.42,5.53Z"/><path class="cls-1" d="M25.09,4.74h.32a.6.6,0,0,1-.39.11c-.08,0,.18-.09.18-.09Z"/><path d="M24.44,5.55a.06.06,0,1,1,.06-.06h0A.06.06,0,0,1,24.44,5.55Z"/><path d="M24.27,5.44V5.37m.11,0s-.08.07-.11.07Z"/><path d="M24.18,5.31s-.06,0-.06-.06a.06.06,0,0,1,.06-.06Z"/><path d="M24.12,5.11a.06.06,0,0,1,.12,0Z"/><path class="cls-2" d="M20.34,4.11A3.31,3.31,0,1,1,14.39,7a3.18,3.18,0,0,1-.33-1.42,3.42,3.42,0,0,1,.34-1.48h0a3.66,3.66,0,0,0-.66,2.1,3.68,3.68,0,0,0,7.36.14,3.63,3.63,0,0,0-.67-2.18l-.1-.09Z"/><path d="M20.28,4.06v.08h0A3.26,3.26,0,0,1,14.42,7a3.26,3.26,0,0,1,0-2.88h0l-.09.07h0a3.72,3.72,0,1,0,6.16,0h0L20.31,4Zm.49,1.51a3.39,3.39,0,0,0-.28-1.34,3.61,3.61,0,0,1,.6,2,3.65,3.65,0,0,1-7.28,0,3.68,3.68,0,0,1,.43-1.72,3.78,3.78,0,0,0-.16,1.06,3.35,3.35,0,0,0,6.69,0Z"/><path class="cls-4" d="M14.45,21.39a1,1,0,0,0,.73-.31l-.09-.18c0-.07.08,0,.08,0s0,.07.08,0,0-.1,0-.1a.56.56,0,0,0-.07-.18h0L15,20.8l.08.15a.85.85,0,0,1-.62.26.82.82,0,0,1-.63-.26l.07-.15s0-.2-.18-.18h0a.49.49,0,0,0-.08.18v.1s.08,0,.08,0h.08l-.08.18a1,1,0,0,0,.74.31Z"/><path d="M15.09,20.71a.24.24,0,0,0-.05.14s.06.14.06.15a.89.89,0,0,1-1.23,0l.06-.15h0a.17.17,0,0,0,0-.14.09.09,0,0,0-.12,0h0a1,1,0,0,0-.07.18V21h0l-.08.18h0a1,1,0,0,0,.74.31h0a1.12,1.12,0,0,0,.73-.31h0l0-.28h0m.06,0h0a.11.11,0,0,0,0-.08,1.42,1.42,0,0,0-.08-.18h0a.19.19,0,0,0,0,.07Zm-.06-.19a.13.13,0,0,1,.12,0h0l.08.17V21h-.06l.08.18h0a1.14,1.14,0,0,1-.72.3h0a.93.93,0,0,1-.72-.3h0L14,21h0v-.1a.7.7,0,0,1,.06-.17h.12a.38.38,0,0,1,0,.15l-.07.15h0a.84.84,0,0,0,.64.26.78.78,0,0,0,.62-.26h0l-.07-.15A.22.22,0,0,1,15.09,20.71Z"/><rect class="cls-1" x="13.82" y="19.64" width="1.24" height="0.35"/><path d="M15.09,19.63H13.84V20h1.25Zm0,0V20H13.83v-.34Z"/><polyline class="cls-11" points="13.82 19.64 14.43 19.82 15.06 19.64"/><polygon class="cls-4" points="13.82 19.8 14.43 19.98 15.06 19.8 15.06 19.98 13.82 19.98 13.82 19.8"/><path d="M15.09,19.57H13.78v.78a.89.89,0,0,0,.65.75h0a.91.91,0,0,0,.66-.75Zm0,0v.77a.89.89,0,0,1-.63.74c-.64-.26-.65-.73-.65-.74v-.77Z"/><path d="M15.09,19.63H13.84V20h1.25v-.37Zm0,0V20H13.83v-.33Z"/><path class="cls-12" d="M15.09,20v.35a.86.86,0,0,1-.61.7h0c-.63-.25-.63-.7-.63-.7V20Z"/><path class="cls-13" d="M13.89,20.62H15v-.19a.47.47,0,0,1-.3-.27h-.17a.24.24,0,0,1-.12,0h-.09a.29.29,0,0,1-.13,0h0l-.25.21v.06h-.09v.15"/><path d="M15.09,20H13.84v.35s0,.46.64.7c.61-.24.62-.69.62-.7V20Zm0,0v.34a.85.85,0,0,1-.61.69c-.6-.24-.61-.68-.61-.69V20Z"/><path d="M14.4,18.61h0v.77h0v-.77Zm0,0h0v.78h0v-.77h0s0,0,0,0Z"/><path class="cls-1" d="M14.45,19.57h0v-.08H14.3v.08Z"/><path d="M14.37,19.45h0v.06h.09v-.06h-.09Zm.08,0h.06a.06.06,0,0,1,0,.06h-.08v-.06h0Z"/><path class="cls-1" d="M14.33,19.47h-.1a.08.08,0,0,0,.07.07h.08S14.35,19.47,14.33,19.47Z"/><path d="M14.23,19.48h0a.11.11,0,0,0,.08.08h.08V19.5h0S14.24,19.46,14.23,19.48Zm0,0h0Z"/><path class="cls-1" d="M14.21,19.49H14.1s0,.06.08,0h0Z"/><path d="M14.21,19.48h-.12a.18.18,0,0,0,.09.06h.08Zm-.11,0h0a.11.11,0,0,1,0,.09Z"/><path class="cls-1" d="M14.56,19.47h.1a.08.08,0,0,1-.07.07h-.08S14.54,19.47,14.56,19.47Z"/><path d="M14.56,19.46h0v.05h.08a.1.1,0,0,0,.07-.08h0Zm0,.08h0m0-.06h.09a.09.09,0,0,1,0,.07Z"/><path class="cls-1" d="M14.68,19.49h.11s-.07.06-.08,0h0Z"/><path d="M14.68,19.48s0,0,0,.07h.08a.16.16,0,0,0,.08-.06h-.11Zm0,.07Z"/><path class="cls-12" d="M14.56,19.48h0Z"/><path class="cls-14" d="M14.39,19.13h0v.05l-.26.13a.09.09,0,0,0-.06.08h.07a.56.56,0,0,0,.15.1h.13l-.1-.1h-.09l.11-.07a.14.14,0,0,1,.09,0h.06v-.09h0"/><path d="M14.37,19.05v.06l-.14.05-.13.06a.11.11,0,0,0,0,.09h0l.15.1h.14l-.1-.1h-.08l.1-.07h.15v-.08h0Zm-.3.31h0v-.08l.14-.06c.07,0,.12,0,.12-.07v-.06h.06v.08h-.06a.14.14,0,0,0-.09,0l-.11.07h.09l.09.1h-.14S14.08,19.38,14.07,19.36Z"/><path class="cls-14" d="M14.48,19.09h-.07S14.49,19.11,14.48,19.09Z"/><path d="M14.41,19.09Zm0,0h.06s0,0,0,0Z"/><path class="cls-14" d="M14.48,19.11h-.07S14.49,19.12,14.48,19.11Z"/><path class="cls-14" d="M14.48,19.13h-.07S14.49,19.14,14.48,19.13Z"/><path class="cls-14" d="M14.47,19.15Z"/><path class="cls-14" d="M14.49,19h.07a1.21,1.21,0,0,0,.24.21.14.14,0,0,1,0,.09h0a.74.74,0,0,1-.13.12h-.13s.06-.11.09-.11.08-.06.08-.06a.16.16,0,0,1-.11-.09s0-.11-.08-.12h0V19h0"/><path d="M14.45,18.91h0V19h.05a.15.15,0,0,0,.08.12.16.16,0,0,0,.09.09l-.08.05a.83.83,0,0,0-.08.12h.14l.14-.13h0v-.09l-.2-.16h0Zm0,0h.06l.2.17v.08h0l-.13.12h-.12a.25.25,0,0,1,.08-.12h.08a.15.15,0,0,1-.1-.09s0-.12-.09-.12h0v-.08h0Z"/><path class="cls-14" d="M14.41,19Z"/><path d="M14.41,19Zm0,0h0l.05,0Z"/><path class="cls-14" d="M14.41,19Z"/><path class="cls-14" d="M14.41,19Z"/><path class="cls-4" d="M14.47,18.89a.13.13,0,0,1,.12,0c.07,0,.18.07.21,0v-.08h-.34Z"/><path class="cls-11" d="M14.82,18.76h-.11v-.1h.11Z"/><path class="cls-15" d="M14.46,18.65h.2v.17h-.18A1,1,0,0,0,14.46,18.65Z"/><path d="M14.54,18.63h-.08a1.13,1.13,0,0,1,0,.26h0a.24.24,0,0,1,.12,0h.21v-.27h-.12A.29.29,0,0,0,14.54,18.63Zm0,0h.16a.17.17,0,0,0,.1,0v.26h-.21a.2.2,0,0,0-.11,0V18.8a.38.38,0,0,0,0-.15Z"/><polygon points="13.78 20.73 13.71 20.88 13.72 20.88 13.79 20.73 13.78 20.72 13.78 20.73"/><path d="M13.7,20.62v.08a.07.07,0,0,0,.07.06h0a0,0,0,0,0,0-.05h0v.08h0v-.06h0Zm.05,0h0s0,.09,0,.09Z"/><polygon points="15.09 20.73 15.16 20.88 15.17 20.88 15.1 20.72 15.09 20.73"/><path d="M15.17,20.62h0v.05h0l-.08,0h0a.08.08,0,0,0,.1-.05h0v-.08h0Zm-.08.09h0v0Z"/><path d="M15,20.79h0a0,0,0,0,1,0,.05h0v-.06h0Z"/><path class="cls-1" d="M14.5,21.25v.06h-.08v-.07Zm0,0Z"/><path class="cls-1" d="M15,21.1H15V21Zm0,0Z"/><path class="cls-1" d="M19.84,20.78l-.09-.07h-.07a.24.24,0,0,0-.24-.08s.08,0,.09.07h0s.16.14.2.12h0c.06,0,.07.07.13.1h0"/><path d="M19.41,20.63h.11c.06,0,.12.09.14.08h0l0,.1h-.06l-.14-.08h0a.09.09,0,0,0-.07,0,.43.43,0,0,1,.21.08h.06l.09.07h0l-.08-.07h-.07A.25.25,0,0,0,19.41,20.63Zm.19.15Z"/><path class="cls-1" d="M20.66,20.78l.11-.07h.07a.23.23,0,0,1,.23-.08.08.08,0,0,0-.08.07h0s-.17.14-.19.12h0a.46.46,0,0,1-.12.1"/><path d="M20.85,20.71h-.08l-.08.07h0l.08-.07h0a.24.24,0,0,1,.21-.08h0l-.08.05-.11.07H20.7a0,0,0,0,1-.05,0h0a.16.16,0,0,0,.12-.07h.12Zm0,.07Z"/><path d="M20.64,21.3l-.27-.8v.07h0a.61.61,0,0,0,0,.19c0,.07.08,0,.08,0h0v.09h.07v.07h.25v-.08s-.09,0-.1,0,0-.08,0-.08l.1-.05H21c.06,0,.09-.13.1-.14h0V20.5H21a0,0,0,0,1,0-.05h0v.05h0v.07h0V20.5h-.21a.17.17,0,0,0-.1,0h0m-.06,0h0m.06,0c0-.05-.07-.15,0-.16s0,.11.15.2.11,0,.11,0H21c.17,0,.08-.07.08-.07.17,0,.08-.08.08-.08.17,0,.06-.09.06-.09v-.1c.18-.11,0-.11,0-.11V20a.3.3,0,0,0,.08-.08h-.06a.19.19,0,0,0,.08-.1h0a.45.45,0,0,0,.11-.13h0l.1-.15a.11.11,0,0,0,.05-.09c0-.06-.3.11-.38.15a1.14,1.14,0,0,0-.37.32c-.07.1,0,.19,0,.17s.06,0,0,.11a.2.2,0,0,1-.21.13h0c-.09-.06-.11-.35-.11-.4h.18v-.06h0v-.05h0v-.06h-.08a.11.11,0,0,0,.09-.1.1.1,0,0,0-.11-.1h-.05a.18.18,0,0,0,0,.25l0,0h0a.21.21,0,0,0-.23.07h-.09s0-.09.07-.09.1,0,.16.12a.69.69,0,0,1,0,.35l-.09.12a.2.2,0,0,1-.22-.13V20a1.22,1.22,0,0,0-.36-.32c-.08,0-.41-.22-.4-.15a.13.13,0,0,0,.07.09s-.08,0,.09.15h0a.69.69,0,0,0,.11.13h-.06a.39.39,0,0,0,.08.1h0l.08.08s-.14,0,0,.12-.13,0,0,.11-.12,0,0,.1-.11.05.06.09-.09,0,.07.08-.08.08.09.07,0,.08.1,0,0,.1.12,0,.12-.2.14-.2-.09.11,0,.16.07,0,.06,0h0a.06.06,0,0,1-.06,0h-.72v.07h0v-.07h0s.06,0,0,0h0v0h-.11a.09.09,0,0,0,0,.07h0a.16.16,0,0,0,.11.14h.13a.14.14,0,0,0,.18,0v.08h-.11s0,.06,0,.08h.07v-.07H20v-.09h.08a.67.67,0,0,0,0-.2h0v-.06l-.26.79"/><path class="cls-1" d="M20.05,20.88a1.2,1.2,0,0,1,.06-.28h0l-.22.71h0"/><path d="M20.09,20.59l-.23.71h0l.23-.71h0v.32h0v-.27h0Z"/><path class="cls-1" d="M20.07,21a1.51,1.51,0,0,1,.08-.36h0l-.2.69h0Z"/><path d="M20.11,20.62,20,21a1.4,1.4,0,0,1-.09.29h0l.09-.38.08-.36h0S20.12,20.59,20.11,20.62Zm-.17.72h0a.66.66,0,0,1,.08-.28l.13-.41h0l-.09.36h0l-.08.37A.07.07,0,0,0,19.94,21.34Z"/><path class="cls-1" d="M20.12,20.9v-.23h0l-.15.66h0"/><path d="M20.14,20.71a4.12,4.12,0,0,1-.17.66h0l.15-.66h0v.18h0v-.18h0S20.15,20.64,20.14,20.71Z"/><path class="cls-1" d="M20.16,20.91v-.2h0s-.14.62-.14.63h0"/><path d="M20.16,20.71l-.14.63h0l.15-.63h0V21h0v-.24h0Z"/><path class="cls-1" d="M20.16,20.91a1.67,1.67,0,0,1-.08.44h0v-.72h0a1,1,0,0,0,0,.25"/><path d="M20.19,20.71v0h0v.75h0v-.19l.07-.36h0l-.07.36v.08h0l.07-.5v-.14h0S20.2,20.64,20.19,20.71Z"/><path class="cls-1" d="M20.24,20.71h0l-.09.72h0Z"/><path d="M20.24,20.71h0v.68h0v-.68Zm0,.69v-.69h0v.68h0Z"/><path class="cls-1" d="M20.45,20.88c0-.12,0-.22-.06-.28h0l.22.71h0"/><path d="M20.39,20.6l.06.28h0V20.6h0l.08.23a4.26,4.26,0,0,0,.15.47h0l-.15-.47-.08-.24h-.06Z"/><path class="cls-1" d="M20.43,21a1.51,1.51,0,0,0-.08-.36h0l.19.69h0Z"/><path d="M20.35,20.62V21l.08.36h0a.73.73,0,0,0-.1-.32l-.1-.37h0Zm0,0h0l.1.37.09.32h0L20.47,21l-.06-.23v-.14Z"/><path class="cls-1" d="M20.37,20.9a.89.89,0,0,0,0-.23h0l.16.66h0"/><path d="M20.33,20.71h0v.17h0v-.17h0a5.09,5.09,0,0,0,.17.66h0l-.14-.66h0Z"/><path class="cls-1" d="M20.34,20.91v-.2h0l.15.63h0"/><path d="M20.31,20.71v.2h0v-.2h0l.1.42v.21h0v-.21l-.07-.42h0Z"/><path class="cls-1" d="M20.34,20.91a1.67,1.67,0,0,0,.08.44h0v-.72h0v.25"/><path d="M20.27,20.71v.22l.06.5h.07V21h0v-.28h-.13Zm.09.71-.05-.49v-.22h0v.19h0v.26a.54.54,0,0,0,0,.18h0Z"/><path class="cls-1" d="M20.26,20.71h0l.09.72h0Z"/><path d="M20.26,20.63h0v.74h0v-.74Zm0,0h0v.72h-.07v-.73Z"/><path d="M20.25,21.13h.11l-.09-.26h0l-.08.26h0a.06.06,0,0,0,.06,0h0"/><path class="cls-4" d="M19.72,20.42h-.08v.07h0Z"/><path class="cls-4" d="M19.64,20.41v-.07h.06Z"/><path class="cls-2" d="M20.25,20.46a.37.37,0,0,0,.22-.29V20H20v.19A.37.37,0,0,0,20.25,20.46Z"/><path class="cls-16" d="M20.44,20.28,20,20.05V20h0l.38.2Z"/><path class="cls-4" d="M20.39,20.35l-.36-.2v-.1l.41.23h0Z"/><polygon class="cls-2" points="20.25 20.11 20.26 20.15 20.3 20.13 20.27 20.16 20.31 20.16 20.27 20.18 20.31 20.2 20.26 20.2 20.27 20.23 20.25 20.2 20.23 20.23 20.24 20.2 20.19 20.2 20.23 20.18 20.18 20.16 20.23 20.16 20.2 20.13 20.24 20.15 20.25 20.11"/><path class="cls-1" d="M19.75,19.48l-.2-.17v.11l.07.08h0a.08.08,0,0,0,0-.07h0v.11h0v.1h0v.1h0v.08h.29v-.11h-.1Z"/><path class="cls-1" d="M19.51,19.29a1.76,1.76,0,0,0-.37-.17h0l.34.17Z"/><path class="cls-1" d="M19.64,19.57a3.4,3.4,0,0,0-.45-.28h0l.45.28Z"/><path class="cls-1" d="M19.64,19.57l-.39-.25h0l.37.25Z"/><path class="cls-1" d="M19.64,19.72l-.29-.15h0l.3.19Z"/><path class="cls-1" d="M19.64,19.78l-.16-.07s-.12-.09-.13-.07l.1.09.19.06Z"/><path class="cls-1" d="M19.64,19.85h-.13s-.12-.06-.14,0l.14.07S19.64,19.88,19.64,19.85Z"/><path class="cls-1" d="M19.69,19.91a.81.81,0,0,1-.22,0h0a.88.88,0,0,0,.23,0S19.7,19.92,19.69,19.91Z"/><path class="cls-1" d="M19.72,20h0Z"/><path class="cls-1" d="M19.75,20H19.5a.53.53,0,0,0,.25,0Z"/><path class="cls-1" d="M19.8,20.05l-.15.07h0S19.82,20.07,19.8,20.05Z"/><path class="cls-1" d="M19.84,20.07l-.15.11h0S19.86,20.09,19.84,20.07Z"/><path class="cls-1" d="M19.91,20.09a1,1,0,0,1-.21.2h0l.19-.16S19.92,20.08,19.91,20.09Z"/><path class="cls-1" d="M20,20.1l-.11.13a.55.55,0,0,0-.09.07s.08,0,.1-.07a.38.38,0,0,0,.11-.11S20,20.1,20,20.1Z"/><path class="cls-2" d="M19.84,19.4h.08a.25.25,0,0,1,.17,0c.07,0,.2,0,.23.11s0,.22-.07.19-.13-.16-.16-.2a.17.17,0,0,0-.14,0v.08a.11.11,0,0,1,0-.08.13.13,0,0,1,.12,0,1.4,1.4,0,0,0,.18.13.83.83,0,0,0-.08-.12.19.19,0,0,0-.23,0Z"/><path class="cls-2" d="M20.2,19.25a.16.16,0,0,1-.06-.13.09.09,0,0,1,.09-.09h0v0h0m0,.08h.08a.08.08,0,0,0,0-.11l0,0a.08.08,0,0,0-.11,0,.16.16,0,0,0,0,.23h0Z"/><path class="cls-2" d="M20.23,19.12Z"/><path class="cls-4" d="M20.37,19.39h-.06S20.37,19.38,20.37,19.39Z"/><path d="M19.74,20.45Z"/><path class="cls-2" d="M20,20.63Z"/><path class="cls-2" d="M19.91,20.71Z"/><polygon class="cls-2" points="20.02 20.56 20.01 20.57 20.01 20.57 20.02 20.56"/><polygon class="cls-2" points="19.91 20.75 19.9 20.77 19.91 20.77 19.91 20.75"/><path class="cls-2" d="M19.84,20.79h0v.06h0Z"/><path class="cls-2" d="M19.91,20.78Z"/><path class="cls-2" d="M19.75,20.82Z"/><path class="cls-2" d="M19.85,20.64Z"/><path class="cls-2" d="M20,20.57h0v.16s-.05,0,0,0h0C20,20.66,20.05,20.71,20,20.57Z"/><path class="cls-2" d="M20,20.76s.05,0,0-.05h0v.05Z"/><path class="cls-2" d="M19.86,20.55a.11.11,0,0,0-.11,0h.11Z"/><path class="cls-2" d="M19.72,20.56H19.6m0-.07v.07m0-.06h0s.1.07.12.06Z"/><path class="cls-2" d="M19.64,20.48h0a.09.09,0,0,0,0,.07h0Z"/><path class="cls-2" d="M19.53,20.53a.06.06,0,0,1,0-.06h0v.06Z"/><path class="cls-2" d="M19.48,20.45Z"/><path d="M20.85,20.71h0a.06.06,0,0,0-.06-.06Z"/><path class="cls-4" d="M20.77,20.41v-.07h0Z"/><path class="cls-1" d="M20.77,19.48a1.73,1.73,0,0,1,.21-.17.13.13,0,0,1-.06.11l-.08.08h0a.08.08,0,0,1,0-.07h0a.61.61,0,0,1-.07.14h0v.1h0v.11h0v.07h-.28v-.11h.11Z"/><path class="cls-1" d="M21,19.29a1.76,1.76,0,0,1,.37-.17h0l-.34.17Z"/><path class="cls-1" d="M20.83,19.57a4.08,4.08,0,0,1,.44-.28h0l-.42.27Z"/><path class="cls-1" d="M20.84,19.57a2.59,2.59,0,0,1,.39-.25h0l-.38.25Z"/><path class="cls-1" d="M20.83,19.72l.32-.21h0l-.3.2Z"/><path class="cls-1" d="M20.85,19.78l.16-.07s.11-.09.13-.07a.34.34,0,0,1-.12.09l-.17.06S20.84,19.78,20.85,19.78Z"/><path class="cls-1" d="M20.83,19.85H21s.13-.06.13,0-.09,0-.13.07S20.77,19.88,20.83,19.85Z"/><path class="cls-1" d="M20.77,19.91a.89.89,0,0,0,.23,0h0a1,1,0,0,1-.24,0S20.77,19.92,20.77,19.91Z"/><path class="cls-1" d="M20.77,20H21a.53.53,0,0,1-.25,0Z"/><path class="cls-1" d="M20.7,20.05l.15.07h0S20.68,20.07,20.7,20.05Z"/><path class="cls-1" d="M20.66,20.07l.15.11h0S20.64,20.09,20.66,20.07Z"/><path class="cls-1" d="M20.59,20.09a1.26,1.26,0,0,0,.2.2h0l-.18-.16S20.58,20.08,20.59,20.09Z"/><path class="cls-1" d="M20.53,20.1l.11.13a.55.55,0,0,1,.09.07s-.08,0-.11-.07a.22.22,0,0,0-.1-.11S20.52,20.1,20.53,20.1Z"/><path class="cls-1" d="M20.25,20.54c.1,0,.23-.11.25-.11h0s-.16.12-.21.11h0l-.2-.11h0A.21.21,0,0,0,20.25,20.54Z"/><path d="M20.45,20.37h0l-.19.1-.2-.1h0a.43.43,0,0,0,.22.09.46.46,0,0,0,.23-.09h-.06Zm-.47,0h0c.08,0,.17.1.2.09l.19-.09h0v.05h0a.46.46,0,0,1-.22.11.45.45,0,0,1-.23-.11h0Z"/><path class="cls-2" d="M20.52,20.63Z"/><path class="cls-2" d="M20.59,20.71Z"/><polygon class="cls-2" points="20.57 20.73 20.58 20.74 20.58 20.75 20.57 20.73"/><polygon class="cls-2" points="20.48 20.56 20.49 20.57 20.49 20.57 20.48 20.56"/><polygon class="cls-2" points="20.59 20.75 20.6 20.77 20.59 20.77 20.59 20.75"/><path class="cls-2" d="M20.66,20.79h0v.06h0Z"/><path class="cls-2" d="M20.59,20.78Z"/><path class="cls-2" d="M20.65,20.64Z"/><path class="cls-2" d="M20.47,20.57h0v.16s.05,0,0,0h0s0,.07-.06,0S20.44,20.71,20.47,20.57Z"/><path class="cls-2" d="M20.52,20.76s-.05,0,0-.05h0v.05Z"/><path class="cls-2" d="M20.64,20.55a.11.11,0,0,1,.11,0h-.11Z"/><polygon class="cls-2" points="20.62 20.52 20.62 20.55 20.61 20.55 20.62 20.52"/><path class="cls-2" d="M20.56,20.59h0v.06h0Z"/><path class="cls-2" d="M20.77,20.59a.24.24,0,0,0,0,.12h0Z"/><path class="cls-2" d="M20.77,20.56h.12s0-.06,0-.07v0h0A.67.67,0,0,1,20.77,20.56Z"/><path class="cls-2" d="M20.92,20.48h0a.09.09,0,0,1,0,.07h0Z"/><path class="cls-2" d="M21,20.53a.06.06,0,0,0,0-.06h0v.06Z"/><path class="cls-2" d="M21,20.45Z"/><polygon class="cls-1" points="20.21 21.12 20.24 20.83 20.23 20.83 20.21 21.12"/><polygon class="cls-1" points="20.26 20.83 20.27 21.12 20.27 20.83 20.26 20.83"/><polygon class="cls-1" points="20.16 21.12 20.2 20.83 20.19 20.83 20.16 21.12"/><polygon class="cls-1" points="20.11 21.12 20.17 20.83 20.17 20.83 20.11 21.12"/><polygon class="cls-1" points="20.07 21.1 20.08 21.1 20.14 20.82 20.07 21.1"/><polygon class="cls-1" points="20.02 21.09 20.1 20.81 20.09 20.81 20.02 21.09"/><polygon class="cls-1" points="19.98 21.07 19.98 21.08 20.06 20.81 19.98 21.07"/><polygon class="cls-1" points="20.3 20.83 20.33 21.12 20.31 20.83 20.3 20.83"/><polygon class="cls-1" points="20.33 20.83 20.38 21.12 20.33 20.83 20.33 20.83"/><polygon class="cls-1" points="20.43 21.1 20.43 21.1 20.36 20.82 20.43 21.1"/><polygon class="cls-1" points="20.4 20.81 20.46 21.09 20.41 20.81 20.4 20.81"/><polygon class="cls-1" points="20.51 21.08 20.52 21.07 20.44 20.81 20.51 21.08"/><path class="cls-1" d="M20.25,21a.89.89,0,0,0,.43-.08h0a1.3,1.3,0,0,1-.33.07,1.3,1.3,0,0,1-.33-.07h0a.83.83,0,0,0,.43.08Z"/><path d="M20.25,20.87a1,1,0,0,1-.33-.06h0a1.25,1.25,0,0,0,.43.07h0a1.21,1.21,0,0,0,.43-.07h0A1,1,0,0,1,20.25,20.87Zm-.35,0h0a.72.72,0,0,0,.33.06.77.77,0,0,0,.33-.06h0a1,1,0,0,1-.42.08h0a1.11,1.11,0,0,1-.44-.08h.2Z"/></svg>